{
.appVersion = "3414";
classes = (
{
code = "zero one two three four five six seven eight nine";
name = figs.default;
}
);
copyright = "©2025 Ariel Martín Pérez";
customParameters = (
{
name = license;
value = "SIL Open Font License v1.1";
},
{
name = licenseURL;
value = "http://scripts.sil.org/OFL";
},
{
name = Axes;
value = (
{
Name = Weight;
Tag = wght;
}
);
}
);
date = "2020-09-21 08:55:59 +0000";
designer = "Created by Ariel Martín Pérez with contributions by Đông-Trúc Nguyễn";
designerURL = www.tainome.com;
familyName = Sligoil;
featurePrefixes = (
{
automatic = 1;
code = "languagesystem DFLT dflt;\012\012languagesystem latn dflt;\012languagesystem latn AZE;\012languagesystem latn CRT;\012languagesystem latn KAZ;\012languagesystem latn TAT;\012languagesystem latn TRK;\012languagesystem latn ROM;\012languagesystem latn MOL;\012languagesystem latn MAH;\012languagesystem latn PLK;\012languagesystem latn CAT;\012languagesystem latn NLD;\012";
name = Languagesystems;
}
);
features = (
{
automatic = 1;
code = "feature calt;\012feature locl;\012feature salt;\012feature ss01;\012feature ss02;\012feature ss03;\012feature ss04;\012";
name = aalt;
},
{
code = "sub @figs.default colon' @figs.default by colon.salt;";
name = calt;
},
{
automatic = 1;

glyphs = (
{
glyphname = A;
lastChange = "2025-06-02 10:31:15 +0000";
layers = (
{
associatedMasterId = "4C71D2F8-8800-4A35-9F40-3E8E498F68F0";
backgroundImage = {
imagePath = A.jpg;
locked = "1";
transform = "{6.1676, 0, 0, 6.1676, 0, -55}";
};
layerId = "07653F99-E010-4C6A-A192-CA449B490094";
name = "Sep 21 20, 12:02";
paths = (
{
closed = 1;
nodes = (
"516 0 LINE",
"350 700 LINE",
"270 700 LINE",
"405 0 LINE"
);
},
{
closed = 1;
nodes = (
"135 0 LINE",
"270 700 LINE",
"190 700 LINE",
"35 0 LINE"
);
},
{
closed = 1;
nodes = (
"425 225 LINE",
"425 295 LINE",
"145 295 LINE",
"145 225 LINE"
);
},
{
closed = 1;
nodes = (
"305 630 LINE",
"305 700 LINE",
"225 700 LINE",
"225 630 LINE"
);
}
);
width = 550;
},
{
associatedMasterId = "4C71D2F8-8800-4A35-9F40-3E8E498F68F0";
backgroundImage = {
imagePath = A.jpg;
locked = "1";
transform = "{6.1676, 0, 0, 6.1676, 0, -55}";
};
layerId = "AEEB3E96-5E02-4CC0-9283-CFA02F1C79DB";
name = "Sep 21 20, 12:03";
paths = (
{
closed = 1;
nodes = (
"515 0 LINE",
"370 700 LINE",
"280 700 LINE",
"405 0 LINE"
);
},
{
closed = 1;
nodes = (
"135 0 LINE",
"250 700 LINE",
"160 700 LINE",
"35 0 LINE"
);
},
{
closed = 1;
nodes = (
"425 225 LINE",
"425 295 LINE",
"145 295 LINE",
"145 225 LINE"
);
},
{
closed = 1;
nodes = (
"305 630 LINE",
"305 700 LINE",
"225 700 LINE",
"225 630 LINE"
);
}
);
width = 550;
},
{
associatedMasterId = "4C71D2F8-8800-4A35-9F40-3E8E498F68F0";
backgroundImage = {
imagePath = A.jpg;
locked = "1";
transform = "{6.1676, 0, 0, 6.1676, 0, -55}";
};
layerId = "946E7C7E-120F-4EA6-9F1D-4A855B1D225D";
name = "Sep 21 20, 12:06";
paths = (
{
closed = 1;
nodes = (
"520 0 LINE",
"380 700 LINE",
"300 700 LINE",
"410 0 LINE"
);
},
{
closed = 1;
nodes = (
"135 0 LINE",
"250 700 LINE",
"170 700 LINE",
"35 0 LINE"
);
},
{
closed = 1;
nodes = (
"425 225 LINE",
"425 295 LINE",
"145 295 LINE",
"145 225 LINE"
);
},
{
closed = 1;
nodes = (
"345 630 LINE",
"345 700 LINE",
"190 700 LINE",
"190 630 LINE"
);
}
);
width = 550;
},
{
associatedMasterId = "4C71D2F8-8800-4A35-9F40-3E8E498F68F0";
backgroundImage = {
imagePath = "NEW/A.jpg";
locked = "1";
transform = "{6.1677, 0, 0, 6.1677, 25, -62}";
};
layerId = "A2D79E2D-881B-45B1-84F9-E0A938361793";
name = "Oct 8 20, 15:00";
paths = (
{
closed = 1;
nodes = (
"437 265 LINE",
"152 265 LINE",
"152 195 LINE",
"437 195 LINE"
);
},
{
closed = 1;
nodes = (
"160 0 LINE",
"291 674 LINE",
"237 630 LINE",
"357 630 LINE",
"303 674 LINE",
"435 0 LINE",
"535 0 LINE",
"369 700 LINE",
"225 700 LINE",
"65 0 LINE"
);
}
);
width = 600;
},
{
anchors = (
{
name = bottom;
position = "{300, 0}";
},
{
name = ogonek;
position = "{540, 10}";
},
{
name = top;
position = "{300, 700}";
}
);
associatedMasterId = "4C71D2F8-8800-4A35-9F40-3E8E498F68F0";
guideLines = (
{
position = "{315, 395}";
},
{
position = "{315, 65}";
}
);
layerId = "588A191F-62C1-44E7-89D4-DDFDC490DC7E";
name = "Dec 17 20, 18:00";
paths = (
{
closed = 1;
nodes = (
"137 0 LINE",
"152 65 LINE",
"176 195 LINE",
"190 266 LINE",
"228 395 LINE",
"282 630 LINE",
"312 630 LINE",
"367 395 LINE",
"404 264 LINE",
"419 195 LINE",
"443 65 LINE",
"458 0 LINE",
"555 0 LINE",
"369 700 LINE",
"225 700 LINE",
"45 0 LINE"
);
},
{
closed = 1;
nodes = (
"437 195 LINE",
"437 265 LINE",
"152 265 LINE",
"152 195 LINE"
);
}
);
width = 600;
},
{
anchors = (
{
name = bottom;
position = "{300, 0}";
},
{
name = ogonek;
position = "{540, 10}";
},
{
name = top;
position = "{300, 700}";
}
);
associatedMasterId = "4C71D2F8-8800-4A35-9F40-3E8E498F68F0";
guideLines = (
{
position = "{315, 395}";
},
{
position = "{315, 65}";
}
);
layerId = "5DDD6760-D6F2-461C-8A04-2D09E046E63C";
name = "Dec 17 20, 18:01";
paths = (
{
closed = 1;
nodes = (
"137 0 LINE",
"152 65 LINE",
"176 195 LINE",
"190 266 LINE",
"218 351 LINE",
"282 630 LINE",
"312 630 LINE",
"377 351 LINE",
"404 264 LINE",
"419 195 LINE",
"443 65 LINE",
"458 0 LINE",
"555 0 LINE",
"369 700 LINE",
"225 700 LINE",
"45 0 LINE"
);
},
{
closed = 1;
nodes = (
"437 195 LINE",
"437 265 LINE",
"152 265 LINE",
"152 195 LINE"
);
}
);
width = 600;
},
{
anchors = (
{
name = bottom;
position = "{300, 0}";
},
{
name = ogonek;
position = "{555, 0}";
},
{
name = top;
position = "{300, 700}";
}
);
guideLines = (
{
position = "{365, 110}";
},
{
position = "{137, 195}";
},
{
position = "{137, 265}";
},
{
position = "{315, 350}";
}
);
layerId = "4C71D2F8-8800-4A35-9F40-3E8E498F68F0";
paths = (
{
closed = 1;
nodes = (
"137 0 LINE",
"162 110 LINE",
"177 195 LINE",
"192 265 LINE",
"218 350 LINE",
"282 630 LINE",
"312 630 LINE",
"377 350 LINE",
"403 265 LINE",
"418 195 LINE",
"433 110 LINE",
"458 0 LINE",
"555 0 LINE",
"369 700 LINE",
"225 700 LINE",
"45 0 LINE"
);
},
{
closed = 1;
nodes = (
"437 195 LINE",
"437 265 LINE",
"152 265 LINE",
"152 195 LINE"
);
}
);
width = 600;
},
{
associatedMasterId = "2BACE4BE-9FDB-4959-B9F6-A4D102DDF28D";
backgroundImage = {
imagePath = A.jpg;
locked = "1";
transform = "{6.1676, 0, 0, 6.1676, 0, -55}";
};
layerId = "64496AC1-CB3C-4A66-969A-CD3CF267E099";
name = "Sep 21 20, 12:02";
paths = (
{
closed = 1;
nodes = (
"516 0 LINE",
"350 700 LINE",
"270 700 LINE",
"405 0 LINE"
);
},
{
closed = 1;
nodes = (
"135 0 LINE",
"270 700 LINE",
"190 700 LINE",
"35 0 LINE"
);
},
{
closed = 1;
nodes = (
"425 225 LINE",
"425 295 LINE",
"145 295 LINE",
"145 225 LINE"
);
},
{
closed = 1;
nodes = (
"305 630 LINE",
"305 700 LINE",
"225 700 LINE",
"225 630 LINE"
);
}
);
width = 550;
},
{
associatedMasterId = "2BACE4BE-9FDB-4959-B9F6-A4D102DDF28D";
backgroundImage = {
imagePath = A.jpg;
locked = "1";
transform = "{6.1676, 0, 0, 6.1676, 0, -55}";
};
layerId = "633F4D79-47D2-4318-8F05-6F4E1519E74F";
name = "Sep 21 20, 12:03";
paths = (
{
closed = 1;
nodes = (
"515 0 LINE",
"370 700 LINE",
"280 700 LINE",
"405 0 LINE"
);
},
{
closed = 1;
nodes = (
"135 0 LINE",
"250 700 LINE",
"160 700 LINE",
"35 0 LINE"
);
},
{
closed = 1;
nodes = (
"425 225 LINE",
"425 295 LINE",
"145 295 LINE",
"145 225 LINE"
);
},
{
closed = 1;
nodes = (
"305 630 LINE",
"305 700 LINE",
"225 700 LINE",
"225 630 LINE"
);
}
);
width = 550;
},
{
associatedMasterId = "2BACE4BE-9FDB-4959-B9F6-A4D102DDF28D";
backgroundImage = {
imagePath = A.jpg;
locked = "1";
transform = "{6.1676, 0, 0, 6.1676, 0, -55}";
};
layerId = "ED94F613-09D3-4917-B132-5D3D4FD0BBB4";
name = "Sep 21 20, 12:06";
paths = (
{
closed = 1;
nodes = (
"520 0 LINE",
"380 700 LINE",
"300 700 LINE",
"410 0 LINE"
);
},
{
closed = 1;
nodes = (
"135 0 LINE",
"250 700 LINE",
"170 700 LINE",
"35 0 LINE"
);
},
{
closed = 1;
nodes = (
"425 225 LINE",
"425 295 LINE",
"145 295 LINE",
"145 225 LINE"
);
},
{
closed = 1;
nodes = (
"345 630 LINE",
"345 700 LINE",
"190 700 LINE",
"190 630 LINE"
);
}
);
width = 550;
},
{
associatedMasterId = "2BACE4BE-9FDB-4959-B9F6-A4D102DDF28D";
backgroundImage = {
imagePath = "NEW/A.jpg";
locked = "1";
transform = "{6.1677, 0, 0, 6.1677, 25, -62}";
};
layerId = "CA3082CD-1FE4-4CEF-970A-59F69F57FF8D";
name = "Oct 8 20, 15:00";
paths = (
{
closed = 1;
nodes = (
"437 265 LINE",
"152 265 LINE",
"152 195 LINE",
"437 195 LINE"
);
},
{
closed = 1;
nodes = (
"160 0 LINE",
"291 674 LINE",
"237 630 LINE",
"357 630 LINE",
"303 674 LINE",
"435 0 LINE",
"535 0 LINE",
"369 700 LINE",
"225 700 LINE",
"65 0 LINE"
);
}
);
width = 600;
},
{
anchors = (
{
name = bottom;
position = "{300, 0}";
},
{
name = ogonek;
position = "{540, 10}";
},
{
name = top;
position = "{300, 700}";
}
);
associatedMasterId = "2BACE4BE-9FDB-4959-B9F6-A4D102DDF28D";
guideLines = (
{
position = "{315, 395}";
},
{
position = "{315, 65}";
}
);
layerId = "8CD6BAC6-272A-4A62-A7DF-F788A31784D1";
name = "Dec 17 20, 18:00";
paths = (
{
closed = 1;
nodes = (
"137 0 LINE",
"152 65 LINE",
"176 195 LINE",
"190 266 LINE",
"228 395 LINE",
"282 630 LINE",
"312 630 LINE",
"367 395 LINE",
"404 264 LINE",
"419 195 LINE",
"443 65 LINE",
"458 0 LINE",
"555 0 LINE",
"369 700 LINE",
"225 700 LINE",
"45 0 LINE"
);
},
{
closed = 1;
nodes = (
"437 195 LINE",
"437 265 LINE",
"152 265 LINE",
"152 195 LINE"
);
}
);
width = 600;
},
{
anchors = (
{
name = bottom;
position = "{300, 0}";
},
{
name = ogonek;
position = "{540, 10}";
},
{
name = top;
position = "{300, 700}";
}
);
associatedMasterId = "2BACE4BE-9FDB-4959-B9F6-A4D102DDF28D";
guideLines = (
{
position = "{315, 395}";
},
{
position = "{315, 65}";
}
);
layerId = "B29EB6A8-7321-4988-AAE8-7668A7946FDE";
name = "Dec 17 20, 18:01";
paths = (
{
closed = 1;
nodes = (
"137 0 LINE",
"152 65 LINE",
"176 195 LINE",
"190 266 LINE",
"218 351 LINE",
"282 630 LINE",
"312 630 LINE",
"377 351 LINE",
"404 264 LINE",
"419 195 LINE",
"443 65 LINE",
"458 0 LINE",
"555 0 LINE",
"369 700 LINE",
"225 700 LINE",
"45 0 LINE"
);
},
{
closed = 1;
nodes = (
"437 195 LINE",
"437 265 LINE",
"152 265 LINE",
"152 195 LINE"
);
}
);
width = 600;
},
{
anchors = (
{
name = bottom;
position = "{300, 0}";
},
{
name = ogonek;
position = "{565, 0}";
},
{
name = top;
position = "{300, 700}";
}
);
guideLines = (
{
position = "{365, 110}";
},
{
position = "{152, 185}";
},
{
position = "{137, 265}";
},
{
position = "{315, 350}";
}
);
layerId = "2BACE4BE-9FDB-4959-B9F6-A4D102DDF28D";
paths = (
{
closed = 1;
nodes = (
"150 0 LINE",
"173 110 LINE",
"180 185 LINE",
"197 275 LINE",
"224 350 LINE",
"280 610 LINE",
"314 610 LINE",
"370 350 LINE",
"396 275 LINE",
"414 185 LINE",
"422 110 LINE",
"445 0 LINE",
"565 0 LINE",
"381 700 LINE",
"213 700 LINE",
"35 0 LINE"
);
},
{
closed = 1;
nodes = (
"437 185 LINE",
"437 275 LINE",
"152 275 LINE",
"152 185 LINE"
);
}
);
width = 600;
},
{
anchors = (
{
name = bottom;
position = "{300, 0}";
},
{
name = ogonek;
position = "{555, 0}";
},
{
name = top;
position = "{300, 700}";
}
);
associatedMasterId = "2BACE4BE-9FDB-4959-B9F6-A4D102DDF28D";
guideLines = (
{
position = "{365, 110}";
},
{
position = "{137, 195}";
},
{
position = "{137, 265}";
},
{
position = "{315, 350}";
}
);
layerId = "02EEB5B9-9C87-43F5-B223-D0EB137E33BF";
name = "26 oct. 21 à 13:40";
paths = (
{
closed = 1;
nodes = (
"147 0 LINE",
"171 110 LINE",
"177 185 LINE",
"202 275 LINE",
"226 350 LINE",
"277 610 LINE",
"317 610 LINE",
"370 350 LINE",
"393 275 LINE",
"418 185 LINE",
"424 110 LINE",
"448 0 LINE",
"561 0 LINE",
"405 700 LINE",
"189 700 LINE",
"39 0 LINE"
);
},
{
closed = 1;
nodes = (
"437 185 LINE",
"437 275 LINE",
"152 275 LINE",
"152 185 LINE"
);
}
);
width = 600;
},
{
anchors = (
{
name = bottom;
position = "{300, 0}";
},
{
name = ogonek;
position = "{555, 0}";
},
{
name = top;
position = "{300, 700}";
}
);
associatedMasterId = "2BACE4BE-9FDB-4959-B9F6-A4D102DDF28D";
guideLines = (
{
position = "{365, 110}";
},
{
position = "{137, 195}";
},
{
position = "{137, 265}";
},
{
position = "{315, 350}";
}
);
layerId = "45721B03-E9A6-427F-BD20-EACC3C27D3E1";
name = "31 déc. 21 à 11:14";
paths = (
{
closed = 1;
nodes = (
"150 0 LINE",
"173 110 LINE",
"180 185 LINE",
"199 275 LINE",
"226 350 LINE",
"282 610 LINE",
"312 610 LINE",
"369 350 LINE",
"395 275 LINE",
"414 185 LINE",
"422 110 LINE",
"445 0 LINE",
"565 0 LINE",
"379 700 LINE",
"215 700 LINE",
"35 0 LINE"
);
},
{
closed = 1;
nodes = (
"437 185 LINE",
"437 275 LINE",
"152 275 LINE",
"152 185 LINE"
);
}
);
width = 600;
},
{
anchors = (
{
name = bottom;
position = "{300, 0}";
},
{
name = ogonek;
position = "{570, 0}";
},
{
name = top;
position = "{300, 700}";
}
);
layerId = "9236AB30-8BE3-474D-8AE7-4C3A4AE1933A";
paths = (
{
closed = 1;
nodes = (
"157 0 LINE",
"179 110 LINE",
"182 180 LINE",
"200 280 LINE",
"227 350 LINE",
"279 600 LINE",
"315 600 LINE",
"367 350 LINE",
"393 280 LINE",
"412 180 LINE",
"417 110 LINE",
"439 0 LINE",
"570 0 LINE",
"397 700 LINE",
"197 700 LINE",
"30 0 LINE"
);
},
{
closed = 1;
nodes = (
"437 180 LINE",
"437 280 LINE",
"152 280 LINE",
"152 180 LINE"
);
}
);
width = 600;
}
);
unicode = 0041;
},
{
glyphname = AE;
lastChange = "2025-05-09 09:28:19 +0000";
layers = (
{
guideLines = (
{
position = "{37, 110}";
},
{
position = "{87, 350}";
}
);
layerId = "4C71D2F8-8800-4A35-9F40-3E8E498F68F0";
paths = (
{
closed = 1;
nodes = (
"117 0 LINE",
"139 110 LINE",
"149 195 LINE",
"316 195 LINE",
"310 110 LINE",
"310 0 LINE",
"575 0 LINE",
"575 75 LINE",
"394 75 LINE",
"400 165 LINE",
"400 230 LINE",
"394 325 LINE",
"555 325 LINE",
"555 395 LINE",
"394 395 LINE",
"400 490 LINE",
"400 535 LINE",
"394 630 LINE",
"565 630 LINE",
"565 700 LINE",
"185 700 LINE",
"25 0 LINE"
);
},
{
closed = 1;
nodes = (
"187 350 LINE",
"242 630 LINE",
"316 630 LINE",
"310 535 LINE",
"310 350 LINE",
"316 265 LINE",
"163 265 LINE"
);
}
);
width = 600;
},
{
associatedMasterId = "4C71D2F8-8800-4A35-9F40-3E8E498F68F0";
layerId = "20100067-F7D7-406D-B2C6-DFFD182EEC2A";
name = "Jan 3 21, 21:41";
paths = (
{
closed = 1;
nodes = (
"575 0 LINE",
"575 75 LINE",
"335 75 LINE",
"335 0 LINE"
);
},
{
closed = 1;
nodes = (
"384 0 LINE",
"384 60 LINE",
"390 165 LINE",
"390 215 LINE",
"300 215 LINE",
"300 0 LINE"
);
},
{
closed = 1;
nodes = (
"390 210 LINE",
"390 230 LINE",
"384 335 LINE",
"384 395 LINE",
"300 395 LINE",
"300 210 LINE"
);
},
{
closed = 1;
nodes = (
"384 325 LINE",
"384 385 LINE",
"390 490 LINE",
"390 510 LINE",
"300 510 LINE",
"300 325 LINE"
);
},
{
closed = 1;
nodes = (
"535 325 LINE",
"535 395 LINE",
"335 395 LINE",
"335 325 LINE"
);
},
{
closed = 1;
nodes = (
"390 495 LINE",
"390 535 LINE",
"384 640 LINE",
"384 700 LINE",
"300 700 LINE",
"300 495 LINE"
);
},
{
closed = 1;
nodes = (
"565 630 LINE",
"565 700 LINE",
"335 700 LINE",
"335 630 LINE"
);
},
{
closed = 1;
nodes = (
"327 265 LINE",
"132 265 LINE",
"132 195 LINE",
"327 195 LINE"
);
},
{
closed = 1;
nodes = (
"205 700 LINE",
"25 0 LINE",
"117 0 LINE",
"142 110 LINE",
"157 195 LINE",
"172 265 LINE",
"198 350 LINE",
"262 630 LINE",
"371 630 LINE",
"371 700 LINE"
);
}
);
width = 600;
},
{
guideLines = (
{
position = "{87, 350}";
}
);
layerId = "2BACE4BE-9FDB-4959-B9F6-A4D102DDF28D";
paths = (
{
closed = 1;
nodes = (
"140 0 LINE",
"158 110 LINE",
"156 185 LINE",
"317 185 LINE",
"305 110 LINE",
"305 0 LINE",
"575 0 LINE",
"575 95 LINE",
"403 95 LINE",
"415 165 LINE",
"415 230 LINE",
"403 315 LINE",
"555 315 LINE",
"555 405 LINE",
"403 405 LINE",
"415 490 LINE",
"415 535 LINE",
"403 610 LINE",
"565 610 LINE",
"565 700 LINE",
"165 700 LINE",
"25 0 LINE"
);
},
{
closed = 1;
nodes = (
"198 350 LINE",
"242 610 LINE",
"317 610 LINE",
"305 535 LINE",
"305 350 LINE",
"317 275 LINE",
"171 275 LINE"
);
}
);
width = 600;
},
{
associatedMasterId = "2BACE4BE-9FDB-4959-B9F6-A4D102DDF28D";
layerId = "3588F1B8-B091-43CC-809F-360CFBF8ADF3";
name = "Jan 3 21, 21:41";
paths = (
{
closed = 1;
nodes = (
"575 0 LINE",
"575 75 LINE",
"335 75 LINE",
"335 0 LINE"
);
},
{
closed = 1;
nodes = (
"384 0 LINE",
"384 60 LINE",
"390 165 LINE",
"390 215 LINE",
"300 215 LINE",
"300 0 LINE"
);
},
{
closed = 1;
nodes = (
"390 210 LINE",
"390 230 LINE",
"384 335 LINE",
"384 395 LINE",
"300 395 LINE",
"300 210 LINE"
);
},
{
closed = 1;
nodes = (
"384 325 LINE",
"384 385 LINE",
"390 490 LINE",
"390 510 LINE",
"300 510 LINE",
"300 325 LINE"
);
},
{
closed = 1;
nodes = (
"535 325 LINE",
"535 395 LINE",
"335 395 LINE",
"335 325 LINE"
);
},
{
closed = 1;
nodes = (
"390 495 LINE",
"390 535 LINE",
"384 640 LINE",
"384 700 LINE",
"300 700 LINE",
"300 495 LINE"
);
},
{
closed = 1;
nodes = (
"565 630 LINE",
"565 700 LINE",
"335 700 LINE",
"335 630 LINE"
);
},
{
closed = 1;
nodes = (
"327 265 LINE",
"132 265 LINE",
"132 195 LINE",
"327 195 LINE"
);
},
{
closed = 1;
nodes = (
"205 700 LINE",
"25 0 LINE",
"117 0 LINE",
"142 110 LINE",
"157 195 LINE",
"172 265 LINE",
"198 350 LINE",
"262 630 LINE",
"371 630 LINE",
"371 700 LINE"
);
}
);
width = 600;
},
{
layerId = "9236AB30-8BE3-474D-8AE7-4C3A4AE1933A";
paths = (
{
closed = 1;
nodes = (
"152 0 LINE",
"168 110 LINE",
"160 180 LINE",
"318 180 LINE",
"303 110 LINE",
"303 0 LINE",
"575 0 LINE",
"575 105 LINE",
"408 105 LINE",
"423 165 LINE",
"423 230 LINE",
"408 310 LINE",
"555 310 LINE",
"555 410 LINE",
"408 410 LINE",
"423 490 LINE",
"423 535 LINE",
"408 600 LINE",
"565 600 LINE",
"565 700 LINE",
"155 700 LINE",
"25 0 LINE"
);
},
{
closed = 1;
nodes = (
"204 350 LINE",
"242 600 LINE",
"318 600 LINE",
"303 535 LINE",
"303 350 LINE",
"318 280 LINE",
"175 280 LINE"
);
}
);
width = 600;
}
);
unicode = 00C6;
},
{
glyphname = B;
lastChange = "2025-05-09 09:28:19 +0000";
layers = (
{
anchors = (
{
name = bottom;
position = "{300, 0}";
},
{
name = top;
position = "{300, 700}";
}
);
guideLines = (
{
angle = 90;
position = "{296, 355}";
}
);
layerId = "4C71D2F8-8800-4A35-9F40-3E8E498F68F0";
paths = (
{
closed = 1;
nodes = (
"310 0 LINE SMOOTH",
"463 0 OFFCURVE",
"535 107 OFFCURVE",
"535 211 CURVE SMOOTH",
"535 294 OFFCURVE",
"480 375 OFFCURVE",
"377 375 CURVE",
"377 405 LINE",
"447 405 OFFCURVE",
"490 463 OFFCURVE",
"490 535 CURVE SMOOTH",
"490 614 OFFCURVE",
"439 700 OFFCURVE",
"344 700 CURVE SMOOTH",
"120 700 LINE",
"120 630 LINE",
"310 630 LINE SMOOTH",
"370 630 OFFCURVE",
"400 584 OFFCURVE",
"400 535 CURVE SMOOTH",
"400 481 OFFCURVE",
"363 425 OFFCURVE",
"285 425 CURVE SMOOTH",
"120 425 LINE",
"120 355 LINE",
"285 355 LINE SMOOTH",
"393 355 OFFCURVE",
"445 285 OFFCURVE",
"445 211 CURVE SMOOTH",
"445 142 OFFCURVE",
"399 69 OFFCURVE",
"285 70 CURVE SMOOTH",
"120 71 LINE",
"120 0 LINE"
);
},
{
closed = 1;
nodes = (
"174 0 LINE",
"174 60 LINE",
"180 165 LINE",
"180 205 LINE",
"90 205 LINE",
"90 0 LINE"
);
},
{
closed = 1;
nodes = (
"180 200 LINE",
"180 260 LINE",
"174 365 LINE",
"174 425 LINE",
"90 425 LINE",
"90 200 LINE"
);
},
{
closed = 1;
nodes = (
"174 355 LINE",
"174 415 LINE",
"180 520 LINE",
"180 530 LINE",
"90 530 LINE",
"90 355 LINE"
);
},
{
closed = 1;
nodes = (
"180 525 LINE",
"180 535 LINE",
"174 640 LINE",
"174 700 LINE",
"90 700 LINE",
"90 525 LINE"
);
}
);
width = 600;
},
{
associatedMasterId = "4C71D2F8-8800-4A35-9F40-3E8E498F68F0";
backgroundImage = {
imagePath = BP.jpg;
locked = "1";
transform = "{6.1639, 0, 0, 6.164, 30, -57}";
};
guideLines = (
{
position = "{40, 435}";
}
);
layerId = "3B2599D4-83E0-4CBF-B511-D685A0EC0906";
name = "Sep 21 20, 11:22";
paths = (
{
closed = 1;
nodes = (
"60 0 LINE",
"150 0 LINE",
"150 700 LINE",
"60 700 LINE"
);
},
{
closed = 1;
nodes = (
"100 0 LINE",
"241 0 LINE SMOOTH",
"383 0 OFFCURVE",
"507 88 OFFCURVE",
"507 221 CURVE SMOOTH",
"507 322 OFFCURVE",
"436 390 OFFCURVE",
"330 390 CURVE",
"330 410 LINE",
"430 410 OFFCURVE",
"497 472 OFFCURVE",
"497 566 CURVE SMOOTH",
"497 646 OFFCURVE",
"440 700 OFFCURVE",
"291 700 CURVE SMOOTH",
"100 700 LINE",
"100 630 LINE",
"291 630 LINE SMOOTH",
"387 630 OFFCURVE",
"417 593 OFFCURVE",
"417 555 CURVE SMOOTH",
"417 483 OFFCURVE",
"337 435 OFFCURVE",
"218 435 CURVE SMOOTH",
"100 435 LINE",
"100 365 LINE",
"218 365 LINE SMOOTH",
"343 365 OFFCURVE",
"427 307 OFFCURVE",
"427 221 CURVE SMOOTH",
"427 129 OFFCURVE",
"332 69 OFFCURVE",
"210 70 CURVE SMOOTH",
"100 71 LINE"
);
}
);
width = 600;
},
{
associatedMasterId = "4C71D2F8-8800-4A35-9F40-3E8E498F68F0";
backgroundImage = {
imagePath = BP.jpg;
locked = "1";
transform = "{6.1639, 0, 0, 6.164, 30, -57}";
};
guideLines = (
{
position = "{40, 435}";
}
);
layerId = "6A9E72B8-3603-4FBC-88E7-8446777BBDAD";
name = "Sep 21 20, 11:24";
paths = (
{
closed = 1;
nodes = (
"60 0 LINE",
"150 0 LINE",
"150 700 LINE",
"60 700 LINE"
);
},
{
closed = 1;
nodes = (
"100 0 LINE",
"259 0 LINE SMOOTH",
"401 0 OFFCURVE",
"525 88 OFFCURVE",
"525 221 CURVE SMOOTH",
"525 322 OFFCURVE",
"454 390 OFFCURVE",
"348 390 CURVE",
"348 410 LINE",
"436 410 OFFCURVE",
"495 478 OFFCURVE",
"495 565 CURVE SMOOTH",
"495 645 OFFCURVE",
"438 700 OFFCURVE",
"289 700 CURVE SMOOTH",
"100 700 LINE",
"100 630 LINE",
"289 630 LINE SMOOTH",
"390 630 OFFCURVE",
"415 600 OFFCURVE",
"415 555 CURVE SMOOTH",
"415 483 OFFCURVE",
"343 435 OFFCURVE",
"236 435 CURVE SMOOTH",
"100 435 LINE",
"100 365 LINE",
"236 365 LINE SMOOTH",
"361 365 OFFCURVE",
"445 307 OFFCURVE",
"445 221 CURVE SMOOTH",
"445 129 OFFCURVE",
"350 69 OFFCURVE",
"228 70 CURVE SMOOTH",
"100 71 LINE"
);
}
);
width = 560;
},
{
associatedMasterId = "4C71D2F8-8800-4A35-9F40-3E8E498F68F0";
guideLines = (
{
position = "{35, 435}";
}
);
layerId = "9B5F055C-4039-4AF9-9759-47513C1B410E";
name = "Sep 21 20, 11:28";
paths = (
{
closed = 1;
nodes = (
"55 0 LINE",
"145 0 LINE",
"145 700 LINE",
"55 700 LINE"
);
},
{
closed = 1;
nodes = (
"95 0 LINE",
"249 0 LINE SMOOTH",
"391 0 OFFCURVE",
"525 88 OFFCURVE",
"525 221 CURVE SMOOTH",
"525 322 OFFCURVE",
"444 390 OFFCURVE",
"338 390 CURVE",
"338 410 LINE",
"426 410 OFFCURVE",
"495 478 OFFCURVE",
"495 565 CURVE SMOOTH",
"495 646 OFFCURVE",
"440 700 OFFCURVE",
"299 700 CURVE SMOOTH",
"95 700 LINE",
"95 630 LINE",
"279 630 LINE SMOOTH",
"380 630 OFFCURVE",
"405 600 OFFCURVE",
"405 555 CURVE SMOOTH",
"405 483 OFFCURVE",
"333 435 OFFCURVE",
"226 435 CURVE SMOOTH",
"95 435 LINE",
"95 365 LINE",
"226 365 LINE SMOOTH",
"351 365 OFFCURVE",
"435 307 OFFCURVE",
"435 221 CURVE SMOOTH",
"435 129 OFFCURVE",
"340 69 OFFCURVE",
"218 70 CURVE SMOOTH",
"95 71 LINE"
);
}
);
width = 550;
},
{
associatedMasterId = "4C71D2F8-8800-4A35-9F40-3E8E498F68F0";
guideLines = (
{
position = "{35, 435}";
}
);
layerId = "55315444-ADB2-4772-81B8-54258FE0DC91";
name = "Sep 21 20, 11:55";
paths = (
{
closed = 1;
nodes = (
"55 0 LINE",
"145 0 LINE",
"145 700 LINE",
"55 700 LINE"
);
},
{
closed = 1;
nodes = (
"95 0 LINE",
"294 0 LINE SMOOTH",
"436 0 OFFCURVE",
"520 88 OFFCURVE",
"520 221 CURVE SMOOTH",
"520 325 OFFCURVE",
"470 395 OFFCURVE",
"363 395 CURVE",
"363 415 LINE",
"439 415 OFFCURVE",
"490 472 OFFCURVE",
"490 558 CURVE SMOOTH",
"490 643 OFFCURVE",
"432 700 OFFCURVE",
"344 700 CURVE SMOOTH",
"95 700 LINE",
"95 630 LINE",
"328 630 LINE SMOOTH",
"380 630 OFFCURVE",
"410 601 OFFCURVE",
"410 558 CURVE SMOOTH",
"410 505 OFFCURVE",
"361 435 OFFCURVE",
"271 435 CURVE SMOOTH",
"95 435 LINE",
"95 365 LINE",
"271 365 LINE SMOOTH",
"396 365 OFFCURVE",
"430 307 OFFCURVE",
"430 221 CURVE SMOOTH",
"430 129 OFFCURVE",
"385 69 OFFCURVE",
"263 70 CURVE SMOOTH",
"95 71 LINE"
);
}
);
width = 550;
},
{
associatedMasterId = "4C71D2F8-8800-4A35-9F40-3E8E498F68F0";
guideLines = (
{
position = "{120, 395}";
}
);
layerId = "7D320962-661E-4724-8A1F-B521173A3128";
name = "Oct 6 20, 17:53";
paths = (
{
closed = 1;
nodes = (
"80 0 LINE",
"170 0 LINE",
"170 700 LINE",
"80 700 LINE"
);
},
{
closed = 1;
nodes = (
"120 0 LINE",
"319 0 LINE SMOOTH",
"461 0 OFFCURVE",
"545 88 OFFCURVE",
"545 221 CURVE SMOOTH",
"545 325 OFFCURVE",
"495 395 OFFCURVE",
"388 395 CURVE",
"388 415 LINE",
"453 415 OFFCURVE",
"495 488 OFFCURVE",
"495 560 CURVE SMOOTH",
"495 630 OFFCURVE",
"455 700 OFFCURVE",
"355 700 CURVE SMOOTH",
"120 700 LINE",
"120 630 LINE",
"323 630 LINE SMOOTH",
"384 630 OFFCURVE",
"410 592 OFFCURVE",
"410 550 CURVE SMOOTH",
"410 496 OFFCURVE",
"367 435 OFFCURVE",
"296 435 CURVE SMOOTH",
"120 435 LINE",
"120 365 LINE",
"296 365 LINE SMOOTH",
"421 365 OFFCURVE",
"455 307 OFFCURVE",
"455 221 CURVE SMOOTH",
"455 129 OFFCURVE",
"410 69 OFFCURVE",
"288 70 CURVE SMOOTH",
"120 71 LINE"
);
}
);
width = 600;
},
{
associatedMasterId = "4C71D2F8-8800-4A35-9F40-3E8E498F68F0";
guideLines = (
{
position = "{120, 395}";
}
);
layerId = "051D1D48-A1D6-4FC2-B58B-F69F851CD879";
name = "Oct 6 20, 17:55";
paths = (
{
closed = 1;
nodes = (
"80 0 LINE",
"170 0 LINE",
"170 700 LINE",
"80 700 LINE"
);
},
{
closed = 1;
nodes = (
"120 0 LINE",
"319 0 LINE SMOOTH",
"461 0 OFFCURVE",
"545 88 OFFCURVE",
"545 221 CURVE SMOOTH",
"545 313 OFFCURVE",
"482 375 OFFCURVE",
"388 375 CURVE",
"388 395 LINE",
"458 395 OFFCURVE",
"501 464 OFFCURVE",
"501 536 CURVE SMOOTH",
"501 616 OFFCURVE",
"450 700 OFFCURVE",
"355 700 CURVE SMOOTH",
"120 700 LINE",
"120 630 LINE",
"323 630 LINE SMOOTH",
"381 630 OFFCURVE",
"411 584 OFFCURVE",
"411 535 CURVE SMOOTH",
"411 481 OFFCURVE",
"374 425 OFFCURVE",
"296 425 CURVE SMOOTH",
"120 425 LINE",
"120 355 LINE",
"296 355 LINE SMOOTH",
"391 355 OFFCURVE",
"455 301 OFFCURVE",
"455 221 CURVE SMOOTH",
"455 129 OFFCURVE",
"410 69 OFFCURVE",
"288 70 CURVE SMOOTH",
"120 71 LINE"
);
}
);
width = 600;
},
{
anchors = (
{
name = bottom;
position = "{300, 0}";
},
{
name = top;
position = "{300, 700}";
}
);
guideLines = (
{
angle = 90;
position = "{296, 355}";
}
);
layerId = "2BACE4BE-9FDB-4959-B9F6-A4D102DDF28D";
paths = (
{
closed = 1;
nodes = (
"320 0 LINE SMOOTH",
"473 0 OFFCURVE",
"545 107 OFFCURVE",
"545 211 CURVE SMOOTH",
"545 300 OFFCURVE",
"480 365 OFFCURVE",
"377 365 CURVE",
"377 399 LINE",
"447 399 OFFCURVE",
"500 453 OFFCURVE",
"500 535 CURVE SMOOTH",
"500 625 OFFCURVE",
"449 700 OFFCURVE",
"354 700 CURVE SMOOTH",
"130 700 LINE",
"130 610 LINE",
"310 610 LINE SMOOTH",
"370 610 OFFCURVE",
"388 581 OFFCURVE",
"388 535 CURVE SMOOTH",
"388 471 OFFCURVE",
"363 425 OFFCURVE",
"285 425 CURVE SMOOTH",
"130 425 LINE",
"130 335 LINE",
"285 335 LINE SMOOTH",
"393 335 OFFCURVE",
"433 275 OFFCURVE",
"433 211 CURVE SMOOTH",
"433 142 OFFCURVE",
"399 94 OFFCURVE",
"285 95 CURVE SMOOTH",
"130 96 LINE",
"130 0 LINE"
);
},
{
closed = 1;
nodes = (
"178 0 LINE",
"178 83 LINE",
"190 178 LINE",
"190 205 LINE",
"80 205 LINE",
"80 0 LINE"
);
},
{
closed = 1;
nodes = (
"190 200 LINE",
"190 250 LINE",
"178 345 LINE",
"178 425 LINE",
"80 425 LINE",
"80 200 LINE"
);
},
{
closed = 1;
nodes = (
"178 335 LINE",
"178 410 LINE",
"190 505 LINE",
"190 530 LINE",
"80 530 LINE",
"80 335 LINE"
);
},
{
closed = 1;
nodes = (
"190 525 LINE",
"190 540 LINE",
"178 615 LINE",
"184 700 LINE",
"80 700 LINE",
"80 525 LINE"
);
}
);
width = 600;
},
{
associatedMasterId = "2BACE4BE-9FDB-4959-B9F6-A4D102DDF28D";
backgroundImage = {
imagePath = BP.jpg;
locked = "1";
transform = "{6.1639, 0, 0, 6.164, 30, -57}";
};
guideLines = (
{
position = "{40, 435}";
}
);
layerId = "D603B1AF-D728-4206-A07E-074806D36EED";
name = "Sep 21 20, 11:22";
paths = (
{
closed = 1;
nodes = (
"60 0 LINE",
"150 0 LINE",
"150 700 LINE",
"60 700 LINE"
);
},
{
closed = 1;
nodes = (
"100 0 LINE",
"241 0 LINE SMOOTH",
"383 0 OFFCURVE",
"507 88 OFFCURVE",
"507 221 CURVE SMOOTH",
"507 322 OFFCURVE",
"436 390 OFFCURVE",
"330 390 CURVE",
"330 410 LINE",
"430 410 OFFCURVE",
"497 472 OFFCURVE",
"497 566 CURVE SMOOTH",
"497 646 OFFCURVE",
"440 700 OFFCURVE",
"291 700 CURVE SMOOTH",
"100 700 LINE",
"100 630 LINE",
"291 630 LINE SMOOTH",
"387 630 OFFCURVE",
"417 593 OFFCURVE",
"417 555 CURVE SMOOTH",
"417 483 OFFCURVE",
"337 435 OFFCURVE",
"218 435 CURVE SMOOTH",
"100 435 LINE",
"100 365 LINE",
"218 365 LINE SMOOTH",
"343 365 OFFCURVE",
"427 307 OFFCURVE",
"427 221 CURVE SMOOTH",
"427 129 OFFCURVE",
"332 69 OFFCURVE",
"210 70 CURVE SMOOTH",
"100 71 LINE"
);
}
);
width = 600;
},
{
associatedMasterId = "2BACE4BE-9FDB-4959-B9F6-A4D102DDF28D";
backgroundImage = {
imagePath = BP.jpg;
locked = "1";
transform = "{6.1639, 0, 0, 6.164, 30, -57}";
};
guideLines = (
{
position = "{40, 435}";
}
);
layerId = "FA3B87A6-F119-4713-AE94-B2B63C5A3D73";
name = "Sep 21 20, 11:24";
paths = (
{
closed = 1;
nodes = (
"60 0 LINE",
"150 0 LINE",
"150 700 LINE",
"60 700 LINE"
);
},
{
closed = 1;
nodes = (
"100 0 LINE",
"259 0 LINE SMOOTH",
"401 0 OFFCURVE",
"525 88 OFFCURVE",
"525 221 CURVE SMOOTH",
"525 322 OFFCURVE",
"454 390 OFFCURVE",
"348 390 CURVE",
"348 410 LINE",
"436 410 OFFCURVE",
"495 478 OFFCURVE",
"495 565 CURVE SMOOTH",
"495 645 OFFCURVE",
"438 700 OFFCURVE",
"289 700 CURVE SMOOTH",
"100 700 LINE",
"100 630 LINE",
"289 630 LINE SMOOTH",
"390 630 OFFCURVE",
"415 600 OFFCURVE",
"415 555 CURVE SMOOTH",
"415 483 OFFCURVE",
"343 435 OFFCURVE",
"236 435 CURVE SMOOTH",
"100 435 LINE",
"100 365 LINE",
"236 365 LINE SMOOTH",
"361 365 OFFCURVE",
"445 307 OFFCURVE",
"445 221 CURVE SMOOTH",
"445 129 OFFCURVE",
"350 69 OFFCURVE",
"228 70 CURVE SMOOTH",
"100 71 LINE"
);
}
);
width = 560;
},
{
associatedMasterId = "2BACE4BE-9FDB-4959-B9F6-A4D102DDF28D";
guideLines = (
{
position = "{35, 435}";
}
);
layerId = "E593F0AD-6FBC-43D1-89A3-FAAD016EB1E3";
name = "Sep 21 20, 11:28";
paths = (
{
closed = 1;
nodes = (
"55 0 LINE",
"145 0 LINE",
"145 700 LINE",
"55 700 LINE"
);
},
{
closed = 1;
nodes = (
"95 0 LINE",
"249 0 LINE SMOOTH",
"391 0 OFFCURVE",
"525 88 OFFCURVE",
"525 221 CURVE SMOOTH",
"525 322 OFFCURVE",
"444 390 OFFCURVE",
"338 390 CURVE",
"338 410 LINE",
"426 410 OFFCURVE",
"495 478 OFFCURVE",
"495 565 CURVE SMOOTH",
"495 646 OFFCURVE",
"440 700 OFFCURVE",
"299 700 CURVE SMOOTH",
"95 700 LINE",
"95 630 LINE",
"279 630 LINE SMOOTH",
"380 630 OFFCURVE",
"405 600 OFFCURVE",
"405 555 CURVE SMOOTH",
"405 483 OFFCURVE",
"333 435 OFFCURVE",
"226 435 CURVE SMOOTH",
"95 435 LINE",
"95 365 LINE",
"226 365 LINE SMOOTH",
"351 365 OFFCURVE",
"435 307 OFFCURVE",
"435 221 CURVE SMOOTH",
"435 129 OFFCURVE",
"340 69 OFFCURVE",
"218 70 CURVE SMOOTH",
"95 71 LINE"
);
}
);
width = 550;
},
{
associatedMasterId = "2BACE4BE-9FDB-4959-B9F6-A4D102DDF28D";
guideLines = (
{
position = "{35, 435}";
}
);
layerId = "0ABE7537-54D4-4BDF-A484-CE02D8A1ECCF";
name = "Sep 21 20, 11:55";
paths = (
{
closed = 1;
nodes = (
"55 0 LINE",
"145 0 LINE",
"145 700 LINE",
"55 700 LINE"
);
},
{
closed = 1;
nodes = (
"95 0 LINE",
"294 0 LINE SMOOTH",
"436 0 OFFCURVE",
"520 88 OFFCURVE",
"520 221 CURVE SMOOTH",
"520 325 OFFCURVE",
"470 395 OFFCURVE",
"363 395 CURVE",
"363 415 LINE",
"439 415 OFFCURVE",
"490 472 OFFCURVE",
"490 558 CURVE SMOOTH",
"490 643 OFFCURVE",
"432 700 OFFCURVE",
"344 700 CURVE SMOOTH",
"95 700 LINE",
"95 630 LINE",
"328 630 LINE SMOOTH",
"380 630 OFFCURVE",
"410 601 OFFCURVE",
"410 558 CURVE SMOOTH",
"410 505 OFFCURVE",
"361 435 OFFCURVE",
"271 435 CURVE SMOOTH",
"95 435 LINE",
"95 365 LINE",
"271 365 LINE SMOOTH",
"396 365 OFFCURVE",
"430 307 OFFCURVE",
"430 221 CURVE SMOOTH",
"430 129 OFFCURVE",
"385 69 OFFCURVE",
"263 70 CURVE SMOOTH",
"95 71 LINE"
);
}
);
width = 550;
},
{
associatedMasterId = "2BACE4BE-9FDB-4959-B9F6-A4D102DDF28D";
guideLines = (
{
position = "{120, 395}";
}
);
layerId = "20BF47B7-1D04-4E43-9CAA-484788739015";
name = "Oct 6 20, 17:53";
paths = (
{
closed = 1;
nodes = (
"80 0 LINE",
"170 0 LINE",
"170 700 LINE",
"80 700 LINE"
);
},
{
closed = 1;
nodes = (
"120 0 LINE",
"319 0 LINE SMOOTH",
"461 0 OFFCURVE",
"545 88 OFFCURVE",
"545 221 CURVE SMOOTH",
"545 325 OFFCURVE",
"495 395 OFFCURVE",
"388 395 CURVE",
"388 415 LINE",
"453 415 OFFCURVE",
"495 488 OFFCURVE",
"495 560 CURVE SMOOTH",
"495 630 OFFCURVE",
"455 700 OFFCURVE",
"355 700 CURVE SMOOTH",
"120 700 LINE",
"120 630 LINE",
"323 630 LINE SMOOTH",
"384 630 OFFCURVE",
"410 592 OFFCURVE",
"410 550 CURVE SMOOTH",
"410 496 OFFCURVE",
"367 435 OFFCURVE",
"296 435 CURVE SMOOTH",
"120 435 LINE",
"120 365 LINE",
"296 365 LINE SMOOTH",
"421 365 OFFCURVE",
"455 307 OFFCURVE",
"455 221 CURVE SMOOTH",
"455 129 OFFCURVE",
"410 69 OFFCURVE",
"288 70 CURVE SMOOTH",
"120 71 LINE"
);
}
);
width = 600;
},
{
associatedMasterId = "2BACE4BE-9FDB-4959-B9F6-A4D102DDF28D";
guideLines = (
{
position = "{120, 395}";
}
);
layerId = "49B2C623-48CE-413B-89FF-09D697C21D2D";
name = "Oct 6 20, 17:55";
paths = (
{
closed = 1;
nodes = (
"80 0 LINE",
"170 0 LINE",
"170 700 LINE",
"80 700 LINE"
);
},
{
closed = 1;
nodes = (
"120 0 LINE",
"319 0 LINE SMOOTH",
"461 0 OFFCURVE",
"545 88 OFFCURVE",
"545 221 CURVE SMOOTH",
"545 313 OFFCURVE",
"482 375 OFFCURVE",
"388 375 CURVE",
"388 395 LINE",
"458 395 OFFCURVE",
"501 464 OFFCURVE",
"501 536 CURVE SMOOTH",
"501 616 OFFCURVE",
"450 700 OFFCURVE",
"355 700 CURVE SMOOTH",
"120 700 LINE",
"120 630 LINE",
"323 630 LINE SMOOTH",
"381 630 OFFCURVE",
"411 584 OFFCURVE",
"411 535 CURVE SMOOTH",
"411 481 OFFCURVE",
"374 425 OFFCURVE",
"296 425 CURVE SMOOTH",
"120 425 LINE",
"120 355 LINE",
"296 355 LINE SMOOTH",
"391 355 OFFCURVE",
"455 301 OFFCURVE",
"455 221 CURVE SMOOTH",
"455 129 OFFCURVE",
"410 69 OFFCURVE",
"288 70 CURVE SMOOTH",
"120 71 LINE"
);
}
);
width = 600;
},
{
anchors = (
{
name = bottom;
position = "{300, 0}";
},
{
name = top;
position = "{300, 700}";
}
);
layerId = "9236AB30-8BE3-474D-8AE7-4C3A4AE1933A";
paths = (
{
closed = 1;
nodes = (
"325 0 LINE SMOOTH",
"478 0 OFFCURVE",
"550 107 OFFCURVE",
"550 211 CURVE SMOOTH",
"550 303 OFFCURVE",
"480 360 OFFCURVE",
"377 360 CURVE",
"377 396 LINE",
"447 396 OFFCURVE",
"505 448 OFFCURVE",
"505 535 CURVE SMOOTH",
"505 631 OFFCURVE",
"454 700 OFFCURVE",
"359 700 CURVE SMOOTH",
"135 700 LINE",
"135 600 LINE",
"310 600 LINE SMOOTH",
"370 600 OFFCURVE",
"382 580 OFFCURVE",
"382 535 CURVE SMOOTH",
"382 466 OFFCURVE",
"363 425 OFFCURVE",
"285 425 CURVE SMOOTH",
"135 425 LINE",
"135 325 LINE",
"285 325 LINE SMOOTH",
"393 325 OFFCURVE",
"427 270 OFFCURVE",
"427 211 CURVE SMOOTH",
"427 142 OFFCURVE",
"399 107 OFFCURVE",
"285 108 CURVE SMOOTH",
"135 109 LINE",
"135 0 LINE"
);
},
{
closed = 1;
nodes = (
"180 0 LINE",
"180 95 LINE",
"195 185 LINE",
"195 205 LINE",
"75 205 LINE",
"75 0 LINE"
);
},
{
closed = 1;
nodes = (
"195 200 LINE",
"195 245 LINE",
"180 335 LINE",
"180 425 LINE",
"75 425 LINE",
"75 200 LINE"
);
},
{
closed = 1;
nodes = (
"180 325 LINE",
"180 408 LINE",
"195 498 LINE",
"195 530 LINE",
"75 530 LINE",
"75 325 LINE"
);
},
{
closed = 1;
nodes = (
"195 525 LINE",
"195 543 LINE",
"180 603 LINE",
"189 700 LINE",
"75 700 LINE",
"75 525 LINE"
);
}
);
width = 600;
}
);
unicode = 0042;
},
{
glyphname = C;
lastChange = "2025-06-02 10:14:36 +0000";
layers = (
{
anchors = (
{
name = bottom;
position = "{310, 0}";
},
{
name = top;
position = "{310, 700}";
}
);
guideLines = (
{
position = "{-30, 320}";
},
{
position = "{300, 710}";
},
{
position = "{300, -10}";
}
);
layerId = "4C71D2F8-8800-4A35-9F40-3E8E498F68F0";
paths = (
{
closed = 1;
nodes = (
"453 -10 OFFCURVE",
"525 76 OFFCURVE",
"525 270 CURVE",
"433 270 LINE",
"433 127 OFFCURVE",
"404 65 OFFCURVE",
"310 65 CURVE SMOOTH",
"210 65 OFFCURVE",
"167 135 OFFCURVE",
"167 350 CURVE SMOOTH",
"167 565 OFFCURVE",
"210 640 OFFCURVE",
"310 640 CURVE SMOOTH",
"404 640 OFFCURVE",
"431 573 OFFCURVE",
"431 472 CURVE",
"523 472 LINE",
"523 624 OFFCURVE",
"453 710 OFFCURVE",
"310 710 CURVE SMOOTH",
"161 710 OFFCURVE",
"75 615 OFFCURVE",
"75 350 CURVE SMOOTH",
"75 85 OFFCURVE",
"161 -10 OFFCURVE",
"310 -10 CURVE SMOOTH"
);
}
);
width = 600;
},
{
associatedMasterId = "4C71D2F8-8800-4A35-9F40-3E8E498F68F0";
layerId = "E7E97878-12D3-4366-AC39-72C8BC2E33E6";
name = "Sep 22 20, 14:11";
paths = (
{
closed = 1;
nodes = (
"40 91 OFFCURVE",
"106 -10 OFFCURVE",
"275 -10 CURVE SMOOTH",
"446 -10 OFFCURVE",
"500 114 OFFCURVE",
"500 300 CURVE",
"405 300 LINE",
"405 152 OFFCURVE",
"379 53 OFFCURVE",
"275 53 CURVE SMOOTH",
"174 53 OFFCURVE",
"135 136 OFFCURVE",
"135 350 CURVE",
"40 350 LINE"
);
},
{
closed = 1;
nodes = (
"493 637 OFFCURVE",
"416 710 OFFCURVE",
"275 710 CURVE SMOOTH",
"106 710 OFFCURVE",
"40 609 OFFCURVE",
"40 350 CURVE",
"135 350 LINE",
"135 564 OFFCURVE",
"174 647 OFFCURVE",
"275 647 CURVE SMOOTH",
"353 647 OFFCURVE",
"402 592 OFFCURVE",
"403 438 CURVE",
"497 438 LINE"
);
}
);
width = 550;
},
{
associatedMasterId = "4C71D2F8-8800-4A35-9F40-3E8E498F68F0";
guideLines = (
{
position = "{-32, 438}";
},
{
position = "{-30, 320}";
},
{
position = "{440, 710}";
}
);
layerId = "6639C485-53E9-4C97-B783-B674C929152C";
name = "Sep 26 20, 12:55";
paths = (
{
closed = 1;
nodes = (
"300 718 LINE",
"100 718 OFFCURVE",
"67 582 OFFCURVE",
"67 350 CURVE",
"163 350 LINE",
"163 521 OFFCURVE",
"168 648 OFFCURVE",
"300 648 CURVE"
);
},
{
closed = 1;
nodes = (
"528 632 OFFCURVE",
"459 718 OFFCURVE",
"300 718 CURVE",
"300 648 LINE",
"396 648 OFFCURVE",
"433 581 OFFCURVE",
"433 480 CURVE",
"528 480 LINE"
);
},
{
closed = 1;
nodes = (
"168 52 OFFCURVE",
"163 179 OFFCURVE",
"163 350 CURVE",
"67 350 LINE",
"67 118 OFFCURVE",
"100 -18 OFFCURVE",
"300 -18 CURVE",
"300 52 LINE"
);
},
{
closed = 1;
nodes = (
"433 220 LINE",
"433 119 OFFCURVE",
"396 52 OFFCURVE",
"300 52 CURVE",
"300 -18 LINE",
"459 -18 OFFCURVE",
"528 68 OFFCURVE",
"528 220 CURVE"
);
}
);
width = 600;
},
{
annotations = (
{
position = "{279.83, 360.831}";
text = "too wide ??";
type = Text;
}
);
associatedMasterId = "4C71D2F8-8800-4A35-9F40-3E8E498F68F0";
guideLines = (
{
position = "{-30, 320}";
},
{
position = "{300, 710}";
},
{
position = "{300, -10}";
}
);
layerId = "1234FF6F-3455-4353-8B32-59B7D74E135C";
name = "Oct 16 20, 18:47";
paths = (
{
closed = 1;
nodes = (
"523 624 OFFCURVE",
"453 710 OFFCURVE",
"310 710 CURVE",
"310 640 LINE",
"404 640 OFFCURVE",
"431 573 OFFCURVE",
"431 472 CURVE",
"523 472 LINE"
);
},
{
closed = 1;
nodes = (
"433 270 LINE",
"433 127 OFFCURVE",
"404 65 OFFCURVE",
"310 65 CURVE",
"310 -10 LINE",
"453 -10 OFFCURVE",
"525 76 OFFCURVE",
"525 270 CURVE"
);
},
{
closed = 1;
nodes = (
"310 710 LINE",
"161 710 OFFCURVE",
"75 615 OFFCURVE",
"75 350 CURVE",
"167 350 LINE",
"167 565 OFFCURVE",
"210 640 OFFCURVE",
"310 640 CURVE"
);
},
{
closed = 1;
nodes = (
"210 65 OFFCURVE",
"167 135 OFFCURVE",
"167 350 CURVE",
"75 350 LINE",
"75 85 OFFCURVE",
"161 -10 OFFCURVE",
"310 -10 CURVE",
"310 65 LINE"
);
}
);
width = 600;
},
{
anchors = (
{
name = bottom;
position = "{310, 0}";
},
{
name = top;
position = "{310, 700}";
}
);
guideLines = (
{
position = "{-30, 290}";
},
{
position = "{300, 710}";
},
{
position = "{300, -10}";
},
{
angle = 90;
position = "{387, 395}";
},
{
angle = 90;
position = "{448, 372}";
}
);
layerId = "2BACE4BE-9FDB-4959-B9F6-A4D102DDF28D";
paths = (
{
closed = 1;
nodes = (
"468 -10 OFFCURVE",
"535 96 OFFCURVE",
"535 290 CURVE",
"425 290 LINE",
"425 146 OFFCURVE",
"405 95 OFFCURVE",
"310 95 CURVE SMOOTH",
"225 95 OFFCURVE",
"157 135 OFFCURVE",
"157 350 CURVE SMOOTH",
"157 565 OFFCURVE",
"225 610 OFFCURVE",
"310 610 CURVE SMOOTH",
"387 610 OFFCURVE",
"420 573 OFFCURVE",
"420 472 CURVE",
"530 472 LINE",
"530 624 OFFCURVE",
"448 710 OFFCURVE",
"310 710 CURVE SMOOTH",
"166 710 OFFCURVE",
"45 615 OFFCURVE",
"45 350 CURVE SMOOTH",
"45 85 OFFCURVE",
"161 -10 OFFCURVE",
"310 -10 CURVE SMOOTH"
);
}
);
width = 600;
},
{
associatedMasterId = "2BACE4BE-9FDB-4959-B9F6-A4D102DDF28D";
layerId = "C1845A72-2B3D-4BF5-8C26-72BA1C343181";
name = "Sep 22 20, 14:11";
paths = (
{
closed = 1;
nodes = (
"40 91 OFFCURVE",
"106 -10 OFFCURVE",
"275 -10 CURVE SMOOTH",
"446 -10 OFFCURVE",
"500 114 OFFCURVE",
"500 300 CURVE",
"405 300 LINE",
"405 152 OFFCURVE",
"379 53 OFFCURVE",
"275 53 CURVE SMOOTH",
"174 53 OFFCURVE",
"135 136 OFFCURVE",
"135 350 CURVE",
"40 350 LINE"
);
},
{
closed = 1;
nodes = (
"493 637 OFFCURVE",
"416 710 OFFCURVE",
"275 710 CURVE SMOOTH",
"106 710 OFFCURVE",
"40 609 OFFCURVE",
"40 350 CURVE",
"135 350 LINE",
"135 564 OFFCURVE",
"174 647 OFFCURVE",
"275 647 CURVE SMOOTH",
"353 647 OFFCURVE",
"402 592 OFFCURVE",
"403 438 CURVE",
"497 438 LINE"
);
}
);
width = 550;
},
{
associatedMasterId = "2BACE4BE-9FDB-4959-B9F6-A4D102DDF28D";
guideLines = (
{
position = "{-32, 438}";
},
{
position = "{-30, 320}";
},
{
position = "{440, 710}";
}
);
layerId = "486C2292-D21E-447C-8E6B-8CC1083A8E2B";
name = "Sep 26 20, 12:55";
paths = (
{
closed = 1;
nodes = (
"300 718 LINE",
"100 718 OFFCURVE",
"67 582 OFFCURVE",
"67 350 CURVE",
"163 350 LINE",
"163 521 OFFCURVE",
"168 648 OFFCURVE",
"300 648 CURVE"
);
},
{
closed = 1;
nodes = (
"528 632 OFFCURVE",
"459 718 OFFCURVE",
"300 718 CURVE",
"300 648 LINE",
"396 648 OFFCURVE",
"433 581 OFFCURVE",
"433 480 CURVE",
"528 480 LINE"
);
},
{
closed = 1;
nodes = (
"168 52 OFFCURVE",
"163 179 OFFCURVE",
"163 350 CURVE",
"67 350 LINE",
"67 118 OFFCURVE",
"100 -18 OFFCURVE",
"300 -18 CURVE",
"300 52 LINE"
);
},
{
closed = 1;
nodes = (
"433 220 LINE",
"433 119 OFFCURVE",
"396 52 OFFCURVE",
"300 52 CURVE",
"300 -18 LINE",
"459 -18 OFFCURVE",
"528 68 OFFCURVE",
"528 220 CURVE"
);
}
);
width = 600;
},
{
annotations = (
{
position = "{279.83, 360.831}";
text = "too wide ??";
type = Text;
}
);
associatedMasterId = "2BACE4BE-9FDB-4959-B9F6-A4D102DDF28D";
guideLines = (
{
position = "{-30, 320}";
},
{
position = "{300, 710}";
},
{
position = "{300, -10}";
}
);
layerId = "6110229A-68FB-4151-AFE7-487EF3F1AB29";
name = "Oct 16 20, 18:47";
paths = (
{
closed = 1;
nodes = (
"523 624 OFFCURVE",
"453 710 OFFCURVE",
"310 710 CURVE",
"310 640 LINE",
"404 640 OFFCURVE",
"431 573 OFFCURVE",
"431 472 CURVE",
"523 472 LINE"
);
},
{
closed = 1;
nodes = (
"433 270 LINE",
"433 127 OFFCURVE",
"404 65 OFFCURVE",
"310 65 CURVE",
"310 -10 LINE",
"453 -10 OFFCURVE",
"525 76 OFFCURVE",
"525 270 CURVE"
);
},
{
closed = 1;
nodes = (
"310 710 LINE",
"161 710 OFFCURVE",
"75 615 OFFCURVE",
"75 350 CURVE",
"167 350 LINE",
"167 565 OFFCURVE",
"210 640 OFFCURVE",
"310 640 CURVE"
);
},
{
closed = 1;
nodes = (
"210 65 OFFCURVE",
"167 135 OFFCURVE",
"167 350 CURVE",
"75 350 LINE",
"75 85 OFFCURVE",
"161 -10 OFFCURVE",
"310 -10 CURVE",
"310 65 LINE"
);
}
);
width = 600;
},
{
anchors = (
{
name = bottom;
position = "{325, 0}";
},
{
name = top;
position = "{325, 700}";
}
);
associatedMasterId = "2BACE4BE-9FDB-4959-B9F6-A4D102DDF28D";
guideLines = (
{
position = "{-30, 320}";
},
{
position = "{300, 710}";
},
{
position = "{300, -10}";
},
{
angle = 90;
position = "{387, 395}";
},
{
angle = 90;
position = "{448, 372}";
}
);
layerId = "3B0944A2-83F6-47A7-9863-9DEC47116C62";
name = "31 déc. 21 à 08:39";
paths = (
{
closed = 1;
nodes = (
"487 -10 OFFCURVE",
"555 86 OFFCURVE",
"555 280 CURVE",
"445 280 LINE",
"445 146 OFFCURVE",
"412 95 OFFCURVE",
"325 95 CURVE",
"325 -10 LINE"
);
},
{
closed = 1;
nodes = (
"40 85 OFFCURVE",
"161 -10 OFFCURVE",
"325 -10 CURVE",
"325 95 LINE",
"235 95 OFFCURVE",
"152 135 OFFCURVE",
"152 350 CURVE SMOOTH",
"152 565 OFFCURVE",
"220 610 OFFCURVE",
"325 610 CURVE SMOOTH",
"423 610 OFFCURVE",
"448 561 OFFCURVE",
"443 429 CURVE",
"553 429 LINE",
"562 609 OFFCURVE",
"484 710 OFFCURVE",
"325 710 CURVE SMOOTH",
"161 710 OFFCURVE",
"40 615 OFFCURVE",
"40 350 CURVE SMOOTH"
);
}
);
width = 600;
},
{
anchors = (
{
name = bottom;
position = "{310, 0}";
},
{
name = top;
position = "{310, 700}";
}
);
layerId = "9236AB30-8BE3-474D-8AE7-4C3A4AE1933A";
paths = (
{
closed = 1;
nodes = (
"477 -10 OFFCURVE",
"536 116 OFFCURVE",
"536 290 CURVE",
"417 290 LINE",
"417 191 OFFCURVE",
"402 110 OFFCURVE",
"310 110 CURVE SMOOTH",
"248 110 OFFCURVE",
"152 135 OFFCURVE",
"152 350 CURVE SMOOTH",
"152 545 OFFCURVE",
"233 595 OFFCURVE",
"310 595 CURVE SMOOTH",
"361 595 OFFCURVE",
"415 573 OFFCURVE",
"415 472 CURVE",
"534 472 LINE",
"533 625 OFFCURVE",
"444 710 OFFCURVE",
"310 710 CURVE SMOOTH",
"169 710 OFFCURVE",
"30 615 OFFCURVE",
"30 350 CURVE SMOOTH",
"30 85 OFFCURVE",
"161 -10 OFFCURVE",
"310 -10 CURVE SMOOTH"
);
}
);
width = 600;
}
);
unicode = 0043;
},
{
glyphname = D;
lastChange = "2025-06-02 13:53:03 +0000";
layers = (
{
anchors = (
{
name = bottom;
position = "{300, 0}";
},
{
name = center;
position = "{300, 350}";
},
{
name = top;
position = "{265, 700}";
}
);
layerId = "4C71D2F8-8800-4A35-9F40-3E8E498F68F0";
paths = (
{
closed = 1;
nodes = (
"265 0 LINE SMOOTH",
"421 0 OFFCURVE",
"525 150 OFFCURVE",
"525 376 CURVE SMOOTH",
"525 570 OFFCURVE",
"421 700 OFFCURVE",
"265 700 CURVE SMOOTH",
"85 700 LINE",
"85 0 LINE"
);
},
{
closed = 1;
nodes = (
"175 165 LINE",
"175 535 LINE",
"169 630 LINE",
"265 630 LINE SMOOTH",
"366 630 OFFCURVE",
"434 528 OFFCURVE",
"434 376 CURVE SMOOTH",
"434 192 OFFCURVE",
"366 70 OFFCURVE",
"265 70 CURVE SMOOTH",
"169 70 LINE"
);
}
);
width = 600;
},
{
associatedMasterId = "4C71D2F8-8800-4A35-9F40-3E8E498F68F0";
layerId = "6970BF16-033B-4474-AE3A-609EE645FE21";
name = "Sep 22 20, 14:58";
paths = (
{
closed = 1;
nodes = (
"55 0 LINE",
"145 0 LINE",
"145 700 LINE",
"55 700 LINE"
);
},
{
closed = 1;
nodes = (
"464 630 OFFCURVE",
"430 475 OFFCURVE",
"430 221 CURVE SMOOTH",
"430 129 OFFCURVE",
"385 69 OFFCURVE",
"263 70 CURVE SMOOTH",
"95 71 LINE",
"95 0 LINE",
"294 0 LINE SMOOTH",
"436 0 OFFCURVE",
"520 88 OFFCURVE",
"520 221 CURVE SMOOTH",
"520 508 OFFCURVE",
"518 700 OFFCURVE",
"263 700 CURVE",
"95 700 LINE",
"95 630 LINE",
"263 630 LINE"
);
}
);
width = 550;
},
{
anchors = (
{
name = bottom;
position = "{300, 0}";
},
{
name = center;
position = "{300, 350}";
},
{
name = top;
position = "{275, 700}";
}
);
layerId = "2BACE4BE-9FDB-4959-B9F6-A4D102DDF28D";
paths = (
{
closed = 1;
nodes = (
"275 0 LINE SMOOTH",
"431 0 OFFCURVE",
"555 150 OFFCURVE",
"555 376 CURVE SMOOTH",
"555 570 OFFCURVE",
"431 700 OFFCURVE",
"275 700 CURVE SMOOTH",
"75 700 LINE",
"75 0 LINE"
);
},
{
closed = 1;
nodes = (
"185 190 LINE",
"185 515 LINE",
"177 610 LINE",
"275 610 LINE SMOOTH",
"376 610 OFFCURVE",
"443 528 OFFCURVE",
"443 376 CURVE SMOOTH",
"443 202 OFFCURVE",
"376 95 OFFCURVE",
"275 95 CURVE SMOOTH",
"177 95 LINE"
);
}
);
width = 600;
},
{
associatedMasterId = "2BACE4BE-9FDB-4959-B9F6-A4D102DDF28D";
layerId = "B17F8230-F99D-48B1-8748-75C22B36EB4B";
name = "Sep 22 20, 14:58";
paths = (
{
closed = 1;
nodes = (
"55 0 LINE",
"145 0 LINE",
"145 700 LINE",
"55 700 LINE"
);
},
{
closed = 1;
nodes = (
"464 630 OFFCURVE",
"430 475 OFFCURVE",
"430 221 CURVE SMOOTH",
"430 129 OFFCURVE",
"385 69 OFFCURVE",
"263 70 CURVE SMOOTH",
"95 71 LINE",
"95 0 LINE",
"294 0 LINE SMOOTH",
"436 0 OFFCURVE",
"520 88 OFFCURVE",
"520 221 CURVE SMOOTH",
"520 508 OFFCURVE",
"518 700 OFFCURVE",
"263 700 CURVE",
"95 700 LINE",
"95 630 LINE",
"263 630 LINE"
);
}
);
width = 550;
},
{
anchors = (
{
name = bottom;
position = "{300, 0}";
},
{
name = center;
position = "{300, 350}";
},
{
name = top;
position = "{280, 700}";
}
);
layerId = "9236AB30-8BE3-474D-8AE7-4C3A4AE1933A";
paths = (
{
closed = 1;
nodes = (
"280 0 LINE SMOOTH",
"436 0 OFFCURVE",
"570 150 OFFCURVE",
"570 376 CURVE SMOOTH",
"570 570 OFFCURVE",
"436 700 OFFCURVE",
"280 700 CURVE SMOOTH",
"70 700 LINE",
"70 0 LINE"
);
},
{
closed = 1;
nodes = (
"190 203 LINE",
"190 505 LINE",
"181 600 LINE",
"280 600 LINE SMOOTH",
"381 600 OFFCURVE",
"448 528 OFFCURVE",
"448 376 CURVE SMOOTH",
"447 206 OFFCURVE",
"381 108 OFFCURVE",
"280 108 CURVE SMOOTH",
"181 108 LINE"
);
}
);
width = 600;
}
);
unicode = 0044;
},
{
glyphname = Eth;
lastChange = "2025-05-09 09:28:19 +0000";
layers = (
{
guideLines = (
{
position = "{125, 325}";
}
);
layerId = "4C71D2F8-8800-4A35-9F40-3E8E498F68F0";
paths = (
{
closed = 1;
nodes = (
"286 0 LINE",
"442 0 OFFCURVE",
"546 150 OFFCURVE",
"546 376 CURVE SMOOTH",
"546 570 OFFCURVE",
"442 700 OFFCURVE",
"286 700 CURVE",
"158 700 LINE",
"158 630 LINE",
"286 630 LINE",
"387 630 OFFCURVE",
"455 528 OFFCURVE",
"455 376 CURVE SMOOTH",
"455 192 OFFCURVE",
"387 70 OFFCURVE",
"286 70 CURVE",
"158 70 LINE",
"158 0 LINE"
);
},
{
closed = 1;
nodes = (
"192 0 LINE",
"192 60 LINE",
"198 165 LINE",
"198 225 LINE",
"192 325 LINE",
"192 395 LINE",
"198 495 LINE",
"198 535 LINE",
"192 640 LINE",
"192 700 LINE",
"108 700 LINE",
"108 495 LINE",
"114 395 LINE",
"114 325 LINE",
"108 225 LINE",
"108 0 LINE"
);
},
{
closed = 1;
nodes = (
"342 325 LINE",
"342 395 LINE",
"44 395 LINE",
"44 325 LINE"
);
}
);
width = 600;
},
{
guideLines = (
{
position = "{445, 405}";
}
);
layerId = "2BACE4BE-9FDB-4959-B9F6-A4D102DDF28D";
paths = (
{
closed = 1;
nodes = (
"275 0 LINE SMOOTH",
"431 0 OFFCURVE",
"555 150 OFFCURVE",
"555 376 CURVE SMOOTH",
"555 570 OFFCURVE",
"431 700 OFFCURVE",
"275 700 CURVE SMOOTH",
"126 700 LINE",
"126 610 LINE",
"275 610 LINE SMOOTH",
"376 610 OFFCURVE",
"443 528 OFFCURVE",
"443 376 CURVE SMOOTH",
"443 202 OFFCURVE",
"376 95 OFFCURVE",
"275 95 CURVE SMOOTH",
"126 95 LINE",
"126 0 LINE"
);
},
{
closed = 1;
nodes = (
"196 0 LINE",
"196 60 LINE",
"208 155 LINE",
"208 230 LINE",
"196 315 LINE",
"196 405 LINE",
"208 490 LINE",
"208 545 LINE",
"196 640 LINE",
"196 700 LINE",
"98 700 LINE",
"98 490 LINE",
"110 405 LINE",
"110 315 LINE",
"98 230 LINE",
"98 0 LINE"
);
},
{
closed = 1;
nodes = (
"342 315 LINE",
"342 405 LINE",
"44 405 LINE",
"44 315 LINE"
);
}
);
width = 600;
},
{
layerId = "9236AB30-8BE3-474D-8AE7-4C3A4AE1933A";
paths = (
{
closed = 1;
nodes = (
"270 0 LINE",
"426 0 OFFCURVE",
"560 150 OFFCURVE",
"560 376 CURVE SMOOTH",
"559 571 OFFCURVE",
"426 700 OFFCURVE",
"270 700 CURVE",
"110 700 LINE",
"110 600 LINE",
"270 600 LINE",
"371 600 OFFCURVE",
"437 528 OFFCURVE",
"437 376 CURVE SMOOTH",
"437 207 OFFCURVE",
"371 108 OFFCURVE",
"270 108 CURVE",
"110 108 LINE",
"110 0 LINE"
);
},
{
closed = 1;
nodes = (
"198 0 LINE",
"198 60 LINE",
"213 150 LINE",
"213 233 LINE",
"198 310 LINE",
"198 410 LINE",
"213 488 LINE",
"213 550 LINE",
"198 640 LINE",
"198 700 LINE",
"93 700 LINE",
"93 488 LINE",
"108 410 LINE",
"108 310 LINE",
"93 233 LINE",
"93 0 LINE"
);
},
{
closed = 1;
nodes = (
"342 310 LINE",
"342 410 LINE",
"44 410 LINE",
"44 310 LINE"
);
}
);
width = 600;
}
);
unicode = 00D0;
},
{
glyphname = E;
lastChange = "2025-05-09 09:28:19 +0000";
layers = (
{
anchors = (
{
name = bottom;
position = "{290, 0}";
},
{
name = ogonek;
position = "{515, 0}";
},
{
name = top;
position = "{300, 700}";
},
{
name = topleft;
position = "{20, 700}";
}
);
guideLines = (
{
position = "{445, 395}";
}
);
layerId = "4C71D2F8-8800-4A35-9F40-3E8E498F68F0";
paths = (
{
closed = 1;
nodes = (
"515 0 LINE",
"515 75 LINE",
"174 75 LINE",
"180 165 LINE",
"180 230 LINE",
"174 325 LINE",
"445 325 LINE",
"445 395 LINE",
"174 395 LINE",
"180 490 LINE",
"180 535 LINE",
"174 630 LINE",
"515 630 LINE",
"515 700 LINE",
"90 700 LINE",
"90 0 LINE"
);
}
);
width = 600;
},
{
anchors = (
{
name = bottom;
position = "{290, 0}";
},
{
name = ogonek;
position = "{535, 0}";
},
{
name = top;
position = "{300, 700}";
},
{
name = topleft;
position = "{20, 700}";
}
);
guideLines = (
{
position = "{174, 640}";
},
{
position = "{445, 405}";
}
);
layerId = "2BACE4BE-9FDB-4959-B9F6-A4D102DDF28D";
paths = (
{
closed = 1;
nodes = (
"535 0 LINE",
"535 95 LINE",
"176 95 LINE",
"188 185 LINE",
"188 230 LINE",
"176 315 LINE",
"465 315 LINE",
"465 405 LINE",
"176 405 LINE",
"188 490 LINE",
"188 535 LINE",
"176 610 LINE",
"525 610 LINE",
"525 700 LINE",
"78 700 LINE",
"78 0 LINE"
);
}
);
width = 600;
},
{
anchors = (
{
name = bottom;
position = "{290, 0}";
},
{
name = ogonek;
position = "{545, 0}";
},
{
name = top;
position = "{300, 700}";
},
{
name = topleft;
position = "{20, 700}";
}
);
layerId = "9236AB30-8BE3-474D-8AE7-4C3A4AE1933A";
paths = (
{
closed = 1;
nodes = (
"545 0 LINE",
"545 105 LINE",
"177 105 LINE",
"192 195 LINE",
"192 230 LINE",
"177 310 LINE",
"475 310 LINE",
"475 410 LINE",
"177 410 LINE",
"192 490 LINE",
"192 535 LINE",
"177 600 LINE",
"530 600 LINE",
"530 700 LINE",
"72 700 LINE",
"72 0 LINE"
);
}
);
width = 600;
}
);
unicode = 0045;
},
{
glyphname = Schwa;
lastChange = "2025-06-02 13:52:34 +0000";
layers = (
{
guideLines = (
{
position = "{445, 395}";
}
);
layerId = "4C71D2F8-8800-4A35-9F40-3E8E498F68F0";
paths = (
{
closed = 1;
nodes = (
"439 -10 OFFCURVE",
"525 85 OFFCURVE",
"525 350 CURVE SMOOTH",
"525 615 OFFCURVE",
"439 710 OFFCURVE",
"290 710 CURVE SMOOTH",
"160 710 OFFCURVE",
"75 638 OFFCURVE",
"75 425 CURVE SMOOTH",
"75 325 LINE",
"431 325 LINE",
"425 240 LINE",
"425 123 OFFCURVE",
"381 60 OFFCURVE",
"290 60 CURVE SMOOTH",
"196 60 OFFCURVE",
"169 127 OFFCURVE",
"169 218 CURVE",
"77 218 LINE",
"77 76 OFFCURVE",
"147 -10 OFFCURVE",
"290 -10 CURVE SMOOTH"
);
},
{
closed = 1;
nodes = (
"169 480 LINE",
"169 583 OFFCURVE",
"217 635 OFFCURVE",
"290 635 CURVE SMOOTH",
"358 635 OFFCURVE",
"425 591 OFFCURVE",
"425 480 CURVE",
"431 395 LINE",
"163 395 LINE"
);
}
);
width = 600;
},
{
layerId = "2BACE4BE-9FDB-4959-B9F6-A4D102DDF28D";
paths = (
{
closed = 1;
nodes = (
"435 -10 OFFCURVE",
"548 85 OFFCURVE",
"548 350 CURVE SMOOTH",
"548 615 OFFCURVE",
"440 710 OFFCURVE",
"291 710 CURVE SMOOTH",
"160 710 OFFCURVE",
"52 638 OFFCURVE",
"52 425 CURVE SMOOTH",
"52 345 LINE",
"432 345 LINE",
"420 269 LINE",
"420 127 OFFCURVE",
"367 90 OFFCURVE",
"291 90 CURVE SMOOTH",
"213 90 OFFCURVE",
"172 127 OFFCURVE",
"172 228 CURVE",
"62 228 LINE",
"62 76 OFFCURVE",
"152 -10 OFFCURVE",
"291 -10 CURVE SMOOTH"
);
},
{
closed = 1;
nodes = (
"164 510 LINE",
"164 579 OFFCURVE",
"227 610 OFFCURVE",
"291 610 CURVE SMOOTH",
"355 610 OFFCURVE",
"420 578 OFFCURVE",
"420 510 CURVE",
"432 435 LINE",
"152 435 LINE"
);
}
);
width = 600;
},
{
guideLines = (
{
position = "{444, 105}";
}
);
layerId = "9236AB30-8BE3-474D-8AE7-4C3A4AE1933A";
paths = (
{
closed = 1;
nodes = (
"434 -10 OFFCURVE",
"558 85 OFFCURVE",
"558 350 CURVE SMOOTH",
"557 616 OFFCURVE",
"439 710 OFFCURVE",
"290 710 CURVE SMOOTH",
"162 710 OFFCURVE",
"42 628 OFFCURVE",
"42 415 CURVE SMOOTH",
"42 345 LINE",
"431 345 LINE",
"416 274 LINE",
"416 157 OFFCURVE",
"392 105 OFFCURVE",
"288 105 CURVE SMOOTH",
"205 105 OFFCURVE",
"171 138 OFFCURVE",
"171 233 CURVE",
"52 233 LINE",
"52 76 OFFCURVE",
"152 -10 OFFCURVE",
"290 -10 CURVE SMOOTH"
);
},
{
closed = 1;
nodes = (
"163 525 LINE",
"163 573 OFFCURVE",
"224 598 OFFCURVE",
"290 598 CURVE SMOOTH",
"364 598 OFFCURVE",
"416 568 OFFCURVE",
"416 525 CURVE",
"431 445 LINE",
"148 445 LINE"
);
}
);
width = 600;
}
);
unicode = 018F;
},
{
glyphname = F;
lastChange = "2025-05-09 09:28:19 +0000";
layers = (
{
anchors = (
{
name = bottom;
position = "{300, 0}";
},
{
name = top;
position = "{300, 700}";
}
);
layerId = "4C71D2F8-8800-4A35-9F40-3E8E498F68F0";
paths = (
{
closed = 1;
nodes = (
"180 0 LINE",
"180 210 LINE",
"174 305 LINE",
"435 305 LINE",
"435 375 LINE",
"174 375 LINE",
"180 470 LINE",
"180 535 LINE",
"174 630 LINE",
"515 630 LINE",
"515 700 LINE",
"90 700 LINE",
"90 0 LINE"
);
}
);
width = 600;
},
{
anchors = (
{
name = bottom;
position = "{300, 0}";
},
{
name = top;
position = "{300, 700}";
}
);
layerId = "2BACE4BE-9FDB-4959-B9F6-A4D102DDF28D";
paths = (
{
closed = 1;
nodes = (
"188 0 LINE",
"188 200 LINE",
"176 295 LINE",
"455 295 LINE",
"455 385 LINE",
"176 385 LINE",
"188 480 LINE",
"188 515 LINE",
"176 610 LINE",
"535 610 LINE",
"535 700 LINE",
"78 700 LINE",
"78 0 LINE"
);
}
);
width = 600;
},
{
anchors = (
{
name = bottom;
position = "{300, 0}";
},
{
name = top;
position = "{300, 700}";
}
);
layerId = "9236AB30-8BE3-474D-8AE7-4C3A4AE1933A";
paths = (
{
closed = 1;
nodes = (
"192 0 LINE",
"192 195 LINE",
"177 290 LINE",
"465 290 LINE",
"465 390 LINE",
"177 390 LINE",
"192 485 LINE",
"192 505 LINE",
"177 600 LINE",
"545 600 LINE",
"545 700 LINE",
"72 700 LINE",
"72 0 LINE"
);
}
);
width = 600;
}
);
unicode = 0046;
},
{
glyphname = G;
lastChange = "2025-06-02 13:21:19 +0000";
layers = (
{
anchors = (
{
name = bottom;
position = "{310, 0}";
},
{
name = top;
position = "{310, 700}";
}
);
guideLines = (
{
position = "{110, 275}";
}
);
layerId = "4C71D2F8-8800-4A35-9F40-3E8E498F68F0";
paths = (
{
closed = 1;
nodes = (
"440 -10 OFFCURVE",
"525 62 OFFCURVE",
"525 275 CURVE SMOOTH",
"525 345 LINE",
"267 345 LINE",
"267 275 LINE",
"437 275 LINE",
"431 190 LINE",
"431 117 OFFCURVE",
"383 65 OFFCURVE",
"310 65 CURVE SMOOTH",
"210 65 OFFCURVE",
"167 135 OFFCURVE",
"167 350 CURVE SMOOTH",
"167 565 OFFCURVE",
"210 640 OFFCURVE",
"310 640 CURVE SMOOTH",
"404 640 OFFCURVE",
"431 573 OFFCURVE",
"431 472 CURVE",
"523 472 LINE",
"523 624 OFFCURVE",
"453 710 OFFCURVE",
"310 710 CURVE SMOOTH",
"161 710 OFFCURVE",
"75 615 OFFCURVE",
"75 350 CURVE SMOOTH",
"75 85 OFFCURVE",
"161 -10 OFFCURVE",
"310 -10 CURVE SMOOTH"
);
}
);
width = 600;
},
{
associatedMasterId = "4C71D2F8-8800-4A35-9F40-3E8E498F68F0";
backgroundImage = {
imagePath = "OLD/G.jpg";
locked = "1";
transform = "{6.1661, 0, 0, 6.1661, 0, -43}";
};
layerId = "999FC3EF-5AF3-4458-ADAA-D8CA6CDF4324";
name = "Sep 22 20, 14:43";
paths = (
{
closed = 1;
nodes = (
"40 134 OFFCURVE",
"89 -10 OFFCURVE",
"285 -10 CURVE SMOOTH",
"420 -10 OFFCURVE",
"500 67 OFFCURVE",
"500 310 CURVE",
"405 310 LINE",
"405 156 OFFCURVE",
"384 53 OFFCURVE",
"285 53 CURVE SMOOTH",
"195 53 OFFCURVE",
"135 112 OFFCURVE",
"135 350 CURVE",
"40 350 LINE"
);
},
{
closed = 1;
nodes = (
"493 637 OFFCURVE",
"416 710 OFFCURVE",
"275 710 CURVE SMOOTH",
"106 710 OFFCURVE",
"40 609 OFFCURVE",
"40 350 CURVE",
"135 350 LINE",
"135 564 OFFCURVE",
"174 647 OFFCURVE",
"275 647 CURVE SMOOTH",
"353 647 OFFCURVE",
"402 592 OFFCURVE",
"403 438 CURVE",
"497 438 LINE"
);
},
{
closed = 1;
nodes = (
"245 285 LINE",
"480 285 LINE",
"500 310 LINE",
"500 355 LINE",
"245 355 LINE"
);
}
);
width = 550;
},
{
associatedMasterId = "4C71D2F8-8800-4A35-9F40-3E8E498F68F0";
backgroundImage = {
imagePath = "OLD/G.jpg";
locked = "1";
transform = "{6.1661, 0, 0, 6.1661, 0, -43}";
};
guideLines = (
{
position = "{270, 285}";
}
);
layerId = "EEB3A003-5C7D-497C-8871-5986B3C59997";
name = "Sep 26 20, 12:54";
paths = (
{
closed = 1;
nodes = (
"267 280 LINE",
"484 280 LINE",
"484 350 LINE",
"267 350 LINE"
);
},
{
closed = 1;
nodes = (
"300 718 LINE",
"100 718 OFFCURVE",
"67 582 OFFCURVE",
"67 350 CURVE",
"163 350 LINE",
"163 521 OFFCURVE",
"168 648 OFFCURVE",
"300 648 CURVE"
);
},
{
closed = 1;
nodes = (
"168 52 OFFCURVE",
"163 179 OFFCURVE",
"163 350 CURVE",
"67 350 LINE",
"67 118 OFFCURVE",
"100 -18 OFFCURVE",
"300 -18 CURVE",
"300 52 LINE"
);
},
{
closed = 1;
nodes = (
"513 632 OFFCURVE",
"459 718 OFFCURVE",
"300 718 CURVE",
"300 648 LINE",
"396 648 OFFCURVE",
"425 581 OFFCURVE",
"433 480 CURVE",
"528 480 LINE"
);
},
{
closed = 1;
nodes = (
"300 -18 LINE",
"500 -18 OFFCURVE",
"533 118 OFFCURVE",
"533 350 CURVE",
"437 350 LINE",
"437 179 OFFCURVE",
"432 52 OFFCURVE",
"300 52 CURVE"
);
}
);
width = 600;
},
{
associatedMasterId = "4C71D2F8-8800-4A35-9F40-3E8E498F68F0";
backgroundImage = {
imagePath = "OLD/G.jpg";
locked = "1";
transform = "{6.1661, 0, 0, 6.1661, 0, -43}";
};
guideLines = (
{
position = "{270, 285}";
}
);
layerId = "A394172E-F457-4AC6-A89D-DCDD9F014529";
name = "Sep 29 20, 17:27";
paths = (
{
closed = 1;
nodes = (
"267 280 LINE",
"484 280 LINE",
"484 350 LINE",
"267 350 LINE"
);
},
{
closed = 1;
nodes = (
"300 718 LINE",
"100 718 OFFCURVE",
"67 582 OFFCURVE",
"67 350 CURVE",
"163 350 LINE",
"163 521 OFFCURVE",
"168 648 OFFCURVE",
"300 648 CURVE"
);
},
{
closed = 1;
nodes = (
"168 52 OFFCURVE",
"163 179 OFFCURVE",
"163 350 CURVE",
"67 350 LINE",
"67 118 OFFCURVE",
"100 -18 OFFCURVE",
"300 -18 CURVE",
"300 52 LINE"
);
},
{
closed = 1;
nodes = (
"528 632 OFFCURVE",
"459 718 OFFCURVE",
"300 718 CURVE",
"300 648 LINE",
"396 648 OFFCURVE",
"433 581 OFFCURVE",
"433 480 CURVE",
"528 480 LINE"
);
},
{
closed = 1;
nodes = (
"300 -18 LINE",
"500 -18 OFFCURVE",
"533 118 OFFCURVE",
"533 350 CURVE",
"437 350 LINE",
"437 179 OFFCURVE",
"432 52 OFFCURVE",
"300 52 CURVE"
);
}
);
width = 600;
},
{
associatedMasterId = "4C71D2F8-8800-4A35-9F40-3E8E498F68F0";
backgroundImage = {
imagePath = "OLD/G.jpg";
locked = "1";
transform = "{6.1661, 0, 0, 6.1661, 0, -43}";
};
guideLines = (
{
position = "{120, 336}";
},
{
position = "{110, 345}";
}
);
layerId = "8453E915-0BD3-46C3-B0F3-21EF3764305B";
name = "Oct 8 20, 10:19";
paths = (
{
closed = 1;
nodes = (
"267 275 LINE",
"435 275 LINE",
"435 270 LINE",
"530 270 LINE",
"530 345 LINE",
"267 345 LINE"
);
},
{
closed = 1;
nodes = (
"310 710 LINE",
"118 710 OFFCURVE",
"70 574 OFFCURVE",
"70 350 CURVE",
"166 350 LINE",
"166 513 OFFCURVE",
"176 640 OFFCURVE",
"310 640 CURVE"
);
},
{
closed = 1;
nodes = (
"525 624 OFFCURVE",
"462 710 OFFCURVE",
"310 710 CURVE",
"310 640 LINE",
"408 640 OFFCURVE",
"430 573 OFFCURVE",
"430 472 CURVE",
"525 472 LINE"
);
},
{
closed = 1;
nodes = (
"176 60 OFFCURVE",
"166 187 OFFCURVE",
"166 350 CURVE",
"70 350 LINE",
"70 126 OFFCURVE",
"118 -10 OFFCURVE",
"310 -10 CURVE",
"310 60 LINE"
);
},
{
closed = 1;
nodes = (
"435 270 LINE",
"435 127 OFFCURVE",
"408 60 OFFCURVE",
"310 60 CURVE",
"310 -10 LINE",
"462 -10 OFFCURVE",
"530 76 OFFCURVE",
"530 270 CURVE"
);
}
);
width = 600;
},
{
anchors = (
{
name = bottom;
position = "{300, 0}";
},
{
name = top;
position = "{300, 700}";
}
);
associatedMasterId = "4C71D2F8-8800-4A35-9F40-3E8E498F68F0";
backgroundImage = {
imagePath = "OLD/G.jpg";
locked = "1";
transform = "{6.1661, 0, 0, 6.1661, 0, -43}";
};
guideLines = (
{
position = "{110, 345}";
}
);
layerId = "9154BA87-3D14-4A82-8E8A-3FB568A2168C";
name = "Dec 16 20, 22:36";
paths = (
{
closed = 1;
nodes = (
"440 -10 OFFCURVE",
"525 62 OFFCURVE",
"525 280 CURVE SMOOTH",
"525 350 LINE",
"267 350 LINE",
"267 280 LINE",
"433 280 LINE",
"433 123 OFFCURVE",
"404 65 OFFCURVE",
"310 65 CURVE",
"310 -10 LINE"
);
}
);
width = 600;
},
{
anchors = (
{
name = bottom;
position = "{310, 0}";
},
{
name = top;
position = "{310, 700}";
}
);
guideLines = (
{
position = "{110, 275}";
},
{
angle = 90;
position = "{543, 521}";
}
);
layerId = "2BACE4BE-9FDB-4959-B9F6-A4D102DDF28D";
paths = (
{
closed = 1;
nodes = (
"440 -10 OFFCURVE",
"540 62 OFFCURVE",
"540 275 CURVE SMOOTH",
"540 355 LINE",
"252 355 LINE",
"252 265 LINE",
"440 265 LINE",
"428 190 LINE",
"428 127 OFFCURVE",
"386 95 OFFCURVE",
"310 95 CURVE SMOOTH",
"225 95 OFFCURVE",
"157 135 OFFCURVE",
"157 350 CURVE SMOOTH",
"157 565 OFFCURVE",
"225 610 OFFCURVE",
"310 610 CURVE SMOOTH",
"387 610 OFFCURVE",
"420 573 OFFCURVE",
"420 472 CURVE",
"530 472 LINE",
"530 624 OFFCURVE",
"448 710 OFFCURVE",
"310 710 CURVE SMOOTH",
"166 710 OFFCURVE",
"45 615 OFFCURVE",
"45 350 CURVE SMOOTH",
"45 85 OFFCURVE",
"161 -10 OFFCURVE",
"310 -10 CURVE SMOOTH"
);
}
);
width = 600;
},
{
associatedMasterId = "2BACE4BE-9FDB-4959-B9F6-A4D102DDF28D";
backgroundImage = {
imagePath = "OLD/G.jpg";
locked = "1";
transform = "{6.1661, 0, 0, 6.1661, 0, -43}";
};
layerId = "A7BA1660-3A26-4AD4-86F8-186423254AA3";
name = "Sep 22 20, 14:43";
paths = (
{
closed = 1;
nodes = (
"40 134 OFFCURVE",
"89 -10 OFFCURVE",
"285 -10 CURVE SMOOTH",
"420 -10 OFFCURVE",
"500 67 OFFCURVE",
"500 310 CURVE",
"405 310 LINE",
"405 156 OFFCURVE",
"384 53 OFFCURVE",
"285 53 CURVE SMOOTH",
"195 53 OFFCURVE",
"135 112 OFFCURVE",
"135 350 CURVE",
"40 350 LINE"
);
},
{
closed = 1;
nodes = (
"493 637 OFFCURVE",
"416 710 OFFCURVE",
"275 710 CURVE SMOOTH",
"106 710 OFFCURVE",
"40 609 OFFCURVE",
"40 350 CURVE",
"135 350 LINE",
"135 564 OFFCURVE",
"174 647 OFFCURVE",
"275 647 CURVE SMOOTH",
"353 647 OFFCURVE",
"402 592 OFFCURVE",
"403 438 CURVE",
"497 438 LINE"
);
},
{
closed = 1;
nodes = (
"245 285 LINE",
"480 285 LINE",
"500 310 LINE",
"500 355 LINE",
"245 355 LINE"
);
}
);
width = 550;
},
{
associatedMasterId = "2BACE4BE-9FDB-4959-B9F6-A4D102DDF28D";
backgroundImage = {
imagePath = "OLD/G.jpg";
locked = "1";
transform = "{6.1661, 0, 0, 6.1661, 0, -43}";
};
guideLines = (
{
position = "{270, 285}";
}
);
layerId = "084CF2EC-C54F-4908-82E1-454E44B579EF";
name = "Sep 26 20, 12:54";
paths = (
{
closed = 1;
nodes = (
"267 280 LINE",
"484 280 LINE",
"484 350 LINE",
"267 350 LINE"
);
},
{
closed = 1;
nodes = (
"300 718 LINE",
"100 718 OFFCURVE",
"67 582 OFFCURVE",
"67 350 CURVE",
"163 350 LINE",
"163 521 OFFCURVE",
"168 648 OFFCURVE",
"300 648 CURVE"
);
},
{
closed = 1;
nodes = (
"168 52 OFFCURVE",
"163 179 OFFCURVE",
"163 350 CURVE",
"67 350 LINE",
"67 118 OFFCURVE",
"100 -18 OFFCURVE",
"300 -18 CURVE",
"300 52 LINE"
);
},
{
closed = 1;
nodes = (
"513 632 OFFCURVE",
"459 718 OFFCURVE",
"300 718 CURVE",
"300 648 LINE",
"396 648 OFFCURVE",
"425 581 OFFCURVE",
"433 480 CURVE",
"528 480 LINE"
);
},
{
closed = 1;
nodes = (
"300 -18 LINE",
"500 -18 OFFCURVE",
"533 118 OFFCURVE",
"533 350 CURVE",
"437 350 LINE",
"437 179 OFFCURVE",
"432 52 OFFCURVE",
"300 52 CURVE"
);
}
);
width = 600;
},
{
associatedMasterId = "2BACE4BE-9FDB-4959-B9F6-A4D102DDF28D";
backgroundImage = {
imagePath = "OLD/G.jpg";
locked = "1";
transform = "{6.1661, 0, 0, 6.1661, 0, -43}";
};
guideLines = (
{
position = "{270, 285}";
}
);
layerId = "14EBFD87-3582-4A40-A562-BB3DE23E1AB3";
name = "Sep 29 20, 17:27";
paths = (
{
closed = 1;
nodes = (
"267 280 LINE",
"484 280 LINE",
"484 350 LINE",
"267 350 LINE"
);
},
{
closed = 1;
nodes = (
"300 718 LINE",
"100 718 OFFCURVE",
"67 582 OFFCURVE",
"67 350 CURVE",
"163 350 LINE",
"163 521 OFFCURVE",
"168 648 OFFCURVE",
"300 648 CURVE"
);
},
{
closed = 1;
nodes = (
"168 52 OFFCURVE",
"163 179 OFFCURVE",
"163 350 CURVE",
"67 350 LINE",
"67 118 OFFCURVE",
"100 -18 OFFCURVE",
"300 -18 CURVE",
"300 52 LINE"
);
},
{
closed = 1;
nodes = (
"528 632 OFFCURVE",
"459 718 OFFCURVE",
"300 718 CURVE",
"300 648 LINE",
"396 648 OFFCURVE",
"433 581 OFFCURVE",
"433 480 CURVE",
"528 480 LINE"
);
},
{
closed = 1;
nodes = (
"300 -18 LINE",
"500 -18 OFFCURVE",
"533 118 OFFCURVE",
"533 350 CURVE",
"437 350 LINE",
"437 179 OFFCURVE",
"432 52 OFFCURVE",
"300 52 CURVE"
);
}
);
width = 600;
},
{
associatedMasterId = "2BACE4BE-9FDB-4959-B9F6-A4D102DDF28D";
backgroundImage = {
imagePath = "OLD/G.jpg";
locked = "1";
transform = "{6.1661, 0, 0, 6.1661, 0, -43}";
};
guideLines = (
{
position = "{120, 336}";
},
{
position = "{110, 345}";
}
);
layerId = "932F1326-92F1-4F22-BCC4-18B27664BCAE";
name = "Oct 8 20, 10:19";
paths = (
{
closed = 1;
nodes = (
"267 275 LINE",
"435 275 LINE",
"435 270 LINE",
"530 270 LINE",
"530 345 LINE",
"267 345 LINE"
);
},
{
closed = 1;
nodes = (
"310 710 LINE",
"118 710 OFFCURVE",
"70 574 OFFCURVE",
"70 350 CURVE",
"166 350 LINE",
"166 513 OFFCURVE",
"176 640 OFFCURVE",
"310 640 CURVE"
);
},
{
closed = 1;
nodes = (
"525 624 OFFCURVE",
"462 710 OFFCURVE",
"310 710 CURVE",
"310 640 LINE",
"408 640 OFFCURVE",
"430 573 OFFCURVE",
"430 472 CURVE",
"525 472 LINE"
);
},
{
closed = 1;
nodes = (
"176 60 OFFCURVE",
"166 187 OFFCURVE",
"166 350 CURVE",
"70 350 LINE",
"70 126 OFFCURVE",
"118 -10 OFFCURVE",
"310 -10 CURVE",
"310 60 LINE"
);
},
{
closed = 1;
nodes = (
"435 270 LINE",
"435 127 OFFCURVE",
"408 60 OFFCURVE",
"310 60 CURVE",
"310 -10 LINE",
"462 -10 OFFCURVE",
"530 76 OFFCURVE",
"530 270 CURVE"
);
}
);
width = 600;
},
{
anchors = (
{
name = bottom;
position = "{300, 0}";
},
{
name = top;
position = "{300, 700}";
}
);
associatedMasterId = "2BACE4BE-9FDB-4959-B9F6-A4D102DDF28D";
backgroundImage = {
imagePath = "OLD/G.jpg";
locked = "1";
transform = "{6.1661, 0, 0, 6.1661, 0, -43}";
};
guideLines = (
{
position = "{110, 345}";
}
);
layerId = "150E08F6-1722-46CB-91AE-42BEDF622A29";
name = "Dec 16 20, 22:36";
paths = (
{
closed = 1;
nodes = (
"440 -10 OFFCURVE",
"525 62 OFFCURVE",
"525 280 CURVE SMOOTH",
"525 350 LINE",
"267 350 LINE",
"267 280 LINE",
"433 280 LINE",
"433 123 OFFCURVE",
"404 65 OFFCURVE",
"310 65 CURVE",
"310 -10 LINE"
);
}
);
width = 600;
},
{
anchors = (
{
name = bottom;
position = "{310, 0}";
},
{
name = top;
position = "{310, 700}";
}
);
layerId = "9236AB30-8BE3-474D-8AE7-4C3A4AE1933A";
paths = (
{
closed = 1;
nodes = (
"440 -10 OFFCURVE",
"548 62 OFFCURVE",
"548 285 CURVE SMOOTH",
"548 370 LINE",
"245 370 LINE",
"245 270 LINE",
"452 270 LINE",
"427 190 LINE",
"426 131 OFFCURVE",
"380 110 OFFCURVE",
"310 110 CURVE SMOOTH",
"233 110 OFFCURVE",
"152 135 OFFCURVE",
"152 350 CURVE SMOOTH",
"152 565 OFFCURVE",
"233 595 OFFCURVE",
"310 595 CURVE SMOOTH",
"379 595 OFFCURVE",
"415 573 OFFCURVE",
"415 472 CURVE",
"534 472 LINE",
"533 625 OFFCURVE",
"446 710 OFFCURVE",
"310 710 CURVE SMOOTH",
"169 710 OFFCURVE",
"30 615 OFFCURVE",
"30 350 CURVE SMOOTH",
"30 85 OFFCURVE",
"161 -10 OFFCURVE",
"310 -10 CURVE SMOOTH"
);
}
);
width = 600;
}
);
unicode = 0047;
},
{
glyphname = H;
lastChange = "2025-05-09 09:28:19 +0000";
layers = (
{
anchors = (
{
name = bottom;
position = "{300, 0}";
},
{
name = center;
position = "{300, 350}";
},
{
name = top;
position = "{300, 700}";
},
{
name = topleft;
position = "{20, 700}";
}
);
guideLines = (
{
position = "{125, 325}";
}
);
layerId = "4C71D2F8-8800-4A35-9F40-3E8E498F68F0";
paths = (
{
closed = 1;
nodes = (
"520 0 LINE",
"520 700 LINE",
"430 700 LINE",
"430 500 LINE",
"436 395 LINE",
"436 325 LINE",
"430 220 LINE",
"430 0 LINE"
);
},
{
closed = 1;
nodes = (
"170 0 LINE",
"170 220 LINE",
"164 325 LINE",
"164 395 LINE",
"170 500 LINE",
"170 700 LINE",
"80 700 LINE",
"80 0 LINE"
);
},
{
closed = 1;
nodes = (
"480 325 LINE",
"480 395 LINE",
"120 395 LINE",
"120 325 LINE"
);
}
);
width = 600;
},
{
anchors = (
{
name = bottom;
position = "{300, 0}";
},
{
name = center;
position = "{300, 350}";
},
{
name = top;
position = "{300, 700}";
},
{
name = topleft;
position = "{20, 700}";
}
);
guideLines = (
{
position = "{125, 325}";
}
);
layerId = "2BACE4BE-9FDB-4959-B9F6-A4D102DDF28D";
paths = (
{
closed = 1;
nodes = (
"532 0 LINE",
"532 700 LINE",
"422 700 LINE",
"422 500 LINE",
"434 405 LINE",
"434 315 LINE",
"422 220 LINE",
"422 0 LINE"
);
},
{
closed = 1;
nodes = (
"178 0 LINE",
"178 220 LINE",
"166 315 LINE",
"166 405 LINE",
"178 500 LINE",
"178 700 LINE",
"68 700 LINE",
"68 0 LINE"
);
},
{
closed = 1;
nodes = (
"472 315 LINE",
"472 405 LINE",
"128 405 LINE",
"128 315 LINE"
);
}
);
width = 600;
},
{
anchors = (
{
name = bottom;
position = "{300, 0}";
},
{
name = center;
position = "{300, 350}";
},
{
name = top;
position = "{300, 700}";
},
{
name = topleft;
position = "{20, 700}";
}
);
layerId = "9236AB30-8BE3-474D-8AE7-4C3A4AE1933A";
paths = (
{
closed = 1;
nodes = (
"538 0 LINE",
"538 700 LINE",
"418 700 LINE",
"418 500 LINE",
"433 410 LINE",
"433 310 LINE",
"418 220 LINE",
"418 0 LINE"
);
},
{
closed = 1;
nodes = (
"182 0 LINE",
"182 220 LINE",
"167 310 LINE",
"167 410 LINE",
"182 500 LINE",
"182 700 LINE",
"62 700 LINE",
"62 0 LINE"
);
},
{
closed = 1;
nodes = (
"468 310 LINE",
"468 410 LINE",
"132 410 LINE",
"132 310 LINE"
);
}
);
width = 600;
}
);
unicode = 0048;
},
{
glyphname = Hbar;
lastChange = "2025-05-09 09:28:19 +0000";
layers = (
{
layerId = "4C71D2F8-8800-4A35-9F40-3E8E498F68F0";
paths = (
{
closed = 1;
nodes = (
"520 0 LINE",
"520 490 LINE",
"514 540 LINE",
"514 610 LINE",
"520 660 LINE",
"520 700 LINE",
"430 700 LINE",
"430 660 LINE",
"436 610 LINE",
"436 540 LINE",
"430 490 LINE",
"430 460 LINE",
"436 395 LINE",
"436 325 LINE",
"430 220 LINE",
"430 0 LINE"
);
},
{
closed = 1;
nodes = (
"170 0 LINE",
"170 220 LINE",
"164 325 LINE",
"164 395 LINE",
"170 460 LINE",
"170 490 LINE",
"164 540 LINE",
"164 610 LINE",
"170 660 LINE",
"170 700 LINE",
"80 700 LINE",
"80 660 LINE",
"86 610 LINE",
"86 540 LINE",
"80 490 LINE",
"80 0 LINE"
);
},
{
closed = 1;
nodes = (
"480 325 LINE",
"480 395 LINE",
"120 395 LINE",
"120 325 LINE"
);
},
{
closed = 1;
nodes = (
"561 540 LINE",
"561 610 LINE",
"39 610 LINE",
"39 540 LINE"
);
}
);
width = 600;
},
{
layerId = "2BACE4BE-9FDB-4959-B9F6-A4D102DDF28D";
paths = (
{
closed = 1;
nodes = (
"530 0 LINE",
"530 480 LINE",
"518 530 LINE",
"518 620 LINE",
"530 670 LINE",
"530 700 LINE",
"420 700 LINE",
"420 670 LINE",
"432 620 LINE",
"432 530 LINE",
"420 480 LINE",
"420 450 LINE",
"432 385 LINE",
"432 295 LINE",
"420 200 LINE",
"420 0 LINE"
);
},
{
closed = 1;
nodes = (
"180 0 LINE",
"180 200 LINE",
"168 295 LINE",
"168 385 LINE",
"180 450 LINE",
"180 480 LINE",
"168 530 LINE",
"168 620 LINE",
"180 670 LINE",
"180 700 LINE",
"70 700 LINE",
"70 670 LINE",
"82 620 LINE",
"82 530 LINE",
"70 480 LINE",
"70 0 LINE"
);
},
{
closed = 1;
nodes = (
"480 295 LINE",
"480 385 LINE",
"120 385 LINE",
"120 295 LINE"
);
},
{
closed = 1;
nodes = (
"561 530 LINE",
"561 620 LINE",
"39 620 LINE",
"39 530 LINE"
);
}
);
width = 600;
},
{
layerId = "9236AB30-8BE3-474D-8AE7-4C3A4AE1933A";
paths = (
{
closed = 1;
nodes = (
"535 0 LINE",
"535 475 LINE",
"520 525 LINE",
"520 625 LINE",
"535 675 LINE",
"535 700 LINE",
"415 700 LINE",
"415 675 LINE",
"430 625 LINE",
"430 525 LINE",
"415 475 LINE",
"415 445 LINE",
"430 380 LINE",
"430 280 LINE",
"415 190 LINE",
"415 0 LINE"
);
},
{
closed = 1;
nodes = (
"185 0 LINE",
"185 190 LINE",
"170 280 LINE",
"170 380 LINE",
"185 445 LINE",
"185 475 LINE",
"170 525 LINE",
"170 625 LINE",
"185 675 LINE",
"185 700 LINE",
"65 700 LINE",
"65 675 LINE",
"80 625 LINE",
"80 525 LINE",
"65 475 LINE",
"65 0 LINE"
);
},
{
closed = 1;
nodes = (
"480 280 LINE",
"480 380 LINE",
"120 380 LINE",
"120 280 LINE"
);
},
{
closed = 1;
nodes = (
"561 525 LINE",
"561 625 LINE",
"39 625 LINE",
"39 525 LINE"
);
}
);
width = 600;
}
);
unicode = 0126;
},
{
glyphname = I;
lastChange = "2025-06-02 10:25:39 +0000";
layers = (
{
anchors = (
{
name = bottom;
position = "{300, 0}";
},
{
name = ogonek;
position = "{500, 0}";
},
{
name = top;
position = "{300, 700}";
},
{
name = topleft;
position = "{20, 700}";
}
);
guideLines = (
{
angle = 90;
position = "{345, 268}";
}
);
layerId = "4C71D2F8-8800-4A35-9F40-3E8E498F68F0";
paths = (
{
closed = 1;
nodes = (
"500 0 LINE",
"500 75 LINE",
"339 75 LINE",
"345 176 LINE",
"345 524 LINE",
"339 629 LINE",
"339 630 LINE",
"500 630 LINE",
"500 700 LINE",
"100 700 LINE",
"100 630 LINE",
"261 630 LINE",
"261 629 LINE",
"255 524 LINE",
"255 176 LINE",
"261 75 LINE",
"100 75 LINE",
"100 0 LINE"
);
}
);
width = 600;
},
{
anchors = (
{
name = bottom;
position = "{300, 0}";
},
{
name = ogonek;
position = "{540, 10}";
},
{
name = top;
position = "{300, 700}";
},
{
name = topleft;
position = "{20, 700}";
}
);
associatedMasterId = "4C71D2F8-8800-4A35-9F40-3E8E498F68F0";
layerId = "22E2F123-71E1-439B-863C-94DF12AC6CFD";
name = "Dec 14 20, 12:08";
paths = (
{
closed = 1;
nodes = (
"285 0 LINE",
"335 0 LINE",
"345 362 LINE",
"345 630 LINE",
"285 630 LINE"
);
},
{
closed = 1;
nodes = (
"500 0 LINE",
"500 75 LINE",
"100 75 LINE",
"100 0 LINE"
);
},
{
closed = 1;
nodes = (
"500 630 LINE",
"500 700 LINE",
"100 700 LINE",
"100 630 LINE"
);
},
{
closed = 1;
nodes = (
"315 630 LINE",
"265 630 LINE",
"255 268 LINE",
"255 0 LINE",
"315 0 LINE"
);
}
);
width = 600;
},
{
anchors = (
{
name = bottom;
position = "{300, 0}";
},
{
name = ogonek;
position = "{540, 10}";
},
{
name = top;
position = "{300, 700}";
},
{
name = topleft;
position = "{20, 700}";
}
);
associatedMasterId = "4C71D2F8-8800-4A35-9F40-3E8E498F68F0";
guideLines = (
{
angle = 90;
position = "{345, 268}";
}
);
layerId = "5EE61A3C-069A-4764-BE1A-88CB4D032CDE";
name = "Dec 15 20, 13:52";
paths = (
{
closed = 1;
nodes = (
"500 0 LINE",
"500 75 LINE",
"100 75 LINE",
"100 0 LINE"
);
},
{
closed = 1;
nodes = (
"500 630 LINE",
"500 700 LINE",
"100 700 LINE",
"100 630 LINE"
);
},
{
closed = 1;
nodes = (
"345 0 LINE",
"345 268 LINE",
"339 630 LINE",
"261 630 LINE",
"255 268 LINE",
"255 0 LINE"
);
},
{
closed = 1;
nodes = (
"345 134 LINE",
"345 524 LINE",
"339 629 LINE",
"339 700 LINE",
"285 700 LINE",
"285 134 LINE"
);
},
{
closed = 1;
nodes = (
"315 700 LINE",
"261 700 LINE",
"261 629 LINE",
"255 524 LINE",
"255 134 LINE",
"315 134 LINE"
);
}
);
width = 600;
},
{
anchors = (
{
name = bottom;
position = "{300, 0}";
},
{
name = ogonek;
position = "{530, 0}";
},
{
name = top;
position = "{300, 700}";
},
{
name = topleft;
position = "{20, 700}";
}
);
guideLines = (
{
angle = 90;
position = "{345, 268}";
}
);
layerId = "2BACE4BE-9FDB-4959-B9F6-A4D102DDF28D";
paths = (
{
closed = 1;
nodes = (
"530 0 LINE",
"530 95 LINE",
"343 95 LINE",
"355 190 LINE",
"355 514 LINE",
"343 609 LINE",
"347 610 LINE",
"530 610 LINE",
"530 700 LINE",
"70 700 LINE",
"70 610 LINE",
"253 610 LINE",
"257 609 LINE",
"245 514 LINE",
"245 190 LINE",
"257 95 LINE",
"70 95 LINE",
"70 0 LINE"
);
}
);
width = 600;
},
{
anchors = (
{
name = bottom;
position = "{300, 0}";
},
{
name = ogonek;
position = "{540, 10}";
},
{
name = top;
position = "{300, 700}";
},
{
name = topleft;
position = "{20, 700}";
}
);
associatedMasterId = "2BACE4BE-9FDB-4959-B9F6-A4D102DDF28D";
layerId = "FB68437F-25C9-43A1-B84E-DA2B91D79AEF";
name = "Dec 14 20, 12:08";
paths = (
{
closed = 1;
nodes = (
"285 0 LINE",
"335 0 LINE",
"345 362 LINE",
"345 630 LINE",
"285 630 LINE"
);
},
{
closed = 1;
nodes = (
"500 0 LINE",
"500 75 LINE",
"100 75 LINE",
"100 0 LINE"
);
},
{
closed = 1;
nodes = (
"500 630 LINE",
"500 700 LINE",
"100 700 LINE",
"100 630 LINE"
);
},
{
closed = 1;
nodes = (
"315 630 LINE",
"265 630 LINE",
"255 268 LINE",
"255 0 LINE",
"315 0 LINE"
);
}
);
width = 600;
},
{
anchors = (
{
name = bottom;
position = "{300, 0}";
},
{
name = ogonek;
position = "{540, 10}";
},
{
name = top;
position = "{300, 700}";
},
{
name = topleft;
position = "{20, 700}";
}
);
associatedMasterId = "2BACE4BE-9FDB-4959-B9F6-A4D102DDF28D";
guideLines = (
{
angle = 90;
position = "{345, 268}";
}
);
layerId = "D4B90452-3EA9-498A-BAC1-777D0B24C528";
name = "Dec 15 20, 13:52";
paths = (
{
closed = 1;
nodes = (
"500 0 LINE",
"500 75 LINE",
"100 75 LINE",
"100 0 LINE"
);
},
{
closed = 1;
nodes = (
"500 630 LINE",
"500 700 LINE",
"100 700 LINE",
"100 630 LINE"
);
},
{
closed = 1;
nodes = (
"345 0 LINE",
"345 268 LINE",
"339 630 LINE",
"261 630 LINE",
"255 268 LINE",
"255 0 LINE"
);
},
{
closed = 1;
nodes = (
"345 134 LINE",
"345 524 LINE",
"339 629 LINE",
"339 700 LINE",
"285 700 LINE",
"285 134 LINE"
);
},
{
closed = 1;
nodes = (
"315 700 LINE",
"261 700 LINE",
"261 629 LINE",
"255 524 LINE",
"255 134 LINE",
"315 134 LINE"
);
}
);
width = 600;
},
{
anchors = (
{
name = bottom;
position = "{300, 0}";
},
{
name = ogonek;
position = "{540, 0}";
},
{
name = top;
position = "{300, 700}";
},
{
name = topleft;
position = "{20, 700}";
}
);
layerId = "9236AB30-8BE3-474D-8AE7-4C3A4AE1933A";
paths = (
{
closed = 1;
nodes = (
"540 0 LINE",
"540 105 LINE",
"345 105 LINE",
"360 197 LINE",
"360 509 LINE",
"345 599 LINE",
"351 600 LINE",
"540 600 LINE",
"540 700 LINE",
"60 700 LINE",
"60 600 LINE",
"249 600 LINE",
"255 599 LINE",
"240 509 LINE",
"240 197 LINE",
"255 105 LINE",
"60 105 LINE",
"60 0 LINE"
);
}
);
width = 600;
}
);
unicode = 0049;
},
{
glyphname = IJ;
lastChange = "2025-05-09 09:28:19 +0000";
layers = (
{
layerId = "4C71D2F8-8800-4A35-9F40-3E8E498F68F0";
paths = (
{
closed = 1;
nodes = (
"300 65 LINE",
"206 65 OFFCURVE",
"177 117 OFFCURVE",
"177 260 CURVE",
"85 260 LINE",
"85 66 OFFCURVE",
"157 -10 OFFCURVE",
"300 -10 CURVE"
);
},
{
closed = 1;
nodes = (
"460 -10 OFFCURVE",
"510 95 OFFCURVE",
"510 248 CURVE",
"420 248 LINE",
"420 110 OFFCURVE",
"372 65 OFFCURVE",
"300 65 CURVE",
"300 -10 LINE"
);
},
{
closed = 1;
nodes = (
"175 360 LINE",
"175 700 LINE",
"85 700 LINE",
"85 360 LINE"
);
},
{
closed = 1;
nodes = (
"510 248 LINE",
"510 700 LINE",
"426 700 LINE",
"426 629 LINE",
"420 524 LINE",
"420 248 LINE"
);
},
{
closed = 1;
nodes = (
"480 630 LINE",
"480 700 LINE",
"275 700 LINE",
"275 630 LINE"
);
}
);
width = 600;
},
{
layerId = "2BACE4BE-9FDB-4959-B9F6-A4D102DDF28D";
paths = (
{
closed = 1;
nodes = (
"300 85 LINE",
"209 85 OFFCURVE",
"185 144 OFFCURVE",
"185 280 CURVE",
"75 280 LINE",
"77 73 OFFCURVE",
"149 -10 OFFCURVE",
"300 -10 CURVE"
);
},
{
closed = 1;
nodes = (
"470 -10 OFFCURVE",
"522 95 OFFCURVE",
"522 248 CURVE",
"412 248 LINE",
"412 130 OFFCURVE",
"380 85 OFFCURVE",
"300 85 CURVE",
"300 -10 LINE"
);
},
{
closed = 1;
nodes = (
"185 360 LINE",
"185 700 LINE",
"75 700 LINE",
"75 360 LINE"
);
},
{
closed = 1;
nodes = (
"522 248 LINE",
"522 700 LINE",
"424 700 LINE",
"424 609 LINE",
"412 504 LINE",
"412 248 LINE"
);
},
{
closed = 1;
nodes = (
"482 610 LINE",
"482 700 LINE",
"265 700 LINE",
"265 610 LINE"
);
}
);
width = 600;
},
{
layerId = "9236AB30-8BE3-474D-8AE7-4C3A4AE1933A";
paths = (
{
closed = 1;
nodes = (
"300 95 LINE",
"211 95 OFFCURVE",
"189 158 OFFCURVE",
"189 290 CURVE",
"70 290 LINE",
"73 77 OFFCURVE",
"145 -10 OFFCURVE",
"300 -10 CURVE"
);
},
{
closed = 1;
nodes = (
"475 -10 OFFCURVE",
"528 95 OFFCURVE",
"528 248 CURVE",
"408 248 LINE",
"408 140 OFFCURVE",
"384 95 OFFCURVE",
"300 95 CURVE",
"300 -10 LINE"
);
},
{
closed = 1;
nodes = (
"190 360 LINE",
"190 700 LINE",
"70 700 LINE",
"70 360 LINE"
);
},
{
closed = 1;
nodes = (
"528 248 LINE",
"528 700 LINE",
"423 700 LINE",
"423 599 LINE",
"408 494 LINE",
"408 248 LINE"
);
},
{
closed = 1;
nodes = (
"483 600 LINE",
"483 700 LINE",
"260 700 LINE",
"260 600 LINE"
);
}
);
width = 600;
}
);
unicode = 0132;
},
{
glyphname = J;
lastChange = "2025-05-09 09:28:19 +0000";
layers = (
{
anchors = (
{
name = bottom;
position = "{300, 0}";
},
{
name = top;
position = "{300, 700}";
}
);
layerId = "4C71D2F8-8800-4A35-9F40-3E8E498F68F0";
paths = (
{
closed = 1;
nodes = (
"300 65 LINE",
"206 65 OFFCURVE",
"177 127 OFFCURVE",
"177 270 CURVE",
"85 270 LINE",
"85 76 OFFCURVE",
"157 -10 OFFCURVE",
"300 -10 CURVE"
);
},
{
closed = 1;
nodes = (
"460 -10 OFFCURVE",
"510 95 OFFCURVE",
"510 248 CURVE",
"420 248 LINE",
"420 110 OFFCURVE",
"372 65 OFFCURVE",
"300 65 CURVE",
"300 -10 LINE"
);
},
{
closed = 1;
nodes = (
"180 540 LINE",
"180 580 LINE",
"174 700 LINE",
"90 700 LINE",
"90 540 LINE"
);
},
{
closed = 1;
nodes = (
"510 248 LINE",
"510 700 LINE",
"426 700 LINE",
"426 629 LINE",
"420 524 LINE",
"420 248 LINE"
);
},
{
closed = 1;
nodes = (
"480 630 LINE",
"480 700 LINE",
"142 700 LINE",
"142 630 LINE"
);
}
);
width = 600;
},
{
associatedMasterId = "4C71D2F8-8800-4A35-9F40-3E8E498F68F0";
backgroundImage = {
imagePath = "OLD/J.jpg";
locked = "1";
transform = "{6.1257, 0, 0, 6.1257, 23, -24}";
};
layerId = "69FC3F67-EF8B-4F5A-BD1D-BB3849A5DA66";
name = "Oct 6 20, 18:40";
paths = (
{
closed = 1;
nodes = (
"520 185 LINE",
"520 700 LINE",
"430 700 LINE",
"430 185 LINE"
);
},
{
closed = 1;
nodes = (
"490 630 LINE",
"490 700 LINE",
"180 700 LINE",
"180 630 LINE"
);
},
{
closed = 1;
nodes = (
"141 173 LINE",
"228 97 OFFCURVE",
"277 66 OFFCURVE",
"330 66 CURVE SMOOTH",
"390 66 OFFCURVE",
"430 114 OFFCURVE",
"430 185 CURVE",
"520 185 LINE",
"520 60 OFFCURVE",
"443 -24 OFFCURVE",
"328 -24 CURVE SMOOTH",
"249 -24 OFFCURVE",
"152 46 OFFCURVE",
"82 105 CURVE"
);
}
);
width = 600;
},
{
associatedMasterId = "4C71D2F8-8800-4A35-9F40-3E8E498F68F0";
backgroundImage = {
imagePath = "OLD/J.jpg";
locked = "1";
transform = "{6.1257, 0, 0, 6.1257, 23, -24}";
};
layerId = "971CE34F-859D-4004-8E8C-CE84CC89BFFA";
name = "Oct 8 20, 09:39";
paths = (
{
closed = 1;
nodes = (
"520 235 LINE",
"520 700 LINE",
"430 700 LINE",
"430 235 LINE"
);
},
{
closed = 1;
nodes = (
"490 630 LINE",
"490 700 LINE",
"150 700 LINE",
"150 630 LINE"
);
},
{
closed = 1;
nodes = (
"305 52 LINE",
"217 52 OFFCURVE",
"190 137 OFFCURVE",
"180 205 CURVE",
"85 205 LINE",
"95 81 OFFCURVE",
"161 -18 OFFCURVE",
"305 -18 CURVE"
);
},
{
closed = 1;
nodes = (
"482 -18 OFFCURVE",
"520 93 OFFCURVE",
"520 235 CURVE",
"430 235 LINE",
"430 154 OFFCURVE",
"422 52 OFFCURVE",
"305 52 CURVE",
"305 -18 LINE"
);
}
);
width = 600;
},
{
anchors = (
{
name = bottom;
position = "{300, 0}";
},
{
name = top;
position = "{300, 700}";
}
);
associatedMasterId = "4C71D2F8-8800-4A35-9F40-3E8E498F68F0";
backgroundImage = {
imagePath = "OLD/J.jpg";
locked = "1";
transform = "{6.1257, 0, 0, 6.1257, 23, -24}";
};
layerId = "D17F54C9-1D86-406B-8D23-1854899891D9";
name = "Dec 29 20, 10:18";
paths = (
{
closed = 1;
nodes = (
"300 65 LINE",
"206 65 OFFCURVE",
"177 127 OFFCURVE",
"177 270 CURVE",
"85 270 LINE",
"85 76 OFFCURVE",
"157 -10 OFFCURVE",
"300 -10 CURVE"
);
},
{
closed = 1;
nodes = (
"460 -10 OFFCURVE",
"510 95 OFFCURVE",
"510 248 CURVE",
"420 248 LINE",
"420 110 OFFCURVE",
"372 65 OFFCURVE",
"300 65 CURVE",
"300 -10 LINE"
);
},
{
closed = 1;
nodes = (
"182 540 LINE",
"182 700 LINE",
"92 700 LINE",
"92 540 LINE"
);
},
{
closed = 1;
nodes = (
"510 248 LINE",
"510 700 LINE",
"426 700 LINE",
"426 629 LINE",
"420 524 LINE",
"420 248 LINE"
);
},
{
closed = 1;
nodes = (
"480 630 LINE",
"480 700 LINE",
"142 700 LINE",
"142 630 LINE"
);
}
);
width = 600;
},
{
anchors = (
{
name = bottom;
position = "{300, 0}";
},
{
name = top;
position = "{300, 700}";
}
);
guideLines = (
{
position = "{-30, 280}";
}
);
layerId = "2BACE4BE-9FDB-4959-B9F6-A4D102DDF28D";
paths = (
{
closed = 1;
nodes = (
"300 85 LINE",
"209 85 OFFCURVE",
"185 144 OFFCURVE",
"185 280 CURVE",
"75 280 LINE",
"77 73 OFFCURVE",
"149 -10 OFFCURVE",
"300 -10 CURVE"
);
},
{
closed = 1;
nodes = (
"470 -10 OFFCURVE",
"522 95 OFFCURVE",
"522 248 CURVE",
"412 248 LINE",
"412 130 OFFCURVE",
"380 85 OFFCURVE",
"300 85 CURVE",
"300 -10 LINE"
);
},
{
closed = 1;
nodes = (
"185 520 LINE",
"185 560 LINE",
"173 700 LINE",
"75 700 LINE",
"75 520 LINE"
);
},
{
closed = 1;
nodes = (
"522 248 LINE",
"522 700 LINE",
"424 700 LINE",
"424 609 LINE",
"412 504 LINE",
"412 248 LINE"
);
},
{
closed = 1;
nodes = (
"482 610 LINE",
"482 700 LINE",
"147 700 LINE",
"147 610 LINE"
);
}
);
width = 600;
},
{
associatedMasterId = "2BACE4BE-9FDB-4959-B9F6-A4D102DDF28D";
backgroundImage = {
imagePath = "OLD/J.jpg";
locked = "1";
transform = "{6.1257, 0, 0, 6.1257, 23, -24}";
};
layerId = "25B1BDC2-14D7-4FD2-9F70-6130C0D8E76B";
name = "Oct 6 20, 18:40";
paths = (
{
closed = 1;
nodes = (
"520 185 LINE",
"520 700 LINE",
"430 700 LINE",
"430 185 LINE"
);
},
{
closed = 1;
nodes = (
"490 630 LINE",
"490 700 LINE",
"180 700 LINE",
"180 630 LINE"
);
},
{
closed = 1;
nodes = (
"141 173 LINE",
"228 97 OFFCURVE",
"277 66 OFFCURVE",
"330 66 CURVE SMOOTH",
"390 66 OFFCURVE",
"430 114 OFFCURVE",
"430 185 CURVE",
"520 185 LINE",
"520 60 OFFCURVE",
"443 -24 OFFCURVE",
"328 -24 CURVE SMOOTH",
"249 -24 OFFCURVE",
"152 46 OFFCURVE",
"82 105 CURVE"
);
}
);
width = 600;
},
{
associatedMasterId = "2BACE4BE-9FDB-4959-B9F6-A4D102DDF28D";
backgroundImage = {
imagePath = "OLD/J.jpg";
locked = "1";
transform = "{6.1257, 0, 0, 6.1257, 23, -24}";
};
layerId = "A70D8112-1164-4B1E-9305-5148825D31F5";
name = "Oct 8 20, 09:39";
paths = (
{
closed = 1;
nodes = (
"520 235 LINE",
"520 700 LINE",
"430 700 LINE",
"430 235 LINE"
);
},
{
closed = 1;
nodes = (
"490 630 LINE",
"490 700 LINE",
"150 700 LINE",
"150 630 LINE"
);
},
{
closed = 1;
nodes = (
"305 52 LINE",
"217 52 OFFCURVE",
"190 137 OFFCURVE",
"180 205 CURVE",
"85 205 LINE",
"95 81 OFFCURVE",
"161 -18 OFFCURVE",
"305 -18 CURVE"
);
},
{
closed = 1;
nodes = (
"482 -18 OFFCURVE",
"520 93 OFFCURVE",
"520 235 CURVE",
"430 235 LINE",
"430 154 OFFCURVE",
"422 52 OFFCURVE",
"305 52 CURVE",
"305 -18 LINE"
);
}
);
width = 600;
},
{
anchors = (
{
name = bottom;
position = "{300, 0}";
},
{
name = top;
position = "{300, 700}";
}
);
associatedMasterId = "2BACE4BE-9FDB-4959-B9F6-A4D102DDF28D";
backgroundImage = {
imagePath = "OLD/J.jpg";
locked = "1";
transform = "{6.1257, 0, 0, 6.1257, 23, -24}";
};
layerId = "1568D564-70CD-46B5-A74D-FFCB78CC3A96";
name = "Dec 29 20, 10:18";
paths = (
{
closed = 1;
nodes = (
"300 65 LINE",
"206 65 OFFCURVE",
"177 127 OFFCURVE",
"177 270 CURVE",
"85 270 LINE",
"85 76 OFFCURVE",
"157 -10 OFFCURVE",
"300 -10 CURVE"
);
},
{
closed = 1;
nodes = (
"460 -10 OFFCURVE",
"510 95 OFFCURVE",
"510 248 CURVE",
"420 248 LINE",
"420 110 OFFCURVE",
"372 65 OFFCURVE",
"300 65 CURVE",
"300 -10 LINE"
);
},
{
closed = 1;
nodes = (
"182 540 LINE",
"182 700 LINE",
"92 700 LINE",
"92 540 LINE"
);
},
{
closed = 1;
nodes = (
"510 248 LINE",
"510 700 LINE",
"426 700 LINE",
"426 629 LINE",
"420 524 LINE",
"420 248 LINE"
);
},
{
closed = 1;
nodes = (
"480 630 LINE",
"480 700 LINE",
"142 700 LINE",
"142 630 LINE"
);
}
);
width = 600;
},
{
anchors = (
{
name = bottom;
position = "{300, 0}";
},
{
name = top;
position = "{300, 700}";
}
);
layerId = "9236AB30-8BE3-474D-8AE7-4C3A4AE1933A";
paths = (
{
closed = 1;
nodes = (
"300 95 LINE",
"211 95 OFFCURVE",
"189 153 OFFCURVE",
"189 285 CURVE",
"70 285 LINE",
"73 72 OFFCURVE",
"145 -10 OFFCURVE",
"300 -10 CURVE"
);
},
{
closed = 1;
nodes = (
"475 -10 OFFCURVE",
"528 95 OFFCURVE",
"528 248 CURVE",
"408 248 LINE",
"408 140 OFFCURVE",
"384 95 OFFCURVE",
"300 95 CURVE",
"300 -10 LINE"
);
},
{
closed = 1;
nodes = (
"188 510 LINE",
"188 550 LINE",
"173 700 LINE",
"68 700 LINE",
"68 510 LINE"
);
},
{
closed = 1;
nodes = (
"528 248 LINE",
"528 700 LINE",
"423 700 LINE",
"423 599 LINE",
"408 494 LINE",
"408 248 LINE"
);
},
{
closed = 1;
nodes = (
"483 600 LINE",
"483 700 LINE",
"150 700 LINE",
"150 600 LINE"
);
}
);
width = 600;
}
);
unicode = 004A;
},
{
glyphname = K;
lastChange = "2025-06-02 10:24:00 +0000";
layers = (
{
anchors = (
{
name = bottom;
position = "{300, 0}";
},
{
name = top;
position = "{300, 700}";
}
);
layerId = "4C71D2F8-8800-4A35-9F40-3E8E498F68F0";
paths = (
{
closed = 1;
nodes = (
"545 0 LINE",
"413 284 LINE SMOOTH",
"392 330 OFFCURVE",
"362 345 OFFCURVE",
"313 345 CURVE",
"313 375 LINE",
"359 375 OFFCURVE",
"392 390 OFFCURVE",
"413 436 CURVE SMOOTH",
"535 700 LINE",
"435 700 LINE",
"344 462 LINE SMOOTH",
"328 420 OFFCURVE",
"294 395 OFFCURVE",
"271 395 CURVE SMOOTH",
"170 395 LINE",
"170 325 LINE",
"271 325 LINE SMOOTH",
"294 325 OFFCURVE",
"328 299 OFFCURVE",
"344 258 CURVE SMOOTH",
"445 0 LINE"
);
},
{
closed = 1;
nodes = (
"190 0 LINE",
"190 220 LINE",
"184 325 LINE",
"184 385 LINE",
"100 385 LINE",
"100 0 LINE"
);
},
{
closed = 1;
nodes = (
"184 335 LINE",
"184 395 LINE",
"190 480 LINE",
"190 700 LINE",
"100 700 LINE",
"100 335 LINE"
);
}
);
width = 600;
},
{
associatedMasterId = "4C71D2F8-8800-4A35-9F40-3E8E498F68F0";
backgroundImage = {
imagePath = "OLD/K.jpg";
locked = "1";
transform = "{6.152, 0, 0, 6.152, 0, -47}";
};
layerId = "A2E65AE1-FD11-4151-B871-2B62B11F13DD";
name = "Sep 22 20, 14:02";
paths = (
{
closed = 1;
nodes = (
"55 0 LINE",
"145 0 LINE",
"145 700 LINE",
"55 700 LINE"
);
},
{
closed = 1;
nodes = (
"95 365 LINE",
"265 365 LINE",
"265 377 LINE",
"228 389 LINE",
"228 409 LINE",
"265 426 LINE",
"265 435 LINE",
"95 435 LINE"
);
},
{
closed = 1;
nodes = (
"259 502 LINE SMOOTH",
"238 462 OFFCURVE",
"209 435 OFFCURVE",
"186 435 CURVE",
"228 409 LINE",
"264 409 OFFCURVE",
"290 421 OFFCURVE",
"328 476 CURVE SMOOTH",
"485 700 LINE",
"360 700 LINE"
);
},
{
closed = 1;
nodes = (
"485 0 LINE",
"328 324 LINE SMOOTH",
"300 382 OFFCURVE",
"264 391 OFFCURVE",
"228 391 CURVE",
"186 365 LINE",
"209 365 OFFCURVE",
"245 339 OFFCURVE",
"259 298 CURVE SMOOTH",
"360 0 LINE"
);
}
);
width = 600;
},
{
anchors = (
{
name = bottom;
position = "{300, 0}";
},
{
name = top;
position = "{300, 700}";
}
);
layerId = "2BACE4BE-9FDB-4959-B9F6-A4D102DDF28D";
paths = (
{
closed = 1;
nodes = (
"557 0 LINE",
"425 282 LINE SMOOTH",
"404 328 OFFCURVE",
"374 343 OFFCURVE",
"325 343 CURVE",
"325 377 LINE",
"371 377 OFFCURVE",
"404 392 OFFCURVE",
"425 438 CURVE SMOOTH",
"547 700 LINE",
"427 700 LINE",
"336 472 LINE SMOOTH",
"319 430 OFFCURVE",
"286 405 OFFCURVE",
"263 405 CURVE SMOOTH",
"178 405 LINE",
"178 315 LINE",
"263 315 LINE SMOOTH",
"286 315 OFFCURVE",
"319 289 OFFCURVE",
"336 248 CURVE SMOOTH",
"437 0 LINE"
);
},
{
closed = 1;
nodes = (
"200 0 LINE",
"200 210 LINE",
"188 315 LINE",
"188 385 LINE",
"90 385 LINE",
"90 0 LINE"
);
},
{
closed = 1;
nodes = (
"188 335 LINE",
"188 405 LINE",
"200 490 LINE",
"200 700 LINE",
"90 700 LINE",
"90 335 LINE"
);
}
);
width = 600;
},
{
associatedMasterId = "2BACE4BE-9FDB-4959-B9F6-A4D102DDF28D";
backgroundImage = {
imagePath = "OLD/K.jpg";
locked = "1";
transform = "{6.152, 0, 0, 6.152, 0, -47}";
};
layerId = "9B3E0656-8945-4008-8A6D-6666C580E236";
name = "Sep 22 20, 14:02";
paths = (
{
closed = 1;
nodes = (
"55 0 LINE",
"145 0 LINE",
"145 700 LINE",
"55 700 LINE"
);
},
{
closed = 1;
nodes = (
"95 365 LINE",
"265 365 LINE",
"265 377 LINE",
"228 389 LINE",
"228 409 LINE",
"265 426 LINE",
"265 435 LINE",
"95 435 LINE"
);
},
{
closed = 1;
nodes = (
"259 502 LINE SMOOTH",
"238 462 OFFCURVE",
"209 435 OFFCURVE",
"186 435 CURVE",
"228 409 LINE",
"264 409 OFFCURVE",
"290 421 OFFCURVE",
"328 476 CURVE SMOOTH",
"485 700 LINE",
"360 700 LINE"
);
},
{
closed = 1;
nodes = (
"485 0 LINE",
"328 324 LINE SMOOTH",
"300 382 OFFCURVE",
"264 391 OFFCURVE",
"228 391 CURVE",
"186 365 LINE",
"209 365 OFFCURVE",
"245 339 OFFCURVE",
"259 298 CURVE SMOOTH",
"360 0 LINE"
);
}
);
width = 600;
},
{
anchors = (
{
name = bottom;
position = "{300, 0}";
},
{
name = top;
position = "{300, 700}";
}
);
layerId = "9236AB30-8BE3-474D-8AE7-4C3A4AE1933A";
paths = (
{
closed = 1;
nodes = (
"565 0 LINE",
"433 281 LINE SMOOTH",
"412 327 OFFCURVE",
"382 342 OFFCURVE",
"333 342 CURVE",
"333 378 LINE",
"379 378 OFFCURVE",
"412 393 OFFCURVE",
"433 439 CURVE SMOOTH",
"555 700 LINE",
"425 700 LINE",
"334 477 LINE SMOOTH",
"316 434 OFFCURVE",
"284 410 OFFCURVE",
"261 410 CURVE SMOOTH",
"179 410 LINE",
"179 310 LINE",
"261 310 LINE SMOOTH",
"284 310 OFFCURVE",
"316 285 OFFCURVE",
"334 243 CURVE SMOOTH",
"435 0 LINE"
);
},
{
closed = 1;
nodes = (
"202 0 LINE",
"202 205 LINE",
"187 310 LINE",
"187 385 LINE",
"82 385 LINE",
"82 0 LINE"
);
},
{
closed = 1;
nodes = (
"187 335 LINE",
"187 410 LINE",
"202 495 LINE",
"202 700 LINE",
"82 700 LINE",
"82 335 LINE"
);
}
);
width = 600;
}
);
unicode = 004B;
},
{
glyphname = L;
lastChange = "2025-05-09 09:28:19 +0000";
layers = (
{
anchors = (
{
name = bottom;
position = "{300, 0}";
},
{
name = center;
position = "{300, 350}";
},
{
name = top;
position = "{135, 700}";
},
{
name = topright;
position = "{420, 600}";
}
);
guideLines = (
{
angle = 90;
position = "{420, 160}";
}
);
layerId = "4C71D2F8-8800-4A35-9F40-3E8E498F68F0";
paths = (
{
closed = 1;
nodes = (
"174 0 LINE",
"174 75 LINE",
"180 180 LINE",
"180 700 LINE",
"90 700 LINE",
"90 0 LINE"
);
},
{
closed = 1;
nodes = (
"510 0 LINE",
"510 75 LINE",
"150 75 LINE",
"150 0 LINE"
);
},
{
closed = 1;
nodes = (
"510 0 LINE",
"510 160 LINE",
"420 160 LINE",
"420 120 LINE",
"425 0 LINE"
);
}
);
width = 600;
},
{
anchors = (
{
name = bottom;
position = "{300, 0}";
},
{
name = center;
position = "{300, 350}";
},
{
name = top;
position = "{137, 700}";
},
{
name = topright;
position = "{420, 600}";
}
);
guideLines = (
{
angle = 90;
position = "{420, 160}";
}
);
layerId = "2BACE4BE-9FDB-4959-B9F6-A4D102DDF28D";
paths = (
{
closed = 1;
nodes = (
"178 0 LINE",
"178 95 LINE",
"190 200 LINE",
"190 700 LINE",
"80 700 LINE",
"80 0 LINE"
);
},
{
closed = 1;
nodes = (
"520 0 LINE",
"520 95 LINE",
"160 95 LINE",
"160 0 LINE"
);
},
{
closed = 1;
nodes = (
"520 0 LINE",
"520 190 LINE",
"410 190 LINE",
"410 140 LINE",
"430 0 LINE"
);
}
);
width = 600;
},
{
anchors = (
{
name = bottom;
position = "{300, 0}";
},
{
name = center;
position = "{300, 350}";
},
{
name = top;
position = "{138, 700}";
},
{
name = topright;
position = "{420, 600}";
}
);
layerId = "9236AB30-8BE3-474D-8AE7-4C3A4AE1933A";
paths = (
{
closed = 1;
nodes = (
"180 0 LINE",
"180 105 LINE",
"195 210 LINE",
"195 700 LINE",
"75 700 LINE",
"75 0 LINE"
);
},
{
closed = 1;
nodes = (
"525 0 LINE",
"525 105 LINE",
"165 105 LINE",
"165 0 LINE"
);
},
{
closed = 1;
nodes = (
"525 0 LINE",
"525 205 LINE",
"405 205 LINE",
"405 150 LINE",
"433 0 LINE"
);
}
);
width = 600;
}
);
unicode = 004C;
},
{
glyphname = Lslash;
lastChange = "2025-05-09 09:28:19 +0000";
layers = (
{
guideLines = (
{
angle = 90;
position = "{100, 331}";
},
{
angle = 90;
position = "{190, 331}";
}
);
layerId = "4C71D2F8-8800-4A35-9F40-3E8E498F68F0";
paths = (
{
closed = 1;
nodes = (
"64 179 LINE",
"100 216 LINE",
"190 296 LINE",
"226 321 LINE",
"392 467 LINE",
"392 560 LINE",
"226 414 LINE",
"190 376 LINE",
"100 297 LINE",
"64 272 LINE",
"50 260 LINE",
"50 167 LINE"
);
},
{
closed = 1;
nodes = (
"510 0 LINE",
"510 75 LINE",
"160 75 LINE",
"160 0 LINE"
);
},
{
closed = 1;
nodes = (
"184 0 LINE",
"184 75 LINE",
"190 180 LINE",
"190 700 LINE",
"100 700 LINE",
"100 0 LINE"
);
},
{
closed = 1;
nodes = (
"510 0 LINE",
"510 160 LINE",
"420 160 LINE",
"420 120 LINE",
"425 0 LINE"
);
}
);
width = 600;
},
{
guideLines = (
{
angle = 90;
position = "{100, 331}";
},
{
angle = 90;
position = "{190, 331}";
}
);
layerId = "2BACE4BE-9FDB-4959-B9F6-A4D102DDF28D";
paths = (
{
closed = 1;
nodes = (
"64 149 LINE",
"100 192 LINE",
"210 295 LINE",
"246 311 LINE",
"412 457 LINE",
"412 570 LINE",
"246 424 LINE",
"210 383 LINE",
"100 281 LINE",
"64 262 LINE",
"50 250 LINE",
"50 137 LINE"
);
},
{
closed = 1;
nodes = (
"520 0 LINE",
"520 95 LINE",
"160 95 LINE",
"160 0 LINE"
);
},
{
closed = 1;
nodes = (
"198 0 LINE",
"198 95 LINE",
"210 200 LINE",
"210 700 LINE",
"100 700 LINE",
"100 0 LINE"
);
},
{
closed = 1;
nodes = (
"520 0 LINE",
"520 190 LINE",
"410 190 LINE",
"410 140 LINE",
"430 0 LINE"
);
}
);
width = 600;
},
{
layerId = "9236AB30-8BE3-474D-8AE7-4C3A4AE1933A";
paths = (
{
closed = 1;
nodes = (
"64 134 LINE",
"100 180 LINE",
"220 295 LINE",
"256 306 LINE",
"422 452 LINE",
"422 575 LINE",
"256 429 LINE",
"220 387 LINE",
"100 273 LINE",
"64 257 LINE",
"50 245 LINE",
"50 122 LINE"
);
},
{
closed = 1;
nodes = (
"525 0 LINE",
"525 105 LINE",
"160 105 LINE",
"160 0 LINE"
);
},
{
closed = 1;
nodes = (
"205 0 LINE",
"205 105 LINE",
"220 210 LINE",
"220 700 LINE",
"100 700 LINE",
"100 0 LINE"
);
},
{
closed = 1;
nodes = (
"525 0 LINE",
"525 205 LINE",
"405 205 LINE",
"405 150 LINE",
"433 0 LINE"
);
}
);
width = 600;
}
);
unicode = 0141;
},
{
glyphname = M;
lastChange = "2025-05-09 09:28:19 +0000";
layers = (
{
anchors = (
{
name = bottom;
position = "{300, 0}";
},
{
name = top;
position = "{300, 700}";
}
);
layerId = "4C71D2F8-8800-4A35-9F40-3E8E498F68F0";
paths = (
{
closed = 1;
nodes = (
"160 0 LINE",
"160 268 LINE",
"136 630 LINE",
"166 630 LINE",
"239 268 LINE",
"361 268 LINE",
"434 630 LINE",
"464 630 LINE",
"440 268 LINE",
"440 0 LINE",
"530 0 LINE",
"530 700 LINE",
"386 700 LINE",
"315 338 LINE",
"285 338 LINE",
"214 700 LINE",
"70 700 LINE",
"70 0 LINE"
);
}
);
width = 600;
},
{
associatedMasterId = "4C71D2F8-8800-4A35-9F40-3E8E498F68F0";
backgroundImage = {
imagePath = "OLD/M.jpg";
locked = "1";
transform = "{6.1435, 0, 0, 6.1435, 33, -30}";
};
layerId = "F3D391C1-4A78-4267-9B04-705574A9939F";
name = "Sep 22 20, 14:20";
paths = (
{
closed = 1;
nodes = (
"145 0 LINE",
"145 413 LINE",
"94 640 LINE",
"115 640 LINE",
"237 258 LINE",
"295 258 LINE",
"295 348 LINE",
"273 348 LINE",
"159 700 LINE",
"55 700 LINE",
"56 300 LINE",
"55 0 LINE"
);
}
);
width = 550;
},
{
associatedMasterId = "4C71D2F8-8800-4A35-9F40-3E8E498F68F0";
backgroundImage = {
imagePath = "OLD/M.jpg";
locked = "1";
transform = "{6.1435, 0, 0, 6.1435, 33, -30}";
};
layerId = "36795D73-C0B5-45F3-8B68-82B87D1EC00B";
name = "Sep 22 20, 14:20";
paths = (
{
closed = 1;
nodes = (
"145 0 LINE",
"145 413 LINE",
"94 640 LINE",
"115 640 LINE",
"237 258 LINE",
"295 258 LINE",
"295 348 LINE",
"273 348 LINE",
"159 700 LINE",
"55 700 LINE",
"56 300 LINE",
"55 0 LINE"
);
},
{
closed = 1;
nodes = (
"494 300 LINE",
"495 700 LINE",
"391 700 LINE",
"277 348 LINE",
"255 348 LINE",
"255 258 LINE",
"313 258 LINE",
"435 640 LINE",
"456 640 LINE",
"405 413 LINE",
"405 0 LINE",
"495 0 LINE"
);
}
);
width = 550;
},
{
associatedMasterId = "4C71D2F8-8800-4A35-9F40-3E8E498F68F0";
backgroundImage = {
imagePath = "OLD/M.jpg";
locked = "1";
transform = "{6.1435, 0, 0, 6.1435, 33, -30}";
};
layerId = "CAB888AF-A559-462B-A08C-09D3F8B88B0A";
name = "Sep 22 20, 14:22";
paths = (
{
closed = 1;
nodes = (
"145 0 LINE",
"145 335 LINE",
"114 640 LINE",
"135 640 LINE",
"227 258 LINE",
"295 258 LINE",
"295 348 LINE",
"263 348 LINE",
"189 700 LINE",
"55 700 LINE",
"56 300 LINE",
"55 0 LINE"
);
},
{
closed = 1;
nodes = (
"494 300 LINE",
"495 700 LINE",
"361 700 LINE",
"287 348 LINE",
"255 348 LINE",
"255 258 LINE",
"323 258 LINE",
"415 640 LINE",
"436 640 LINE",
"405 335 LINE",
"405 0 LINE",
"495 0 LINE"
);
}
);
width = 550;
},
{
associatedMasterId = "4C71D2F8-8800-4A35-9F40-3E8E498F68F0";
backgroundImage = {
imagePath = "OLD/M.jpg";
locked = "1";
transform = "{6.1435, 0, 0, 6.1435, 33, -30}";
};
layerId = "D37CA428-768D-4FD7-A260-29DD1E464BDB";
name = "Oct 8 20, 09:05";
paths = (
{
closed = 1;
nodes = (
"170 0 LINE",
"170 268 LINE",
"140 630 LINE",
"175 630 LINE",
"246 268 LINE",
"320 268 LINE",
"320 338 LINE",
"293 338 LINE",
"224 700 LINE",
"80 700 LINE",
"80 0 LINE"
);
},
{
closed = 1;
nodes = (
"520 700 LINE",
"376 700 LINE",
"307 338 LINE",
"280 338 LINE",
"280 268 LINE",
"354 268 LINE",
"425 630 LINE",
"460 630 LINE",
"430 268 LINE",
"430 0 LINE",
"520 0 LINE"
);
}
);
width = 600;
},
{
associatedMasterId = "4C71D2F8-8800-4A35-9F40-3E8E498F68F0";
backgroundImage = {
imagePath = "OLD/M.jpg";
locked = "1";
transform = "{6.1435, 0, 0, 6.1435, 33, -30}";
};
layerId = "6AEC0B5B-411E-4602-B011-5A3DE4693549";
name = "Oct 8 20, 15:19";
paths = (
{
closed = 1;
nodes = (
"160 0 LINE",
"160 268 LINE",
"130 630 LINE",
"160 630 LINE",
"243 268 LINE",
"300 268 LINE",
"300 338 LINE",
"290 338 LINE",
"209 700 LINE",
"70 700 LINE",
"70 0 LINE"
);
},
{
closed = 1;
nodes = (
"530 700 LINE",
"391 700 LINE",
"310 338 LINE",
"300 338 LINE",
"300 268 LINE",
"357 268 LINE",
"440 630 LINE",
"470 630 LINE",
"440 268 LINE",
"440 0 LINE",
"530 0 LINE"
);
}
);
width = 600;
},
{
anchors = (
{
name = bottom;
position = "{300, 0}";
},
{
name = top;
position = "{300, 700}";
}
);
guideLines = (
{
position = "{50, 199}";
}
);
layerId = "2BACE4BE-9FDB-4959-B9F6-A4D102DDF28D";
paths = (
{
closed = 1;
nodes = (
"168 0 LINE",
"168 199 LINE",
"140 630 LINE",
"174 630 LINE",
"224 248 LINE",
"376 248 LINE",
"426 630 LINE",
"460 630 LINE",
"432 199 LINE",
"432 0 LINE",
"542 0 LINE",
"542 700 LINE",
"368 700 LINE",
"318 338 LINE",
"284 338 LINE",
"234 700 LINE",
"58 700 LINE",
"58 0 LINE"
);
}
);
width = 600;
},
{
associatedMasterId = "2BACE4BE-9FDB-4959-B9F6-A4D102DDF28D";
backgroundImage = {
imagePath = "OLD/M.jpg";
locked = "1";
transform = "{6.1435, 0, 0, 6.1435, 33, -30}";
};
layerId = "0330F48A-669E-46A8-A5FA-692CC74407C3";
name = "Sep 22 20, 14:20";
paths = (
{
closed = 1;
nodes = (
"145 0 LINE",
"145 413 LINE",
"94 640 LINE",
"115 640 LINE",
"237 258 LINE",
"295 258 LINE",
"295 348 LINE",
"273 348 LINE",
"159 700 LINE",
"55 700 LINE",
"56 300 LINE",
"55 0 LINE"
);
}
);
width = 550;
},
{
associatedMasterId = "2BACE4BE-9FDB-4959-B9F6-A4D102DDF28D";
backgroundImage = {
imagePath = "OLD/M.jpg";
locked = "1";
transform = "{6.1435, 0, 0, 6.1435, 33, -30}";
};
layerId = "23CA9F4C-BF39-453C-B9D6-AC543FB9840D";
name = "Sep 22 20, 14:20";
paths = (
{
closed = 1;
nodes = (
"145 0 LINE",
"145 413 LINE",
"94 640 LINE",
"115 640 LINE",
"237 258 LINE",
"295 258 LINE",
"295 348 LINE",
"273 348 LINE",
"159 700 LINE",
"55 700 LINE",
"56 300 LINE",
"55 0 LINE"
);
},
{
closed = 1;
nodes = (
"494 300 LINE",
"495 700 LINE",
"391 700 LINE",
"277 348 LINE",
"255 348 LINE",
"255 258 LINE",
"313 258 LINE",
"435 640 LINE",
"456 640 LINE",
"405 413 LINE",
"405 0 LINE",
"495 0 LINE"
);
}
);
width = 550;
},
{
associatedMasterId = "2BACE4BE-9FDB-4959-B9F6-A4D102DDF28D";
backgroundImage = {
imagePath = "OLD/M.jpg";
locked = "1";
transform = "{6.1435, 0, 0, 6.1435, 33, -30}";
};
layerId = "EFC4DA65-DB82-4C59-9D57-ED783905B1BE";
name = "Sep 22 20, 14:22";
paths = (
{
closed = 1;
nodes = (
"145 0 LINE",
"145 335 LINE",
"114 640 LINE",
"135 640 LINE",
"227 258 LINE",
"295 258 LINE",
"295 348 LINE",
"263 348 LINE",
"189 700 LINE",
"55 700 LINE",
"56 300 LINE",
"55 0 LINE"
);
},
{
closed = 1;
nodes = (
"494 300 LINE",
"495 700 LINE",
"361 700 LINE",
"287 348 LINE",
"255 348 LINE",
"255 258 LINE",
"323 258 LINE",
"415 640 LINE",
"436 640 LINE",
"405 335 LINE",
"405 0 LINE",
"495 0 LINE"
);
}
);
width = 550;
},
{
associatedMasterId = "2BACE4BE-9FDB-4959-B9F6-A4D102DDF28D";
backgroundImage = {
imagePath = "OLD/M.jpg";
locked = "1";
transform = "{6.1435, 0, 0, 6.1435, 33, -30}";
};
layerId = "78A7B8A2-D728-4D61-83C8-951A1E0FD6A6";
name = "Oct 8 20, 09:05";
paths = (
{
closed = 1;
nodes = (
"170 0 LINE",
"170 268 LINE",
"140 630 LINE",
"175 630 LINE",
"246 268 LINE",
"320 268 LINE",
"320 338 LINE",
"293 338 LINE",
"224 700 LINE",
"80 700 LINE",
"80 0 LINE"
);
},
{
closed = 1;
nodes = (
"520 700 LINE",
"376 700 LINE",
"307 338 LINE",
"280 338 LINE",
"280 268 LINE",
"354 268 LINE",
"425 630 LINE",
"460 630 LINE",
"430 268 LINE",
"430 0 LINE",
"520 0 LINE"
);
}
);
width = 600;
},
{
associatedMasterId = "2BACE4BE-9FDB-4959-B9F6-A4D102DDF28D";
backgroundImage = {
imagePath = "OLD/M.jpg";
locked = "1";
transform = "{6.1435, 0, 0, 6.1435, 33, -30}";
};
layerId = "80D1C037-C8F2-4FBF-98A0-5CBB6DAF0134";
name = "Oct 8 20, 15:19";
paths = (
{
closed = 1;
nodes = (
"160 0 LINE",
"160 268 LINE",
"130 630 LINE",
"160 630 LINE",
"243 268 LINE",
"300 268 LINE",
"300 338 LINE",
"290 338 LINE",
"209 700 LINE",
"70 700 LINE",
"70 0 LINE"
);
},
{
closed = 1;
nodes = (
"530 700 LINE",
"391 700 LINE",
"310 338 LINE",
"300 338 LINE",
"300 268 LINE",
"357 268 LINE",
"440 630 LINE",
"470 630 LINE",
"440 268 LINE",
"440 0 LINE",
"530 0 LINE"
);
}
);
width = 600;
},
{
anchors = (
{
name = bottom;
position = "{300, 0}";
},
{
name = top;
position = "{300, 700}";
}
);
layerId = "9236AB30-8BE3-474D-8AE7-4C3A4AE1933A";
paths = (
{
closed = 1;
nodes = (
"172 0 LINE",
"172 165 LINE",
"142 630 LINE",
"178 630 LINE",
"217 238 LINE",
"384 238 LINE",
"422 630 LINE",
"458 630 LINE",
"428 165 LINE",
"428 0 LINE",
"548 0 LINE",
"548 700 LINE",
"359 700 LINE",
"320 338 LINE",
"284 338 LINE",
"244 700 LINE",
"52 700 LINE",
"52 0 LINE"
);
}
);
width = 600;
}
);
unicode = 004D;
},
{
glyphname = N;
lastChange = "2025-05-09 09:28:19 +0000";
layers = (
{
anchors = (
{
name = bottom;
position = "{300, 0}";
},
{
name = top;
position = "{300, 700}";
}
);
guideLines = (
{
angle = 90;
position = "{362, -802}";
},
{
position = "{430, 432}";
}
);
layerId = "4C71D2F8-8800-4A35-9F40-3E8E498F68F0";
paths = (
{
closed = 1;
nodes = (
"175 0 LINE",
"175 268 LINE",
"151 630 LINE",
"181 630 LINE",
"360 0 LINE",
"515 0 LINE",
"515 700 LINE",
"425 700 LINE",
"425 432 LINE",
"449 70 LINE",
"419 70 LINE",
"240 700 LINE",
"85 700 LINE",
"85 0 LINE"
);
}
);
width = 600;
},
{
associatedMasterId = "4C71D2F8-8800-4A35-9F40-3E8E498F68F0";
backgroundImage = {
imagePath = "OLD/N.jpg";
locked = "1";
transform = "{6.1544, 0, 0, 6.1544, 1, -43}";
};
layerId = "A4B5C1C6-CF57-4414-BB54-01098084986A";
name = "Sep 22 20, 15:25";
paths = (
{
closed = 1;
nodes = (
"405 200 LINE",
"495 200 LINE",
"495 700 LINE",
"405 700 LINE"
);
},
{
closed = 1;
nodes = (
"55 0 LINE",
"145 0 LINE",
"145 700 LINE",
"55 700 LINE"
);
},
{
closed = 1;
nodes = (
"173 630 LINE",
"342 -2 LINE",
"495 -2 LINE",
"495 181 LINE",
"495 257 LINE",
"405 257 LINE",
"405 141 LINE",
"442 5 LINE",
"475 88 LINE",
"390 88 LINE",
"226 700 LINE",
"105 700 LINE",
"105 630 LINE"
);
}
);
width = 550;
},
{
associatedMasterId = "4C71D2F8-8800-4A35-9F40-3E8E498F68F0";
backgroundImage = {
imagePath = "OLD/N.jpg";
locked = "1";
transform = "{6.1544, 0, 0, 6.1544, 1, -43}";
};
guideLines = (
{
angle = 90;
position = "{362, -802}";
},
{
position = "{442, 68}";
}
);
layerId = "A8468005-9FC3-4897-9484-2BAE24B59A63";
name = "Oct 19 20, 18:55";
paths = (
{
closed = 1;
nodes = (
"80 0 LINE",
"170 0 LINE",
"170 700 LINE",
"80 700 LINE"
);
},
{
closed = 1;
nodes = (
"170 630 LINE",
"200 630 LINE",
"353 -2 LINE",
"520 -2 LINE",
"520 700 LINE",
"430 700 LINE",
"430 118 LINE",
"442 68 LINE",
"412 68 LINE",
"259 700 LINE",
"122 700 LINE"
);
}
);
width = 600;
},
{
anchors = (
{
name = bottom;
position = "{300, 0}";
},
{
name = top;
position = "{300, 700}";
}
);
guideLines = (
{
position = "{610, 432}";
}
);
layerId = "2BACE4BE-9FDB-4959-B9F6-A4D102DDF28D";
paths = (
{
closed = 1;
nodes = (
"180 0 LINE",
"180 238 LINE",
"152 610 LINE",
"186 610 LINE",
"338 0 LINE",
"530 0 LINE",
"530 700 LINE",
"420 700 LINE",
"420 462 LINE",
"448 90 LINE",
"414 90 LINE",
"262 700 LINE",
"70 700 LINE",
"70 0 LINE"
);
}
);
width = 600;
},
{
associatedMasterId = "2BACE4BE-9FDB-4959-B9F6-A4D102DDF28D";
backgroundImage = {
imagePath = "OLD/N.jpg";
locked = "1";
transform = "{6.1544, 0, 0, 6.1544, 1, -43}";
};
layerId = "34F73A42-46E4-46DB-A91F-06687FBC33D6";
name = "Sep 22 20, 15:25";
paths = (
{
closed = 1;
nodes = (
"405 200 LINE",
"495 200 LINE",
"495 700 LINE",
"405 700 LINE"
);
},
{
closed = 1;
nodes = (
"55 0 LINE",
"145 0 LINE",
"145 700 LINE",
"55 700 LINE"
);
},
{
closed = 1;
nodes = (
"173 630 LINE",
"342 -2 LINE",
"495 -2 LINE",
"495 181 LINE",
"495 257 LINE",
"405 257 LINE",
"405 141 LINE",
"442 5 LINE",
"475 88 LINE",
"390 88 LINE",
"226 700 LINE",
"105 700 LINE",
"105 630 LINE"
);
}
);
width = 550;
},
{
associatedMasterId = "2BACE4BE-9FDB-4959-B9F6-A4D102DDF28D";
backgroundImage = {
imagePath = "OLD/N.jpg";
locked = "1";
transform = "{6.1544, 0, 0, 6.1544, 1, -43}";
};
guideLines = (
{
angle = 90;
position = "{362, -802}";
},
{
position = "{442, 68}";
}
);
layerId = "126C397C-67AA-4D13-8063-4DEAB5F4BA27";
name = "Oct 19 20, 18:55";
paths = (
{
closed = 1;
nodes = (
"80 0 LINE",
"170 0 LINE",
"170 700 LINE",
"80 700 LINE"
);
},
{
closed = 1;
nodes = (
"170 630 LINE",
"200 630 LINE",
"353 -2 LINE",
"520 -2 LINE",
"520 700 LINE",
"430 700 LINE",
"430 118 LINE",
"442 68 LINE",
"412 68 LINE",
"259 700 LINE",
"122 700 LINE"
);
}
);
width = 600;
},
{
anchors = (
{
name = bottom;
position = "{300, 0}";
},
{
name = top;
position = "{300, 700}";
}
);
layerId = "9236AB30-8BE3-474D-8AE7-4C3A4AE1933A";
paths = (
{
closed = 1;
nodes = (
"183 0 LINE",
"183 223 LINE",
"153 600 LINE",
"189 600 LINE",
"327 0 LINE",
"538 0 LINE",
"538 700 LINE",
"418 700 LINE",
"418 477 LINE",
"448 100 LINE",
"412 100 LINE",
"273 700 LINE",
"63 700 LINE",
"63 0 LINE"
);
}
);
width = 600;
}
);
unicode = 004E;
},
{
glyphname = Eng;
lastChange = "2025-05-09 09:28:19 +0000";
layers = (
{
layerId = "4C71D2F8-8800-4A35-9F40-3E8E498F68F0";
paths = (
{
closed = 1;
nodes = (
"175 0 LINE",
"175 268 LINE",
"151 630 LINE",
"181 630 LINE",
"360 0 LINE",
"515 0 LINE",
"515 700 LINE",
"425 700 LINE",
"425 432 LINE",
"449 70 LINE",
"419 70 LINE",
"240 700 LINE",
"85 700 LINE",
"85 0 LINE"
);
},
{
closed = 1;
nodes = (
"382 -180 LINE SMOOTH",
"468 -180 OFFCURVE",
"515 -141 OFFCURVE",
"515 -14 CURVE SMOOTH",
"515 0 LINE",
"449 0 LINE",
"449 -80 OFFCURVE",
"432 -105 OFFCURVE",
"382 -105 CURVE SMOOTH",
"351 -105 LINE",
"351 -180 LINE"
);
}
);
width = 600;
},
{
associatedMasterId = "4C71D2F8-8800-4A35-9F40-3E8E498F68F0";
layerId = "DFABA9A3-1980-40AB-9B15-65ADDC62715C";
name = "Sep 13 21, 09:54";
paths = (
{
closed = 1;
nodes = (
"175 0 LINE",
"175 268 LINE",
"151 630 LINE",
"181 630 LINE",
"360 0 LINE",
"515 0 LINE",
"515 700 LINE",
"425 700 LINE",
"425 432 LINE",
"449 70 LINE",
"419 70 LINE",
"240 700 LINE",
"85 700 LINE",
"85 0 LINE"
);
},
{
closed = 1;
nodes = (
"515 -14 LINE SMOOTH",
"515 -161 OFFCURVE",
"437 -200 OFFCURVE",
"351 -200 CURVE SMOOTH",
"320 -200 LINE",
"320 -125 LINE",
"351 -125 LINE SMOOTH",
"405 -125 OFFCURVE",
"424 -101 OFFCURVE",
"445 0 CURVE",
"515 0 LINE"
);
}
);
width = 600;
},
{
associatedMasterId = "4C71D2F8-8800-4A35-9F40-3E8E498F68F0";
layerId = "C2B8E5BA-DF9B-4588-BEFE-1A1E8FA71658";
name = "Sep 13 21, 09:55";
paths = (
{
closed = 1;
nodes = (
"175 0 LINE",
"175 268 LINE",
"151 630 LINE",
"181 630 LINE",
"360 0 LINE",
"515 0 LINE",
"515 700 LINE",
"425 700 LINE",
"425 432 LINE",
"449 70 LINE",
"419 70 LINE",
"240 700 LINE",
"85 700 LINE",
"85 0 LINE"
);
},
{
closed = 1;
nodes = (
"515 -14 LINE SMOOTH",
"515 -161 OFFCURVE",
"447 -200 OFFCURVE",
"361 -200 CURVE SMOOTH",
"330 -200 LINE",
"330 -125 LINE",
"361 -125 LINE SMOOTH",
"407 -125 OFFCURVE",
"424 -100 OFFCURVE",
"445 0 CURVE",
"515 0 LINE"
);
}
);
width = 600;
},
{
layerId = "2BACE4BE-9FDB-4959-B9F6-A4D102DDF28D";
paths = (
{
closed = 1;
nodes = (
"180 0 LINE",
"180 238 LINE",
"152 610 LINE",
"186 610 LINE",
"338 0 LINE",
"530 0 LINE",
"530 700 LINE",
"420 700 LINE",
"420 462 LINE",
"448 90 LINE",
"414 90 LINE",
"262 700 LINE",
"70 700 LINE",
"70 0 LINE"
);
},
{
closed = 1;
nodes = (
"387 -180 LINE SMOOTH",
"482 -180 OFFCURVE",
"530 -127 OFFCURVE",
"530 -24 CURVE SMOOTH",
"530 0 LINE",
"454 0 LINE",
"454 -80 OFFCURVE",
"438 -105 OFFCURVE",
"387 -105 CURVE SMOOTH",
"356 -105 LINE",
"356 -180 LINE"
);
}
);
width = 600;
},
{
associatedMasterId = "2BACE4BE-9FDB-4959-B9F6-A4D102DDF28D";
layerId = "E3F6B4C5-3B4F-4D9A-B81D-540684654A86";
name = "Sep 13 21, 09:54";
paths = (
{
closed = 1;
nodes = (
"175 0 LINE",
"175 268 LINE",
"151 630 LINE",
"181 630 LINE",
"360 0 LINE",
"515 0 LINE",
"515 700 LINE",
"425 700 LINE",
"425 432 LINE",
"449 70 LINE",
"419 70 LINE",
"240 700 LINE",
"85 700 LINE",
"85 0 LINE"
);
},
{
closed = 1;
nodes = (
"515 -14 LINE SMOOTH",
"515 -161 OFFCURVE",
"437 -200 OFFCURVE",
"351 -200 CURVE SMOOTH",
"320 -200 LINE",
"320 -125 LINE",
"351 -125 LINE SMOOTH",
"405 -125 OFFCURVE",
"424 -101 OFFCURVE",
"445 0 CURVE",
"515 0 LINE"
);
}
);
width = 600;
},
{
associatedMasterId = "2BACE4BE-9FDB-4959-B9F6-A4D102DDF28D";
layerId = "433D9387-772F-43D5-B139-A9D3759E8115";
name = "Sep 13 21, 09:55";
paths = (
{
closed = 1;
nodes = (
"175 0 LINE",
"175 268 LINE",
"151 630 LINE",
"181 630 LINE",
"360 0 LINE",
"515 0 LINE",
"515 700 LINE",
"425 700 LINE",
"425 432 LINE",
"449 70 LINE",
"419 70 LINE",
"240 700 LINE",
"85 700 LINE",
"85 0 LINE"
);
},
{
closed = 1;
nodes = (
"515 -14 LINE SMOOTH",
"515 -161 OFFCURVE",
"447 -200 OFFCURVE",
"361 -200 CURVE SMOOTH",
"330 -200 LINE",
"330 -125 LINE",
"361 -125 LINE SMOOTH",
"407 -125 OFFCURVE",
"424 -100 OFFCURVE",
"445 0 CURVE",
"515 0 LINE"
);
}
);
width = 600;
},
{
layerId = "9236AB30-8BE3-474D-8AE7-4C3A4AE1933A";
paths = (
{
closed = 1;
nodes = (
"183 0 LINE",
"183 223 LINE",
"153 600 LINE",
"189 600 LINE",
"327 0 LINE",
"538 0 LINE",
"538 700 LINE",
"418 700 LINE",
"418 477 LINE",
"448 100 LINE",
"412 100 LINE",
"273 700 LINE",
"63 700 LINE",
"63 0 LINE"
);
},
{
closed = 1;
nodes = (
"390 -180 LINE SMOOTH",
"489 -180 OFFCURVE",
"538 -120 OFFCURVE",
"538 -29 CURVE SMOOTH",
"538 0 LINE",
"457 0 LINE",
"456 -81 OFFCURVE",
"441 -105 OFFCURVE",
"390 -105 CURVE SMOOTH",
"359 -105 LINE",
"359 -180 LINE"
);
}
);
width = 600;
}
);
unicode = 014A;
},
{
glyphname = O;
lastChange = "2025-06-02 10:20:31 +0000";
layers = (
{
associatedMasterId = "4C71D2F8-8800-4A35-9F40-3E8E498F68F0";
backgroundImage = {
imagePath = O.jpg;
locked = "1";
transform = "{6.1716, 0, 0, 6.1716, 0, -37}";
};
layerId = "A12573A6-27A2-4601-8D3E-0E94ADD2322A";
name = "Sep 21 20, 11:03";
paths = (
{
closed = 1;
nodes = (
"150 350 LINE",
"150 537 OFFCURVE",
"181 661 OFFCURVE",
"280 661 CURVE",
"280 724 LINE",
"141 724 OFFCURVE",
"50 634 OFFCURVE",
"50 350 CURVE"
);
},
{
closed = 1;
nodes = (
"510 634 OFFCURVE",
"419 724 OFFCURVE",
"280 724 CURVE",
"280 661 LINE",
"379 661 OFFCURVE",
"410 537 OFFCURVE",
"410 350 CURVE",
"510 350 LINE"
);
},
{
closed = 1;
nodes = (
"50 66 OFFCURVE",
"141 -24 OFFCURVE",
"280 -24 CURVE",
"280 39 LINE",
"181 39 OFFCURVE",
"150 163 OFFCURVE",
"150 350 CURVE",
"50 350 LINE"
);
},
{
closed = 1;
nodes = (
"410 350 LINE",
"410 163 OFFCURVE",
"379 39 OFFCURVE",
"280 39 CURVE",
"280 -24 LINE",
"419 -24 OFFCURVE",
"510 66 OFFCURVE",
"510 350 CURVE"
);
}
);
width = 560;
},
{
associatedMasterId = "4C71D2F8-8800-4A35-9F40-3E8E498F68F0";
backgroundImage = {
imagePath = O.jpg;
locked = "1";
transform = "{6.1716, 0, 0, 6.1716, 0, -37}";
};
layerId = "F8822A96-64CC-4750-B1FA-C9D29F67BCE8";
name = "Sep 21 20, 11:05";
paths = (
{
closed = 1;
nodes = (
"150 350 LINE",
"150 531 OFFCURVE",
"181 651 OFFCURVE",
"280 651 CURVE",
"280 714 LINE",
"162 714 OFFCURVE",
"50 627 OFFCURVE",
"50 350 CURVE"
);
},
{
closed = 1;
nodes = (
"510 627 OFFCURVE",
"398 714 OFFCURVE",
"280 714 CURVE",
"280 651 LINE",
"379 651 OFFCURVE",
"410 531 OFFCURVE",
"410 350 CURVE",
"510 350 LINE"
);
},
{
closed = 1;
nodes = (
"50 73 OFFCURVE",
"142 -14 OFFCURVE",
"280 -14 CURVE",
"280 49 LINE",
"181 49 OFFCURVE",
"150 169 OFFCURVE",
"150 350 CURVE",
"50 350 LINE"
);
},
{
closed = 1;
nodes = (
"410 350 LINE",
"410 169 OFFCURVE",
"379 49 OFFCURVE",
"280 49 CURVE",
"280 -14 LINE",
"418 -14 OFFCURVE",
"510 73 OFFCURVE",
"510 350 CURVE"
);
}
);
width = 560;
},
{
associatedMasterId = "4C71D2F8-8800-4A35-9F40-3E8E498F68F0";
backgroundImage = {
imagePath = O.jpg;
locked = "1";
transform = "{6.1716, 0, 0, 6.1716, 0, -37}";
};
layerId = "2EA8DC0C-1BC3-4563-8D4F-118721629486";
name = "Sep 21 20, 11:24";
paths = (
{
closed = 1;
nodes = (
"150 350 LINE",
"150 531 OFFCURVE",
"181 651 OFFCURVE",
"280 651 CURVE SMOOTH",
"379 651 OFFCURVE",
"410 531 OFFCURVE",
"410 350 CURVE",
"510 350 LINE",
"510 627 OFFCURVE",
"398 714 OFFCURVE",
"280 714 CURVE SMOOTH",
"162 714 OFFCURVE",
"50 627 OFFCURVE",
"50 350 CURVE"
);
},
{
closed = 1;
nodes = (
"50 73 OFFCURVE",
"162 -14 OFFCURVE",
"280 -14 CURVE SMOOTH",
"398 -14 OFFCURVE",
"510 73 OFFCURVE",
"510 350 CURVE",
"410 350 LINE",
"410 169 OFFCURVE",
"379 49 OFFCURVE",
"280 49 CURVE SMOOTH",
"181 49 OFFCURVE",
"150 169 OFFCURVE",
"150 350 CURVE",
"50 350 LINE"
);
}
);
width = 560;
},
{
associatedMasterId = "4C71D2F8-8800-4A35-9F40-3E8E498F68F0";
backgroundImage = {
imagePath = O.jpg;
locked = "1";
transform = "{6.1716, 0, 0, 6.1716, -5, -37}";
};
layerId = "BA48AF76-80C7-447E-9CFB-887B1A59BFD3";
name = "Sep 21 20, 11:34";
paths = (
{
closed = 1;
nodes = (
"145 350 LINE",
"145 527 OFFCURVE",
"176 647 OFFCURVE",
"275 647 CURVE SMOOTH",
"374 647 OFFCURVE",
"405 527 OFFCURVE",
"405 350 CURVE",
"505 350 LINE",
"505 623 OFFCURVE",
"393 710 OFFCURVE",
"275 710 CURVE SMOOTH",
"157 710 OFFCURVE",
"45 623 OFFCURVE",
"45 350 CURVE"
);
},
{
closed = 1;
nodes = (
"45 77 OFFCURVE",
"157 -10 OFFCURVE",
"275 -10 CURVE SMOOTH",
"393 -10 OFFCURVE",
"505 77 OFFCURVE",
"505 350 CURVE",
"405 350 LINE",
"405 173 OFFCURVE",
"374 53 OFFCURVE",
"275 53 CURVE SMOOTH",
"176 53 OFFCURVE",
"145 173 OFFCURVE",
"145 350 CURVE",
"45 350 LINE"
);
}
);
width = 550;
},
{
associatedMasterId = "4C71D2F8-8800-4A35-9F40-3E8E498F68F0";
layerId = "91476977-51BB-4F6B-B858-2B25ADE9EECC";
name = "Sep 22 20, 14:44";
paths = (
{
closed = 1;
nodes = (
"125 350 LINE",
"125 564 OFFCURVE",
"174 647 OFFCURVE",
"275 647 CURVE SMOOTH",
"376 647 OFFCURVE",
"425 564 OFFCURVE",
"425 350 CURVE",
"520 350 LINE",
"520 609 OFFCURVE",
"444 710 OFFCURVE",
"275 710 CURVE SMOOTH",
"106 710 OFFCURVE",
"30 609 OFFCURVE",
"30 350 CURVE"
);
},
{
closed = 1;
nodes = (
"30 91 OFFCURVE",
"106 -10 OFFCURVE",
"275 -10 CURVE SMOOTH",
"444 -10 OFFCURVE",
"520 91 OFFCURVE",
"520 350 CURVE",
"425 350 LINE",
"425 136 OFFCURVE",
"376 53 OFFCURVE",
"275 53 CURVE SMOOTH",
"174 53 OFFCURVE",
"125 136 OFFCURVE",
"125 350 CURVE",
"30 350 LINE"
);
}
);
width = 550;
},
{
associatedMasterId = "4C71D2F8-8800-4A35-9F40-3E8E498F68F0";
layerId = "16898322-FD0B-4394-88B4-9465C922BEA6";
name = "Sep 22 20, 14:45";
paths = (
{
closed = 1;
nodes = (
"135 350 LINE",
"135 527 OFFCURVE",
"166 647 OFFCURVE",
"275 647 CURVE SMOOTH",
"384 647 OFFCURVE",
"415 527 OFFCURVE",
"415 350 CURVE",
"515 350 LINE",
"515 623 OFFCURVE",
"403 710 OFFCURVE",
"275 710 CURVE SMOOTH",
"147 710 OFFCURVE",
"35 623 OFFCURVE",
"35 350 CURVE"
);
},
{
closed = 1;
nodes = (
"35 77 OFFCURVE",
"147 -10 OFFCURVE",
"275 -10 CURVE SMOOTH",
"403 -10 OFFCURVE",
"515 77 OFFCURVE",
"515 350 CURVE",
"415 350 LINE",
"415 173 OFFCURVE",
"384 53 OFFCURVE",
"275 53 CURVE SMOOTH",
"166 53 OFFCURVE",
"135 173 OFFCURVE",
"135 350 CURVE",
"35 350 LINE"
);
}
);
width = 550;
},
{
anchors = (
{
name = bottom;
position = "{300, 0}";
},
{
name = center;
position = "{300, 350}";
},
{
name = ogonek;
position = "{540, 10}";
},
{
name = top;
position = "{300, 700}";
},
{
name = topleft;
position = "{20, 700}";
},
{
name = topright;
position = "{580, 700}";
}
);
guideLines = (
{
position = "{500, -10}";
}
);
layerId = "4C71D2F8-8800-4A35-9F40-3E8E498F68F0";
paths = (
{
closed = 1;
nodes = (
"444 145 OFFCURVE",
"400 65 OFFCURVE",
"300 65 CURVE SMOOTH",
"200 65 OFFCURVE",
"156 145 OFFCURVE",
"156 350 CURVE SMOOTH",
"156 565 OFFCURVE",
"200 640 OFFCURVE",
"300 640 CURVE SMOOTH",
"400 640 OFFCURVE",
"444 565 OFFCURVE",
"444 350 CURVE SMOOTH"
);
},
{
closed = 1;
nodes = (
"449 -10 OFFCURVE",
"534 85 OFFCURVE",
"534 350 CURVE SMOOTH",
"534 615 OFFCURVE",
"449 710 OFFCURVE",
"300 710 CURVE SMOOTH",
"151 710 OFFCURVE",
"66 615 OFFCURVE",
"66 350 CURVE SMOOTH",
"66 85 OFFCURVE",
"151 -10 OFFCURVE",
"300 -10 CURVE SMOOTH"
);
}
);
width = 600;
},
{
associatedMasterId = "4C71D2F8-8800-4A35-9F40-3E8E498F68F0";
backgroundImage = {
imagePath = "NEW NEW/O.jpg";
locked = "1";
transform = "{0.8949, 0, 0, 0.8949, 31, -48}";
};
layerId = "61596715-59E0-4699-AE0D-F993169F4156";
name = "Sep 25 20, 19:54";
paths = (
{
closed = 1;
nodes = (
"259 52 OFFCURVE",
"229 66 OFFCURVE",
"209 92 CURVE SMOOTH",
"175 138 OFFCURVE",
"173 221 OFFCURVE",
"173 333 CURVE",
"77 333 LINE",
"77 188 OFFCURVE",
"91 90 OFFCURVE",
"140 34 CURVE SMOOTH",
"175 -5 OFFCURVE",
"228 -24 OFFCURVE",
"307 -24 CURVE",
"307 52 LINE"
);
},
{
closed = 1;
nodes = (
"293 -24 LINE",
"372 -24 OFFCURVE",
"425 -5 OFFCURVE",
"460 34 CURVE SMOOTH",
"509 90 OFFCURVE",
"523 188 OFFCURVE",
"523 333 CURVE",
"427 333 LINE",
"427 221 OFFCURVE",
"425 138 OFFCURVE",
"391 92 CURVE SMOOTH",
"371 66 OFFCURVE",
"341 52 OFFCURVE",
"293 52 CURVE"
);
}
);
width = 600;
},
{
associatedMasterId = "4C71D2F8-8800-4A35-9F40-3E8E498F68F0";
backgroundImage = {
imagePath = "NEW NEW/O.jpg";
locked = "1";
transform = "{0.8949, 0, 0, 0.8949, 31, -48}";
};
layerId = "BB6AD131-1A14-45E1-A84B-8933B7206DB8";
name = "Sep 25 20, 19:56";
paths = (
{
closed = 1;
nodes = (
"168 52 OFFCURVE",
"163 179 OFFCURVE",
"163 350 CURVE",
"67 350 LINE",
"67 118 OFFCURVE",
"100 -24 OFFCURVE",
"300 -24 CURVE",
"300 52 LINE"
);
},
{
closed = 1;
nodes = (
"300 -24 LINE",
"500 -24 OFFCURVE",
"533 118 OFFCURVE",
"533 350 CURVE",
"437 350 LINE",
"437 179 OFFCURVE",
"432 52 OFFCURVE",
"300 52 CURVE"
);
},
{
closed = 1;
nodes = (
"300 724 LINE",
"100 724 OFFCURVE",
"67 582 OFFCURVE",
"67 350 CURVE",
"163 350 LINE",
"163 521 OFFCURVE",
"168 648 OFFCURVE",
"300 648 CURVE"
);
},
{
closed = 1;
nodes = (
"432 648 OFFCURVE",
"437 521 OFFCURVE",
"437 350 CURVE",
"533 350 LINE",
"533 582 OFFCURVE",
"500 724 OFFCURVE",
"300 724 CURVE",
"300 648 LINE"
);
}
);
width = 600;
},
{
associatedMasterId = "4C71D2F8-8800-4A35-9F40-3E8E498F68F0";
backgroundImage = {
imagePath = "NEW NEW/O.jpg";
locked = "1";
transform = "{0.8949, 0, 0, 0.8949, 31, -48}";
};
guideLines = (
{
position = "{633, 480}";
}
);
layerId = "0B02E6E4-E184-416A-9DD2-846FAB77DC2D";
name = "Oct 1 20, 11:56";
paths = (
{
closed = 1;
nodes = (
"300 718 LINE",
"100 718 OFFCURVE",
"65 582 OFFCURVE",
"65 350 CURVE",
"161 350 LINE",
"161 521 OFFCURVE",
"168 648 OFFCURVE",
"300 648 CURVE"
);
},
{
closed = 1;
nodes = (
"432 648 OFFCURVE",
"439 521 OFFCURVE",
"439 350 CURVE",
"535 350 LINE",
"535 582 OFFCURVE",
"500 718 OFFCURVE",
"300 718 CURVE",
"300 648 LINE"
);
},
{
closed = 1;
nodes = (
"168 52 OFFCURVE",
"161 179 OFFCURVE",
"161 350 CURVE",
"65 350 LINE",
"65 118 OFFCURVE",
"100 -18 OFFCURVE",
"300 -18 CURVE",
"300 52 LINE"
);
},
{
closed = 1;
nodes = (
"300 -18 LINE",
"500 -18 OFFCURVE",
"535 118 OFFCURVE",
"535 350 CURVE",
"439 350 LINE",
"439 179 OFFCURVE",
"432 52 OFFCURVE",
"300 52 CURVE"
);
}
);
width = 600;
},
{
associatedMasterId = "2BACE4BE-9FDB-4959-B9F6-A4D102DDF28D";
backgroundImage = {
imagePath = O.jpg;
locked = "1";
transform = "{6.1716, 0, 0, 6.1716, 0, -37}";
};
layerId = "629FDFE8-82FD-4B80-82DE-5D640DA3DCA8";
name = "Sep 21 20, 11:03";
paths = (
{
closed = 1;
nodes = (
"150 350 LINE",
"150 537 OFFCURVE",
"181 661 OFFCURVE",
"280 661 CURVE",
"280 724 LINE",
"141 724 OFFCURVE",
"50 634 OFFCURVE",
"50 350 CURVE"
);
},
{
closed = 1;
nodes = (
"510 634 OFFCURVE",
"419 724 OFFCURVE",
"280 724 CURVE",
"280 661 LINE",
"379 661 OFFCURVE",
"410 537 OFFCURVE",
"410 350 CURVE",
"510 350 LINE"
);
},
{
closed = 1;
nodes = (
"50 66 OFFCURVE",
"141 -24 OFFCURVE",
"280 -24 CURVE",
"280 39 LINE",
"181 39 OFFCURVE",
"150 163 OFFCURVE",
"150 350 CURVE",
"50 350 LINE"
);
},
{
closed = 1;
nodes = (
"410 350 LINE",
"410 163 OFFCURVE",
"379 39 OFFCURVE",
"280 39 CURVE",
"280 -24 LINE",
"419 -24 OFFCURVE",
"510 66 OFFCURVE",
"510 350 CURVE"
);
}
);
width = 560;
},
{
associatedMasterId = "2BACE4BE-9FDB-4959-B9F6-A4D102DDF28D";
backgroundImage = {
imagePath = O.jpg;
locked = "1";
transform = "{6.1716, 0, 0, 6.1716, 0, -37}";
};
layerId = "62F80755-BDEB-4626-B79E-B1DCDA7D6BA3";
name = "Sep 21 20, 11:05";
paths = (
{
closed = 1;
nodes = (
"150 350 LINE",
"150 531 OFFCURVE",
"181 651 OFFCURVE",
"280 651 CURVE",
"280 714 LINE",
"162 714 OFFCURVE",
"50 627 OFFCURVE",
"50 350 CURVE"
);
},
{
closed = 1;
nodes = (
"510 627 OFFCURVE",
"398 714 OFFCURVE",
"280 714 CURVE",
"280 651 LINE",
"379 651 OFFCURVE",
"410 531 OFFCURVE",
"410 350 CURVE",
"510 350 LINE"
);
},
{
closed = 1;
nodes = (
"50 73 OFFCURVE",
"142 -14 OFFCURVE",
"280 -14 CURVE",
"280 49 LINE",
"181 49 OFFCURVE",
"150 169 OFFCURVE",
"150 350 CURVE",
"50 350 LINE"
);
},
{
closed = 1;
nodes = (
"410 350 LINE",
"410 169 OFFCURVE",
"379 49 OFFCURVE",
"280 49 CURVE",
"280 -14 LINE",
"418 -14 OFFCURVE",
"510 73 OFFCURVE",
"510 350 CURVE"
);
}
);
width = 560;
},
{
associatedMasterId = "2BACE4BE-9FDB-4959-B9F6-A4D102DDF28D";
backgroundImage = {
imagePath = O.jpg;
locked = "1";
transform = "{6.1716, 0, 0, 6.1716, 0, -37}";
};
layerId = "79B59671-D14C-4A01-AA9F-B4B936D47460";
name = "Sep 21 20, 11:24";
paths = (
{
closed = 1;
nodes = (
"150 350 LINE",
"150 531 OFFCURVE",
"181 651 OFFCURVE",
"280 651 CURVE SMOOTH",
"379 651 OFFCURVE",
"410 531 OFFCURVE",
"410 350 CURVE",
"510 350 LINE",
"510 627 OFFCURVE",
"398 714 OFFCURVE",
"280 714 CURVE SMOOTH",
"162 714 OFFCURVE",
"50 627 OFFCURVE",
"50 350 CURVE"
);
},
{
closed = 1;
nodes = (
"50 73 OFFCURVE",
"162 -14 OFFCURVE",
"280 -14 CURVE SMOOTH",
"398 -14 OFFCURVE",
"510 73 OFFCURVE",
"510 350 CURVE",
"410 350 LINE",
"410 169 OFFCURVE",
"379 49 OFFCURVE",
"280 49 CURVE SMOOTH",
"181 49 OFFCURVE",
"150 169 OFFCURVE",
"150 350 CURVE",
"50 350 LINE"
);
}
);
width = 560;
},
{
associatedMasterId = "2BACE4BE-9FDB-4959-B9F6-A4D102DDF28D";
backgroundImage = {
imagePath = O.jpg;
locked = "1";
transform = "{6.1716, 0, 0, 6.1716, -5, -37}";
};
layerId = "FFB3526F-F6BD-4EC0-B2CB-20BB45319BBA";
name = "Sep 21 20, 11:34";
paths = (
{
closed = 1;
nodes = (
"145 350 LINE",
"145 527 OFFCURVE",
"176 647 OFFCURVE",
"275 647 CURVE SMOOTH",
"374 647 OFFCURVE",
"405 527 OFFCURVE",
"405 350 CURVE",
"505 350 LINE",
"505 623 OFFCURVE",
"393 710 OFFCURVE",
"275 710 CURVE SMOOTH",
"157 710 OFFCURVE",
"45 623 OFFCURVE",
"45 350 CURVE"
);
},
{
closed = 1;
nodes = (
"45 77 OFFCURVE",
"157 -10 OFFCURVE",
"275 -10 CURVE SMOOTH",
"393 -10 OFFCURVE",
"505 77 OFFCURVE",
"505 350 CURVE",
"405 350 LINE",
"405 173 OFFCURVE",
"374 53 OFFCURVE",
"275 53 CURVE SMOOTH",
"176 53 OFFCURVE",
"145 173 OFFCURVE",
"145 350 CURVE",
"45 350 LINE"
);
}
);
width = 550;
},
{
associatedMasterId = "2BACE4BE-9FDB-4959-B9F6-A4D102DDF28D";
layerId = "EB9FF396-19EF-4A27-BF5F-0B4D900C3B22";
name = "Sep 22 20, 14:44";
paths = (
{
closed = 1;
nodes = (
"125 350 LINE",
"125 564 OFFCURVE",
"174 647 OFFCURVE",
"275 647 CURVE SMOOTH",
"376 647 OFFCURVE",
"425 564 OFFCURVE",
"425 350 CURVE",
"520 350 LINE",
"520 609 OFFCURVE",
"444 710 OFFCURVE",
"275 710 CURVE SMOOTH",
"106 710 OFFCURVE",
"30 609 OFFCURVE",
"30 350 CURVE"
);
},
{
closed = 1;
nodes = (
"30 91 OFFCURVE",
"106 -10 OFFCURVE",
"275 -10 CURVE SMOOTH",
"444 -10 OFFCURVE",
"520 91 OFFCURVE",
"520 350 CURVE",
"425 350 LINE",
"425 136 OFFCURVE",
"376 53 OFFCURVE",
"275 53 CURVE SMOOTH",
"174 53 OFFCURVE",
"125 136 OFFCURVE",
"125 350 CURVE",
"30 350 LINE"
);
}
);
width = 550;
},
{
associatedMasterId = "2BACE4BE-9FDB-4959-B9F6-A4D102DDF28D";
layerId = "52835F8B-43CE-4339-A1F1-41CC5E7A82C2";
name = "Sep 22 20, 14:45";
paths = (
{
closed = 1;
nodes = (
"135 350 LINE",
"135 527 OFFCURVE",
"166 647 OFFCURVE",
"275 647 CURVE SMOOTH",
"384 647 OFFCURVE",
"415 527 OFFCURVE",
"415 350 CURVE",
"515 350 LINE",
"515 623 OFFCURVE",
"403 710 OFFCURVE",
"275 710 CURVE SMOOTH",
"147 710 OFFCURVE",
"35 623 OFFCURVE",
"35 350 CURVE"
);
},
{
closed = 1;
nodes = (
"35 77 OFFCURVE",
"147 -10 OFFCURVE",
"275 -10 CURVE SMOOTH",
"403 -10 OFFCURVE",
"515 77 OFFCURVE",
"515 350 CURVE",
"415 350 LINE",
"415 173 OFFCURVE",
"384 53 OFFCURVE",
"275 53 CURVE SMOOTH",
"166 53 OFFCURVE",
"135 173 OFFCURVE",
"135 350 CURVE",
"35 350 LINE"
);
}
);
width = 550;
},
{
anchors = (
{
name = bottom;
position = "{300, 0}";
},
{
name = center;
position = "{300, 350}";
},
{
name = ogonek;
position = "{540, 10}";
},
{
name = top;
position = "{300, 700}";
},
{
name = topleft;
position = "{20, 700}";
},
{
name = topright;
position = "{580, 700}";
}
);
guideLines = (
{
position = "{500, -10}";
}
);
layerId = "2BACE4BE-9FDB-4959-B9F6-A4D102DDF28D";
paths = (
{
closed = 1;
nodes = (
"450 145 OFFCURVE",
"370 95 OFFCURVE",
"300 95 CURVE SMOOTH",
"230 95 OFFCURVE",
"150 145 OFFCURVE",
"150 350 CURVE SMOOTH",
"150 565 OFFCURVE",
"230 610 OFFCURVE",
"300 610 CURVE SMOOTH",
"370 610 OFFCURVE",
"450 565 OFFCURVE",
"450 350 CURVE SMOOTH"
);
},
{
closed = 1;
nodes = (
"439 -10 OFFCURVE",
"562 85 OFFCURVE",
"562 350 CURVE SMOOTH",
"562 615 OFFCURVE",
"439 710 OFFCURVE",
"300 710 CURVE SMOOTH",
"161 710 OFFCURVE",
"38 615 OFFCURVE",
"38 350 CURVE SMOOTH",
"38 85 OFFCURVE",
"161 -10 OFFCURVE",
"300 -10 CURVE SMOOTH"
);
}
);
width = 600;
},
{
associatedMasterId = "2BACE4BE-9FDB-4959-B9F6-A4D102DDF28D";
backgroundImage = {
imagePath = "NEW NEW/O.jpg";
locked = "1";
transform = "{0.8949, 0, 0, 0.8949, 31, -48}";
};
layerId = "5ED96187-F59D-4E64-BAAA-AC1B2273965B";
name = "Sep 25 20, 19:54";
paths = (
{
closed = 1;
nodes = (
"259 52 OFFCURVE",
"229 66 OFFCURVE",
"209 92 CURVE SMOOTH",
"175 138 OFFCURVE",
"173 221 OFFCURVE",
"173 333 CURVE",
"77 333 LINE",
"77 188 OFFCURVE",
"91 90 OFFCURVE",
"140 34 CURVE SMOOTH",
"175 -5 OFFCURVE",
"228 -24 OFFCURVE",
"307 -24 CURVE",
"307 52 LINE"
);
},
{
closed = 1;
nodes = (
"293 -24 LINE",
"372 -24 OFFCURVE",
"425 -5 OFFCURVE",
"460 34 CURVE SMOOTH",
"509 90 OFFCURVE",
"523 188 OFFCURVE",
"523 333 CURVE",
"427 333 LINE",
"427 221 OFFCURVE",
"425 138 OFFCURVE",
"391 92 CURVE SMOOTH",
"371 66 OFFCURVE",
"341 52 OFFCURVE",
"293 52 CURVE"
);
}
);
width = 600;
},
{
associatedMasterId = "2BACE4BE-9FDB-4959-B9F6-A4D102DDF28D";
backgroundImage = {
imagePath = "NEW NEW/O.jpg";
locked = "1";
transform = "{0.8949, 0, 0, 0.8949, 31, -48}";
};
layerId = "150770DF-7111-4C38-ADE9-791C42F41D4B";
name = "Sep 25 20, 19:56";
paths = (
{
closed = 1;
nodes = (
"168 52 OFFCURVE",
"163 179 OFFCURVE",
"163 350 CURVE",
"67 350 LINE",
"67 118 OFFCURVE",
"100 -24 OFFCURVE",
"300 -24 CURVE",
"300 52 LINE"
);
},
{
closed = 1;
nodes = (
"300 -24 LINE",
"500 -24 OFFCURVE",
"533 118 OFFCURVE",
"533 350 CURVE",
"437 350 LINE",
"437 179 OFFCURVE",
"432 52 OFFCURVE",
"300 52 CURVE"
);
},
{
closed = 1;
nodes = (
"300 724 LINE",
"100 724 OFFCURVE",
"67 582 OFFCURVE",
"67 350 CURVE",
"163 350 LINE",
"163 521 OFFCURVE",
"168 648 OFFCURVE",
"300 648 CURVE"
);
},
{
closed = 1;
nodes = (
"432 648 OFFCURVE",
"437 521 OFFCURVE",
"437 350 CURVE",
"533 350 LINE",
"533 582 OFFCURVE",
"500 724 OFFCURVE",
"300 724 CURVE",
"300 648 LINE"
);
}
);
width = 600;
},
{
associatedMasterId = "2BACE4BE-9FDB-4959-B9F6-A4D102DDF28D";
backgroundImage = {
imagePath = "NEW NEW/O.jpg";
locked = "1";
transform = "{0.8949, 0, 0, 0.8949, 31, -48}";
};
guideLines = (
{
position = "{633, 480}";
}
);
layerId = "1129E5FB-B1A1-46D0-8F85-A300C496FA88";
name = "Oct 1 20, 11:56";
paths = (
{
closed = 1;
nodes = (
"300 718 LINE",
"100 718 OFFCURVE",
"65 582 OFFCURVE",
"65 350 CURVE",
"161 350 LINE",
"161 521 OFFCURVE",
"168 648 OFFCURVE",
"300 648 CURVE"
);
},
{
closed = 1;
nodes = (
"432 648 OFFCURVE",
"439 521 OFFCURVE",
"439 350 CURVE",
"535 350 LINE",
"535 582 OFFCURVE",
"500 718 OFFCURVE",
"300 718 CURVE",
"300 648 LINE"
);
},
{
closed = 1;
nodes = (
"168 52 OFFCURVE",
"161 179 OFFCURVE",
"161 350 CURVE",
"65 350 LINE",
"65 118 OFFCURVE",
"100 -18 OFFCURVE",
"300 -18 CURVE",
"300 52 LINE"
);
},
{
closed = 1;
nodes = (
"300 -18 LINE",
"500 -18 OFFCURVE",
"535 118 OFFCURVE",
"535 350 CURVE",
"439 350 LINE",
"439 179 OFFCURVE",
"432 52 OFFCURVE",
"300 52 CURVE"
);
}
);
width = 600;
},
{
anchors = (
{
name = bottom;
position = "{300, 0}";
},
{
name = center;
position = "{300, 350}";
},
{
name = ogonek;
position = "{540, 10}";
},
{
name = top;
position = "{300, 700}";
},
{
name = topleft;
position = "{20, 700}";
},
{
name = topright;
position = "{580, 700}";
}
);
layerId = "9236AB30-8BE3-474D-8AE7-4C3A4AE1933A";
paths = (
{
closed = 1;
nodes = (
"449 145 OFFCURVE",
"365 110 OFFCURVE",
"300 110 CURVE SMOOTH",
"235 110 OFFCURVE",
"151 145 OFFCURVE",
"151 350 CURVE SMOOTH",
"151 565 OFFCURVE",
"235 595 OFFCURVE",
"300 595 CURVE SMOOTH",
"365 595 OFFCURVE",
"449 565 OFFCURVE",
"449 350 CURVE SMOOTH"
);
},
{
closed = 1;
nodes = (
"440 -10 OFFCURVE",
"572 85 OFFCURVE",
"572 350 CURVE SMOOTH",
"572 615 OFFCURVE",
"440 710 OFFCURVE",
"300 710 CURVE SMOOTH",
"160 710 OFFCURVE",
"28 615 OFFCURVE",
"28 350 CURVE SMOOTH",
"28 85 OFFCURVE",
"160 -10 OFFCURVE",
"300 -10 CURVE SMOOTH"
);
}
);
width = 600;
}
);
unicode = 004F;
},
{
glyphname = Ohorn;
lastChange = "2025-05-09 09:28:19 +0000";
layers = (
{
anchors = (
{
name = bottom;
position = "{300, 0}";
},
{
name = top;
position = "{300, 700}";
}
);
layerId = "4C71D2F8-8800-4A35-9F40-3E8E498F68F0";
paths = (
{
closed = 1;
nodes = (
"449 -10 OFFCURVE",
"535 85 OFFCURVE",
"535 350 CURVE SMOOTH",
"535 442 OFFCURVE",
"525 513 OFFCURVE",
"505 567 CURVE SMOOTH",
"488 613 OFFCURVE",
"463 632 OFFCURVE",
"423 632 CURVE",
"423 662 LINE",
"538 662 OFFCURVE",
"573 688 OFFCURVE",
"573 773 CURVE SMOOTH",
"573 817 LINE",
"482 817 LINE",
"482 773 LINE SMOOTH",
"482 717 OFFCURVE",
"468 700 OFFCURVE",
"422 700 CURVE SMOOTH",
"374 700 OFFCURVE",
"348 710 OFFCURVE",
"300 710 CURVE SMOOTH",
"151 710 OFFCURVE",
"65 615 OFFCURVE",
"65 350 CURVE SMOOTH",
"65 85 OFFCURVE",
"151 -10 OFFCURVE",
"300 -10 CURVE SMOOTH"
);
},
{
closed = 1;
nodes = (
"200 65 OFFCURVE",
"156 145 OFFCURVE",
"156 350 CURVE SMOOTH",
"156 565 OFFCURVE",
"200 640 OFFCURVE",
"300 640 CURVE SMOOTH",
"400 640 OFFCURVE",
"444 565 OFFCURVE",
"444 350 CURVE SMOOTH",
"444 145 OFFCURVE",
"400 65 OFFCURVE",
"300 65 CURVE SMOOTH"
);
}
);
width = 600;
},
{
anchors = (
{
name = bottom;
position = "{300, 0}";
},
{
name = top;
position = "{300, 700}";
}
);
layerId = "2BACE4BE-9FDB-4959-B9F6-A4D102DDF28D";
paths = (
{
closed = 1;
nodes = (
"439 -10 OFFCURVE",
"560 85 OFFCURVE",
"560 350 CURVE SMOOTH",
"560 437 OFFCURVE",
"548 503 OFFCURVE",
"526 553 CURVE SMOOTH",
"502 608 OFFCURVE",
"466 628 OFFCURVE",
"423 628 CURVE",
"423 662 LINE",
"538 662 OFFCURVE",
"578 688 OFFCURVE",
"578 773 CURVE SMOOTH",
"578 817 LINE",
"467 817 LINE",
"467 773 LINE SMOOTH",
"467 715 OFFCURVE",
"456 700 OFFCURVE",
"422 700 CURVE SMOOTH",
"387 700 OFFCURVE",
"350 710 OFFCURVE",
"300 710 CURVE SMOOTH",
"161 710 OFFCURVE",
"40 615 OFFCURVE",
"40 350 CURVE SMOOTH",
"40 85 OFFCURVE",
"161 -10 OFFCURVE",
"300 -10 CURVE SMOOTH"
);
},
{
closed = 1;
nodes = (
"230 95 OFFCURVE",
"151 145 OFFCURVE",
"151 350 CURVE SMOOTH",
"151 565 OFFCURVE",
"230 610 OFFCURVE",
"300 610 CURVE SMOOTH",
"370 610 OFFCURVE",
"449 565 OFFCURVE",
"449 350 CURVE SMOOTH",
"449 145 OFFCURVE",
"370 95 OFFCURVE",
"300 95 CURVE SMOOTH"
);
}
);
width = 600;
},
{
anchors = (
{
name = bottom;
position = "{300, 0}";
},
{
name = top;
position = "{300, 700}";
}
);
layerId = "9236AB30-8BE3-474D-8AE7-4C3A4AE1933A";
paths = (
{
closed = 1;
nodes = (
"434 -10 OFFCURVE",
"573 85 OFFCURVE",
"573 350 CURVE SMOOTH",
"572 435 OFFCURVE",
"560 498 OFFCURVE",
"537 546 CURVE SMOOTH",
"509 606 OFFCURVE",
"468 626 OFFCURVE",
"423 626 CURVE",
"423 662 LINE",
"538 662 OFFCURVE",
"581 688 OFFCURVE",
"581 773 CURVE SMOOTH",
"581 817 LINE",
"460 817 LINE",
"460 773 LINE SMOOTH",
"459 713 OFFCURVE",
"450 700 OFFCURVE",
"422 700 CURVE SMOOTH",
"394 700 OFFCURVE",
"351 710 OFFCURVE",
"300 710 CURVE SMOOTH",
"166 710 OFFCURVE",
"28 615 OFFCURVE",
"28 350 CURVE SMOOTH",
"27 84 OFFCURVE",
"166 -10 OFFCURVE",
"300 -10 CURVE SMOOTH"
);
},
{
closed = 1;
nodes = (
"245 110 OFFCURVE",
"149 145 OFFCURVE",
"149 350 CURVE SMOOTH",
"148 566 OFFCURVE",
"245 595 OFFCURVE",
"300 595 CURVE SMOOTH",
"355 595 OFFCURVE",
"452 565 OFFCURVE",
"452 350 CURVE SMOOTH",
"451 144 OFFCURVE",
"355 110 OFFCURVE",
"300 110 CURVE SMOOTH"
);
}
);
width = 600;
}
);
unicode = 01A0;
},
{
glyphname = Ohorntilde;
lastChange = "2025-05-09 09:28:19 +0000";
layers = (
{
components = (
{
name = Ohorn;
}
);
layerId = "4C71D2F8-8800-4A35-9F40-3E8E498F68F0";
paths = (
{
closed = 1;
nodes = (
"428 762 OFFCURVE",
"438 848 OFFCURVE",
"427 918 CURVE",
"367 918 LINE",
"378 870 OFFCURVE",
"375 836 OFFCURVE",
"354 836 CURVE SMOOTH",
"320 836 OFFCURVE",
"300 924 OFFCURVE",
"231 924 CURVE SMOOTH",
"168 924 OFFCURVE",
"140 850 OFFCURVE",
"140 767 CURVE",
"201 767 LINE",
"201 831 OFFCURVE",
"216 849 OFFCURVE",
"235 849 CURVE SMOOTH",
"277 849 OFFCURVE",
"288 762 OFFCURVE",
"358 762 CURVE SMOOTH"
);
}
);
width = 600;
},
{
components = (
{
name = Ohorn;
}
);
layerId = "2BACE4BE-9FDB-4959-B9F6-A4D102DDF28D";
paths = (
{
closed = 1;
nodes = (
"405 762 OFFCURVE",
"438 832 OFFCURVE",
"426 918 CURVE",
"341 918 LINE",
"348 870 OFFCURVE",
"340 846 OFFCURVE",
"321 846 CURVE SMOOTH",
"293 846 OFFCURVE",
"268 924 OFFCURVE",
"212 924 CURVE SMOOTH",
"141 924 OFFCURVE",
"115 846 OFFCURVE",
"120 767 CURVE",
"205 767 LINE",
"205 824 OFFCURVE",
"213 839 OFFCURVE",
"232 839 CURVE SMOOTH",
"274 839 OFFCURVE",
"280 762 OFFCURVE",
"350 762 CURVE SMOOTH"
);
}
);
width = 600;
},
{
components = (
{
alignment = -1;
name = Ohorn;
}
);
layerId = "9236AB30-8BE3-474D-8AE7-4C3A4AE1933A";
paths = (
{
closed = 1;
nodes = (
"394 762 OFFCURVE",
"438 824 OFFCURVE",
"426 918 CURVE",
"328 918 LINE",
"333 870 OFFCURVE",
"323 851 OFFCURVE",
"305 851 CURVE SMOOTH",
"280 851 OFFCURVE",
"252 924 OFFCURVE",
"203 924 CURVE SMOOTH",
"128 924 OFFCURVE",
"102 845 OFFCURVE",
"110 767 CURVE",
"207 767 LINE",
"207 821 OFFCURVE",
"212 834 OFFCURVE",
"231 834 CURVE SMOOTH",
"273 834 OFFCURVE",
"276 762 OFFCURVE",
"346 762 CURVE SMOOTH"
);
}
);
width = 600;
}
);
unicode = 1EE0;
},
{
glyphname = Oslash;
lastChange = "2025-05-09 09:28:19 +0000";
layers = (
{
layerId = "4C71D2F8-8800-4A35-9F40-3E8E498F68F0";
paths = (
{
closed = 1;
nodes = (
"152 0 LINE",
"161 35 LINE",
"177 71 LINE",
"260 202 LINE",
"404 469 LINE",
"448 574 LINE",
"478 621 LINE",
"528 700 LINE",
"448 700 LINE",
"439 665 LINE",
"423 629 LINE",
"340 498 LINE",
"196 231 LINE",
"152 126 LINE",
"122 79 LINE",
"72 0 LINE"
);
},
{
closed = 1;
nodes = (
"300 65 LINE",
"200 65 OFFCURVE",
"146 145 OFFCURVE",
"146 350 CURVE",
"65 350 LINE",
"65 85 OFFCURVE",
"151 -10 OFFCURVE",
"300 -10 CURVE"
);
},
{
closed = 1;
nodes = (
"449 -10 OFFCURVE",
"535 85 OFFCURVE",
"535 350 CURVE",
"454 350 LINE",
"454 145 OFFCURVE",
"400 65 OFFCURVE",
"300 65 CURVE",
"300 -10 LINE"
);
},
{
closed = 1;
nodes = (
"146 350 LINE",
"146 565 OFFCURVE",
"200 640 OFFCURVE",
"300 640 CURVE",
"300 710 LINE",
"151 710 OFFCURVE",
"65 615 OFFCURVE",
"65 350 CURVE"
);
},
{
closed = 1;
nodes = (
"535 350 LINE",
"535 615 OFFCURVE",
"449 710 OFFCURVE",
"300 710 CURVE",
"300 640 LINE",
"400 640 OFFCURVE",
"454 565 OFFCURVE",
"454 350 CURVE"
);
}
);
width = 600;
},
{
associatedMasterId = "4C71D2F8-8800-4A35-9F40-3E8E498F68F0";
layerId = "4E297D02-04B3-4546-9130-F1DFFD673B6F";
name = "Jun 29 21, 10:38";
paths = (
{
closed = 1;
nodes = (
"535 350 LINE",
"535 615 OFFCURVE",
"449 710 OFFCURVE",
"300 710 CURVE",
"300 640 LINE",
"400 640 OFFCURVE",
"454 565 OFFCURVE",
"454 350 CURVE"
);
},
{
closed = 1;
nodes = (
"300 65 LINE",
"200 65 OFFCURVE",
"146 145 OFFCURVE",
"146 350 CURVE",
"65 350 LINE",
"65 85 OFFCURVE",
"151 -10 OFFCURVE",
"300 -10 CURVE"
);
},
{
closed = 1;
nodes = (
"449 -10 OFFCURVE",
"535 85 OFFCURVE",
"535 350 CURVE",
"454 350 LINE",
"454 145 OFFCURVE",
"400 65 OFFCURVE",
"300 65 CURVE",
"300 -10 LINE"
);
},
{
closed = 1;
nodes = (
"146 350 LINE",
"146 565 OFFCURVE",
"200 640 OFFCURVE",
"300 640 CURVE",
"300 710 LINE",
"151 710 OFFCURVE",
"65 615 OFFCURVE",
"65 350 CURVE"
);
},
{
closed = 1;
nodes = (
"151 0 LINE",
"188 70 LINE",
"223 125 LINE",
"464 584 LINE",
"487 639 LINE",
"532 707 LINE",
"452 707 LINE",
"417 639 LINE",
"382 584 LINE",
"141 125 LINE",
"118 70 LINE",
"71 0 LINE"
);
}
);
width = 600;
},
{
associatedMasterId = "4C71D2F8-8800-4A35-9F40-3E8E498F68F0";
layerId = "081E7FE4-4A4F-4F00-8DB6-86295326A32F";
name = "Sep 14 21, 10:55";
paths = (
{
closed = 1;
nodes = (
"449 -10 OFFCURVE",
"535 85 OFFCURVE",
"535 350 CURVE",
"454 350 LINE",
"454 145 OFFCURVE",
"400 65 OFFCURVE",
"300 65 CURVE",
"300 -10 LINE"
);
},
{
closed = 1;
nodes = (
"146 350 LINE",
"146 565 OFFCURVE",
"200 640 OFFCURVE",
"300 640 CURVE",
"300 710 LINE",
"151 710 OFFCURVE",
"65 615 OFFCURVE",
"65 350 CURVE"
);
},
{
closed = 1;
nodes = (
"535 350 LINE",
"535 615 OFFCURVE",
"449 710 OFFCURVE",
"300 710 CURVE",
"300 640 LINE",
"400 640 OFFCURVE",
"454 565 OFFCURVE",
"454 350 CURVE"
);
},
{
closed = 1;
nodes = (
"300 65 LINE",
"200 65 OFFCURVE",
"146 145 OFFCURVE",
"146 350 CURVE",
"65 350 LINE",
"65 85 OFFCURVE",
"151 -10 OFFCURVE",
"300 -10 CURVE"
);
},
{
closed = 1;
nodes = (
"448 700 LINE",
"439 665 LINE",
"423 629 LINE",
"340 498 LINE",
"260 350 LINE",
"340 350 LINE",
"404 469 LINE",
"448 574 LINE",
"478 621 LINE",
"528 700 LINE"
);
},
{
closed = 1;
nodes = (
"152 0 LINE",
"161 35 LINE",
"177 71 LINE",
"260 202 LINE",
"340 350 LINE",
"260 350 LINE",
"196 231 LINE",
"152 126 LINE",
"122 79 LINE",
"72 0 LINE"
);
}
);
width = 600;
},
{
layerId = "2BACE4BE-9FDB-4959-B9F6-A4D102DDF28D";
paths = (
{
closed = 1;
nodes = (
"152 0 LINE",
"171 55 LINE",
"200 102 LINE",
"270 202 LINE",
"418 469 LINE",
"448 574 LINE",
"478 621 LINE",
"548 700 LINE",
"448 700 LINE",
"436 642 LINE",
"409 601 LINE",
"342 513 LINE",
"186 231 LINE",
"152 126 LINE",
"122 79 LINE",
"52 0 LINE"
);
},
{
closed = 1;
nodes = (
"300 95 LINE",
"230 95 OFFCURVE",
"141 145 OFFCURVE",
"141 350 CURVE",
"40 350 LINE",
"40 85 OFFCURVE",
"161 -10 OFFCURVE",
"300 -10 CURVE"
);
},
{
closed = 1;
nodes = (
"439 -10 OFFCURVE",
"560 85 OFFCURVE",
"560 350 CURVE",
"459 350 LINE",
"459 145 OFFCURVE",
"370 95 OFFCURVE",
"300 95 CURVE",
"300 -10 LINE"
);
},
{
closed = 1;
nodes = (
"141 350 LINE",
"141 565 OFFCURVE",
"230 610 OFFCURVE",
"300 610 CURVE",
"300 710 LINE",
"161 710 OFFCURVE",
"40 615 OFFCURVE",
"40 350 CURVE"
);
},
{
closed = 1;
nodes = (
"560 350 LINE",
"560 615 OFFCURVE",
"439 710 OFFCURVE",
"300 710 CURVE",
"300 610 LINE",
"370 610 OFFCURVE",
"459 565 OFFCURVE",
"459 350 CURVE"
);
}
);
width = 600;
},
{
associatedMasterId = "2BACE4BE-9FDB-4959-B9F6-A4D102DDF28D";
layerId = "E1F3AF7F-675C-4F41-9177-A41860BF9898";
name = "Jun 29 21, 10:38";
paths = (
{
closed = 1;
nodes = (
"535 350 LINE",
"535 615 OFFCURVE",
"449 710 OFFCURVE",
"300 710 CURVE",
"300 640 LINE",
"400 640 OFFCURVE",
"454 565 OFFCURVE",
"454 350 CURVE"
);
},
{
closed = 1;
nodes = (
"300 65 LINE",
"200 65 OFFCURVE",
"146 145 OFFCURVE",
"146 350 CURVE",
"65 350 LINE",
"65 85 OFFCURVE",
"151 -10 OFFCURVE",
"300 -10 CURVE"
);
},
{
closed = 1;
nodes = (
"449 -10 OFFCURVE",
"535 85 OFFCURVE",
"535 350 CURVE",
"454 350 LINE",
"454 145 OFFCURVE",
"400 65 OFFCURVE",
"300 65 CURVE",
"300 -10 LINE"
);
},
{
closed = 1;
nodes = (
"146 350 LINE",
"146 565 OFFCURVE",
"200 640 OFFCURVE",
"300 640 CURVE",
"300 710 LINE",
"151 710 OFFCURVE",
"65 615 OFFCURVE",
"65 350 CURVE"
);
},
{
closed = 1;
nodes = (
"151 0 LINE",
"188 70 LINE",
"223 125 LINE",
"464 584 LINE",
"487 639 LINE",
"532 707 LINE",
"452 707 LINE",
"417 639 LINE",
"382 584 LINE",
"141 125 LINE",
"118 70 LINE",
"71 0 LINE"
);
}
);
width = 600;
},
{
associatedMasterId = "2BACE4BE-9FDB-4959-B9F6-A4D102DDF28D";
layerId = "B29E1C9A-5B46-4D44-9B50-90B9C8C32CB5";
name = "Sep 14 21, 10:55";
paths = (
{
closed = 1;
nodes = (
"449 -10 OFFCURVE",
"535 85 OFFCURVE",
"535 350 CURVE",
"454 350 LINE",
"454 145 OFFCURVE",
"400 65 OFFCURVE",
"300 65 CURVE",
"300 -10 LINE"
);
},
{
closed = 1;
nodes = (
"146 350 LINE",
"146 565 OFFCURVE",
"200 640 OFFCURVE",
"300 640 CURVE",
"300 710 LINE",
"151 710 OFFCURVE",
"65 615 OFFCURVE",
"65 350 CURVE"
);
},
{
closed = 1;
nodes = (
"535 350 LINE",
"535 615 OFFCURVE",
"449 710 OFFCURVE",
"300 710 CURVE",
"300 640 LINE",
"400 640 OFFCURVE",
"454 565 OFFCURVE",
"454 350 CURVE"
);
},
{
closed = 1;
nodes = (
"300 65 LINE",
"200 65 OFFCURVE",
"146 145 OFFCURVE",
"146 350 CURVE",
"65 350 LINE",
"65 85 OFFCURVE",
"151 -10 OFFCURVE",
"300 -10 CURVE"
);
},
{
closed = 1;
nodes = (
"448 700 LINE",
"439 665 LINE",
"423 629 LINE",
"340 498 LINE",
"260 350 LINE",
"340 350 LINE",
"404 469 LINE",
"448 574 LINE",
"478 621 LINE",
"528 700 LINE"
);
},
{
closed = 1;
nodes = (
"152 0 LINE",
"161 35 LINE",
"177 71 LINE",
"260 202 LINE",
"340 350 LINE",
"260 350 LINE",
"196 231 LINE",
"152 126 LINE",
"122 79 LINE",
"72 0 LINE"
);
}
);
width = 600;
},
{
layerId = "9236AB30-8BE3-474D-8AE7-4C3A4AE1933A";
paths = (
{
closed = 1;
nodes = (
"152 0 LINE",
"176 65 LINE",
"212 118 LINE",
"275 202 LINE",
"425 469 LINE",
"448 574 LINE",
"478 621 LINE",
"558 700 LINE",
"448 700 LINE",
"435 631 LINE",
"402 587 LINE",
"343 521 LINE",
"181 231 LINE",
"152 126 LINE",
"122 79 LINE",
"42 0 LINE"
);
},
{
closed = 1;
nodes = (
"300 110 LINE",
"245 110 OFFCURVE",
"139 145 OFFCURVE",
"139 350 CURVE",
"28 350 LINE",
"27 84 OFFCURVE",
"166 -10 OFFCURVE",
"300 -10 CURVE"
);
},
{
closed = 1;
nodes = (
"434 -10 OFFCURVE",
"573 85 OFFCURVE",
"573 350 CURVE",
"462 350 LINE",
"461 144 OFFCURVE",
"355 110 OFFCURVE",
"300 110 CURVE",
"300 -10 LINE"
);
},
{
closed = 1;
nodes = (
"139 350 LINE",
"138 566 OFFCURVE",
"245 595 OFFCURVE",
"300 595 CURVE",
"300 710 LINE",
"166 710 OFFCURVE",
"28 615 OFFCURVE",
"28 350 CURVE"
);
},
{
closed = 1;
nodes = (
"573 350 LINE",
"572 616 OFFCURVE",
"434 710 OFFCURVE",
"300 710 CURVE",
"300 595 LINE",
"355 595 OFFCURVE",
"462 565 OFFCURVE",
"462 350 CURVE"
);
}
);
width = 600;
}
);
unicode = 00D8;
},
{
glyphname = OE;
lastChange = "2025-05-09 09:28:19 +0000";
layers = (
{
layerId = "4C71D2F8-8800-4A35-9F40-3E8E498F68F0";
paths = (
{
closed = 1;
nodes = (
"121 350 LINE",
"122 520 OFFCURVE",
"159 630 OFFCURVE",
"244 630 CURVE SMOOTH",
"262 630 OFFCURVE",
"282 625 OFFCURVE",
"305 605 CURVE",
"305 680 LINE",
"273 704 OFFCURVE",
"244 711 OFFCURVE",
"217 711 CURVE SMOOTH",
"95 711 OFFCURVE",
"30 568 OFFCURVE",
"30 350 CURVE"
);
},
{
closed = 1;
nodes = (
"244 -11 OFFCURVE",
"273 -4 OFFCURVE",
"305 20 CURVE",
"305 95 LINE",
"282 75 OFFCURVE",
"262 70 OFFCURVE",
"244 70 CURVE SMOOTH",
"159 70 OFFCURVE",
"122 180 OFFCURVE",
"121 350 CURVE",
"30 350 LINE",
"30 132 OFFCURVE",
"95 -11 OFFCURVE",
"217 -11 CURVE SMOOTH"
);
},
{
closed = 1;
nodes = (
"570 0 LINE",
"570 75 LINE",
"340 75 LINE",
"340 0 LINE"
);
},
{
closed = 1;
nodes = (
"389 0 LINE",
"389 60 LINE",
"395 165 LINE",
"395 230 LINE",
"389 335 LINE",
"389 385 LINE",
"395 490 LINE",
"395 535 LINE",
"389 640 LINE",
"389 700 LINE",
"311 700 LINE",
"305 680 LINE",
"305 20 LINE",
"311 0 LINE"
);
},
{
closed = 1;
nodes = (
"550 325 LINE",
"550 395 LINE",
"340 395 LINE",
"340 325 LINE"
);
},
{
closed = 1;
nodes = (
"560 630 LINE",
"560 700 LINE",
"340 700 LINE",
"340 630 LINE"
);
}
);
width = 600;
},
{
layerId = "2BACE4BE-9FDB-4959-B9F6-A4D102DDF28D";
paths = (
{
closed = 1;
nodes = (
"141 350 LINE",
"142 520 OFFCURVE",
"159 630 OFFCURVE",
"244 630 CURVE SMOOTH",
"262 630 OFFCURVE",
"272 625 OFFCURVE",
"295 605 CURVE",
"295 680 LINE",
"263 704 OFFCURVE",
"244 711 OFFCURVE",
"217 711 CURVE SMOOTH",
"95 711 OFFCURVE",
"30 568 OFFCURVE",
"30 350 CURVE"
);
},
{
closed = 1;
nodes = (
"244 -11 OFFCURVE",
"263 -4 OFFCURVE",
"295 20 CURVE",
"295 95 LINE",
"272 75 OFFCURVE",
"262 70 OFFCURVE",
"244 70 CURVE SMOOTH",
"159 70 OFFCURVE",
"142 180 OFFCURVE",
"141 350 CURVE",
"30 350 LINE",
"30 132 OFFCURVE",
"95 -11 OFFCURVE",
"217 -11 CURVE SMOOTH"
);
},
{
closed = 1;
nodes = (
"570 0 LINE",
"570 95 LINE",
"340 95 LINE",
"340 0 LINE"
);
},
{
closed = 1;
nodes = (
"393 0 LINE",
"393 95 LINE",
"405 180 LINE",
"405 230 LINE",
"393 315 LINE",
"393 405 LINE",
"405 490 LINE",
"405 525 LINE",
"393 610 LINE",
"393 700 LINE",
"311 700 LINE",
"295 680 LINE",
"295 20 LINE",
"311 0 LINE"
);
},
{
closed = 1;
nodes = (
"550 315 LINE",
"550 405 LINE",
"340 405 LINE",
"340 315 LINE"
);
},
{
closed = 1;
nodes = (
"560 610 LINE",
"560 700 LINE",
"340 700 LINE",
"340 610 LINE"
);
}
);
width = 600;
},
{
layerId = "9236AB30-8BE3-474D-8AE7-4C3A4AE1933A";
paths = (
{
closed = 1;
nodes = (
"151 350 LINE",
"152 520 OFFCURVE",
"159 630 OFFCURVE",
"244 630 CURVE SMOOTH",
"262 630 OFFCURVE",
"267 625 OFFCURVE",
"290 605 CURVE",
"290 680 LINE",
"258 704 OFFCURVE",
"244 711 OFFCURVE",
"217 711 CURVE SMOOTH",
"95 711 OFFCURVE",
"30 568 OFFCURVE",
"30 350 CURVE"
);
},
{
closed = 1;
nodes = (
"244 -11 OFFCURVE",
"258 -4 OFFCURVE",
"290 20 CURVE",
"290 95 LINE",
"267 75 OFFCURVE",
"262 70 OFFCURVE",
"244 70 CURVE SMOOTH",
"159 70 OFFCURVE",
"152 180 OFFCURVE",
"151 350 CURVE",
"30 350 LINE",
"30 132 OFFCURVE",
"95 -11 OFFCURVE",
"217 -11 CURVE SMOOTH"
);
},
{
closed = 1;
nodes = (
"570 0 LINE",
"570 105 LINE",
"340 105 LINE",
"340 0 LINE"
);
},
{
closed = 1;
nodes = (
"395 0 LINE",
"395 113 LINE",
"410 188 LINE",
"410 230 LINE",
"395 305 LINE",
"395 415 LINE",
"410 490 LINE",
"410 520 LINE",
"395 595 LINE",
"395 700 LINE",
"311 700 LINE",
"290 680 LINE",
"290 20 LINE",
"311 0 LINE"
);
},
{
closed = 1;
nodes = (
"550 310 LINE",
"550 410 LINE",
"340 410 LINE",
"340 310 LINE"
);
},
{
closed = 1;
nodes = (
"560 600 LINE",
"560 700 LINE",
"340 700 LINE",
"340 600 LINE"
);
}
);
width = 600;
}
);
unicode = 0152;
},
{
glyphname = P;
lastChange = "2025-05-09 09:28:19 +0000";
layers = (
{
anchors = (
{
name = bottom;
position = "{300, 0}";
},
{
name = top;
position = "{300, 700}";
}
);
guideLines = (
{
position = "{74, 256}";
}
);
layerId = "4C71D2F8-8800-4A35-9F40-3E8E498F68F0";
paths = (
{
closed = 1;
nodes = (
"306 256 LINE SMOOTH",
"449 256 OFFCURVE",
"538 348 OFFCURVE",
"538 481 CURVE SMOOTH",
"538 625 OFFCURVE",
"434 700 OFFCURVE",
"307 700 CURVE SMOOTH",
"130 700 LINE",
"130 630 LINE",
"296 630 LINE SMOOTH",
"411 630 OFFCURVE",
"448 562 OFFCURVE",
"448 481 CURVE SMOOTH",
"448 389 OFFCURVE",
"400 326 OFFCURVE",
"288 326 CURVE SMOOTH",
"130 326 LINE",
"130 256 LINE"
);
},
{
closed = 1;
nodes = (
"180 0 LINE",
"180 161 LINE",
"174 266 LINE",
"174 326 LINE",
"90 326 LINE",
"90 0 LINE"
);
},
{
closed = 1;
nodes = (
"174 256 LINE",
"174 316 LINE",
"180 421 LINE",
"180 530 LINE",
"90 530 LINE",
"90 256 LINE"
);
},
{
closed = 1;
nodes = (
"180 525 LINE",
"180 535 LINE",
"174 640 LINE",
"174 700 LINE",
"90 700 LINE",
"90 525 LINE"
);
}
);
width = 600;
},
{
associatedMasterId = "4C71D2F8-8800-4A35-9F40-3E8E498F68F0";
layerId = "425B9520-1125-4FFF-B18B-568A6E636B1C";
name = "Sep 21 20, 11:36";
paths = (
{
closed = 1;
nodes = (
"145 0 LINE",
"145 700 LINE",
"55 700 LINE",
"55 0 LINE"
);
},
{
closed = 1;
nodes = (
"95 700 LINE",
"95 630 LINE",
"271 630 LINE SMOOTH",
"396 630 OFFCURVE",
"430 572 OFFCURVE",
"430 486 CURVE SMOOTH",
"430 394 OFFCURVE",
"385 334 OFFCURVE",
"263 335 CURVE SMOOTH",
"95 336 LINE",
"95 265 LINE",
"294 265 LINE SMOOTH",
"436 265 OFFCURVE",
"520 353 OFFCURVE",
"520 486 CURVE SMOOTH",
"520 630 OFFCURVE",
"420 700 OFFCURVE",
"271 700 CURVE SMOOTH"
);
}
);
width = 600;
},
{
anchors = (
{
name = bottom;
position = "{300, 0}";
},
{
name = top;
position = "{300, 700}";
}
);
guideLines = (
{
position = "{74, 256}";
}
);
layerId = "2BACE4BE-9FDB-4959-B9F6-A4D102DDF28D";
paths = (
{
closed = 1;
nodes = (
"326 246 LINE SMOOTH",
"469 246 OFFCURVE",
"558 342 OFFCURVE",
"558 475 CURVE SMOOTH",
"558 619 OFFCURVE",
"454 700 OFFCURVE",
"327 700 CURVE SMOOTH",
"138 700 LINE",
"138 610 LINE",
"294 610 LINE SMOOTH",
"409 610 OFFCURVE",
"446 556 OFFCURVE",
"446 475 CURVE SMOOTH",
"446 383 OFFCURVE",
"398 336 OFFCURVE",
"286 336 CURVE SMOOTH",
"138 336 LINE",
"138 246 LINE"
);
},
{
closed = 1;
nodes = (
"188 0 LINE",
"188 151 LINE",
"176 256 LINE",
"176 336 LINE",
"78 336 LINE",
"78 0 LINE"
);
},
{
closed = 1;
nodes = (
"176 246 LINE",
"176 326 LINE",
"188 431 LINE",
"188 510 LINE",
"78 510 LINE",
"78 246 LINE"
);
},
{
closed = 1;
nodes = (
"188 505 LINE",
"188 515 LINE",
"176 620 LINE",
"176 700 LINE",
"78 700 LINE",
"78 505 LINE"
);
}
);
width = 600;
},
{
associatedMasterId = "2BACE4BE-9FDB-4959-B9F6-A4D102DDF28D";
layerId = "7268EC28-E9F4-49B9-9735-FEB9DA908CE2";
name = "Sep 21 20, 11:36";
paths = (
{
closed = 1;
nodes = (
"145 0 LINE",
"145 700 LINE",
"55 700 LINE",
"55 0 LINE"
);
},
{
closed = 1;
nodes = (
"95 700 LINE",
"95 630 LINE",
"271 630 LINE SMOOTH",
"396 630 OFFCURVE",
"430 572 OFFCURVE",
"430 486 CURVE SMOOTH",
"430 394 OFFCURVE",
"385 334 OFFCURVE",
"263 335 CURVE SMOOTH",
"95 336 LINE",
"95 265 LINE",
"294 265 LINE SMOOTH",
"436 265 OFFCURVE",
"520 353 OFFCURVE",
"520 486 CURVE SMOOTH",
"520 630 OFFCURVE",
"420 700 OFFCURVE",
"271 700 CURVE SMOOTH"
);
}
);
width = 600;
},
{
anchors = (
{
name = bottom;
position = "{300, 0}";
},
{
name = top;
position = "{300, 700}";
}
);
layerId = "9236AB30-8BE3-474D-8AE7-4C3A4AE1933A";
paths = (
{
closed = 1;
nodes = (
"336 241 LINE SMOOTH",
"479 241 OFFCURVE",
"568 339 OFFCURVE",
"568 472 CURVE SMOOTH",
"568 616 OFFCURVE",
"464 700 OFFCURVE",
"337 700 CURVE SMOOTH",
"142 700 LINE",
"142 600 LINE",
"293 600 LINE SMOOTH",
"408 600 OFFCURVE",
"445 553 OFFCURVE",
"445 472 CURVE SMOOTH",
"445 380 OFFCURVE",
"397 341 OFFCURVE",
"285 341 CURVE SMOOTH",
"142 341 LINE",
"142 241 LINE"
);
},
{
closed = 1;
nodes = (
"192 0 LINE",
"192 146 LINE",
"177 251 LINE",
"177 341 LINE",
"72 341 LINE",
"72 0 LINE"
);
},
{
closed = 1;
nodes = (
"177 241 LINE",
"177 331 LINE",
"192 436 LINE",
"192 500 LINE",
"72 500 LINE",
"72 241 LINE"
);
},
{
closed = 1;
nodes = (
"192 495 LINE",
"192 505 LINE",
"177 610 LINE",
"177 700 LINE",
"72 700 LINE",
"72 495 LINE"
);
}
);
width = 600;
}
);
unicode = 0050;
},
{
glyphname = Thorn;
lastChange = "2025-05-09 09:28:19 +0000";
layers = (
{
layerId = "4C71D2F8-8800-4A35-9F40-3E8E498F68F0";
paths = (
{
closed = 1;
nodes = (
"180 0 LINE",
"180 77 LINE",
"175 172 LINE",
"311 172 LINE SMOOTH",
"455 172 OFFCURVE",
"538 259 OFFCURVE",
"538 372 CURVE SMOOTH",
"538 496 OFFCURVE",
"439 566 OFFCURVE",
"312 566 CURVE SMOOTH",
"174 566 LINE",
"180 660 LINE",
"180 700 LINE",
"90 700 LINE",
"90 0 LINE"
);
},
{
closed = 1;
nodes = (
"180 337 LINE",
"180 401 LINE",
"175 496 LINE",
"306 496 LINE SMOOTH",
"380 496 OFFCURVE",
"448 471 OFFCURVE",
"448 372 CURVE SMOOTH",
"448 268 OFFCURVE",
"376 242 OFFCURVE",
"298 242 CURVE SMOOTH",
"175 242 LINE"
);
}
);
width = 600;
},
{
layerId = "2BACE4BE-9FDB-4959-B9F6-A4D102DDF28D";
paths = (
{
closed = 1;
nodes = (
"188 0 LINE",
"188 67 LINE",
"183 162 LINE",
"331 162 LINE SMOOTH",
"475 162 OFFCURVE",
"558 259 OFFCURVE",
"558 372 CURVE SMOOTH",
"558 496 OFFCURVE",
"459 576 OFFCURVE",
"332 576 CURVE SMOOTH",
"182 576 LINE",
"188 670 LINE",
"188 700 LINE",
"78 700 LINE",
"78 0 LINE"
);
},
{
closed = 1;
nodes = (
"188 337 LINE",
"188 391 LINE",
"183 486 LINE",
"326 486 LINE SMOOTH",
"402 486 OFFCURVE",
"446 451 OFFCURVE",
"446 372 CURVE SMOOTH",
"446 289 OFFCURVE",
"398 252 OFFCURVE",
"318 252 CURVE SMOOTH",
"183 252 LINE"
);
}
);
width = 600;
},
{
associatedMasterId = "4C71D2F8-8800-4A35-9F40-3E8E498F68F0";
layerId = "252F8C74-FCC6-489C-A116-8F6D94737FCC";
name = "9 mai 25 à 11:23";
paths = (
{
closed = 1;
nodes = (
"311 172 LINE SMOOTH",
"455 172 OFFCURVE",
"538 259 OFFCURVE",
"538 372 CURVE SMOOTH",
"538 496 OFFCURVE",
"439 566 OFFCURVE",
"312 566 CURVE SMOOTH",
"130 566 LINE",
"130 496 LINE",
"306 496 LINE SMOOTH",
"380 496 OFFCURVE",
"448 471 OFFCURVE",
"448 372 CURVE SMOOTH",
"448 268 OFFCURVE",
"376 242 OFFCURVE",
"298 242 CURVE SMOOTH",
"130 242 LINE",
"130 172 LINE"
);
},
{
closed = 1;
nodes = (
"180 0 LINE",
"180 77 LINE",
"174 182 LINE",
"174 242 LINE",
"90 242 LINE",
"90 0 LINE"
);
},
{
closed = 1;
nodes = (
"174 172 LINE",
"174 232 LINE",
"180 337 LINE",
"180 396 LINE",
"90 396 LINE",
"90 172 LINE"
);
},
{
closed = 1;
nodes = (
"180 391 LINE",
"180 401 LINE",
"174 506 LINE",
"174 566 LINE",
"90 566 LINE",
"90 391 LINE"
);
},
{
closed = 1;
nodes = (
"174 506 LINE",
"174 566 LINE",
"180 660 LINE",
"180 700 LINE",
"90 700 LINE",
"90 506 LINE"
);
}
);
width = 600;
},
{
associatedMasterId = "2BACE4BE-9FDB-4959-B9F6-A4D102DDF28D";
layerId = "11F99336-921D-438A-B3D2-636C9F5E9515";
name = "9 mai 25 à 11:23";
paths = (
{
closed = 1;
nodes = (
"331 162 LINE SMOOTH",
"475 162 OFFCURVE",
"558 259 OFFCURVE",
"558 372 CURVE SMOOTH",
"558 496 OFFCURVE",
"459 576 OFFCURVE",
"332 576 CURVE SMOOTH",
"138 576 LINE",
"138 486 LINE",
"326 486 LINE SMOOTH",
"402 486 OFFCURVE",
"446 451 OFFCURVE",
"446 372 CURVE SMOOTH",
"446 289 OFFCURVE",
"398 252 OFFCURVE",
"318 252 CURVE SMOOTH",
"138 252 LINE",
"138 162 LINE"
);
},
{
closed = 1;
nodes = (
"188 0 LINE",
"188 67 LINE",
"182 172 LINE",
"182 252 LINE",
"78 252 LINE",
"78 0 LINE"
);
},
{
closed = 1;
nodes = (
"182 162 LINE",
"182 242 LINE",
"188 337 LINE",
"188 386 LINE",
"78 386 LINE",
"78 162 LINE"
);
},
{
closed = 1;
nodes = (
"188 381 LINE",
"188 391 LINE",
"182 496 LINE",
"182 576 LINE",
"78 566 LINE",
"78 381 LINE"
);
},
{
closed = 1;
nodes = (
"182 576 LINE",
"188 670 LINE",
"188 700 LINE",
"78 700 LINE",
"78 506 LINE",
"182 496 LINE"
);
}
);
width = 600;
},
{
layerId = "9236AB30-8BE3-474D-8AE7-4C3A4AE1933A";
paths = (
{
closed = 1;
nodes = (
"192 0 LINE",
"192 62 LINE",
"187 157 LINE",
"341 157 LINE SMOOTH",
"485 157 OFFCURVE",
"568 259 OFFCURVE",
"568 372 CURVE SMOOTH",
"568 496 OFFCURVE",
"469 581 OFFCURVE",
"342 581 CURVE SMOOTH",
"186 581 LINE",
"192 675 LINE",
"192 700 LINE",
"72 700 LINE",
"72 0 LINE"
);
},
{
closed = 1;
nodes = (
"192 337 LINE",
"192 386 LINE",
"187 481 LINE",
"336 481 LINE SMOOTH",
"413 481 OFFCURVE",
"445 441 OFFCURVE",
"445 372 CURVE SMOOTH",
"445 300 OFFCURVE",
"409 257 OFFCURVE",
"328 257 CURVE SMOOTH",
"187 257 LINE"
);
}
);
width = 600;
}
);
unicode = 00DE;
},
{
glyphname = Q;
lastChange = "2025-06-02 13:20:18 +0000";
layers = (
{
associatedMasterId = "4C71D2F8-8800-4A35-9F40-3E8E498F68F0";
components = (
{
name = O;
}
);
layerId = "BAD2DBCA-8A52-4B4A-975D-DB2AA1C495EF";
name = "Oct 10 20, 23:07";
paths = (
{
closed = 1;
nodes = (
"321 37 LINE",
"356 -90 LINE",
"441 -90 LINE",
"371 37 LINE",
"331 180 LINE",
"256 180 LINE"
);
}
);
width = 600;
},
{
associatedMasterId = "4C71D2F8-8800-4A35-9F40-3E8E498F68F0";
components = (
{
name = O;
}
);
layerId = "11433C16-E391-4A7B-B46F-4041C296200D";
name = "Oct 10 20, 23:17";
paths = (
{
closed = 1;
nodes = (
"321 37 LINE",
"356 -90 LINE",
"441 -90 LINE",
"371 37 LINE",
"331 180 LINE",
"256 180 LINE"
);
}
);
width = 600;
},
{
associatedMasterId = "4C71D2F8-8800-4A35-9F40-3E8E498F68F0";
components = (
{
name = O;
}
);
layerId = "4657408F-7568-471A-946C-8C3178ABDAF1";
name = "Oct 19 20, 16:37";
paths = (
{
closed = 1;
nodes = (
"327 41 LINE",
"375 -90 LINE",
"470 -90 LINE",
"380 41 LINE",
"330 190 LINE",
"240 190 LINE"
);
}
);
width = 600;
},
{
anchors = (
{
name = bottom;
position = "{300, 0}";
},
{
name = top;
position = "{300, 700}";
}
);
components = (
{
name = O;
}
);
layerId = "4C71D2F8-8800-4A35-9F40-3E8E498F68F0";
paths = (
{
closed = 1;
nodes = (
"475 -90 LINE",
"399 43 LINE",
"325 200 LINE",
"265 200 LINE",
"329 43 LINE",
"375 -90 LINE"
);
}
);
width = 600;
},
{
anchors = (
{
name = bottom;
position = "{300, 0}";
},
{
name = top;
position = "{300, 700}";
}
);
associatedMasterId = "4C71D2F8-8800-4A35-9F40-3E8E498F68F0";
backgroundImage = {
imagePath = 20201006_163515.jpg;
locked = "1";
transform = "{0.8689, 0, 0, 0.8689, -136, -152}";
};
components = (
{
name = O;
}
);
layerId = "11201699-53AE-4198-9C22-FC911BFF6827";
name = "Dec 15 20, 14:50";
paths = (
{
closed = 1;
nodes = (
"475 -90 LINE",
"325 200 LINE",
"265 200 LINE",
"375 -90 LINE"
);
}
);
width = 600;
},
{
associatedMasterId = "2BACE4BE-9FDB-4959-B9F6-A4D102DDF28D";
components = (
{
name = O;
}
);
layerId = "6DE3AEF4-71FE-40B6-AF06-683F937F51FA";
name = "Oct 10 20, 23:07";
paths = (
{
closed = 1;
nodes = (
"321 37 LINE",
"356 -90 LINE",
"441 -90 LINE",
"371 37 LINE",
"331 180 LINE",
"256 180 LINE"
);
}
);
width = 600;
},
{
associatedMasterId = "2BACE4BE-9FDB-4959-B9F6-A4D102DDF28D";
components = (
{
name = O;
}
);
layerId = "A0A5D548-8613-499A-BFAC-2BDF631733C4";
name = "Oct 10 20, 23:17";
paths = (
{
closed = 1;
nodes = (
"321 37 LINE",
"356 -90 LINE",
"441 -90 LINE",
"371 37 LINE",
"331 180 LINE",
"256 180 LINE"
);
}
);
width = 600;
},
{
associatedMasterId = "2BACE4BE-9FDB-4959-B9F6-A4D102DDF28D";
components = (
{
name = O;
}
);
layerId = "1BE2D461-2C38-4D6E-98EA-35FF066E4848";
name = "Oct 19 20, 16:37";
paths = (
{
closed = 1;
nodes = (
"327 41 LINE",
"375 -90 LINE",
"470 -90 LINE",
"380 41 LINE",
"330 190 LINE",
"240 190 LINE"
);
}
);
width = 600;
},
{
anchors = (
{
name = bottom;
position = "{300, 0}";
},
{
name = top;
position = "{300, 700}";
}
);
components = (
{
name = O;
}
);
layerId = "2BACE4BE-9FDB-4959-B9F6-A4D102DDF28D";
paths = (
{
closed = 1;
nodes = (
"470 -90 LINE",
"394 43 LINE",
"355 200 LINE",
"265 200 LINE",
"334 43 LINE",
"360 -90 LINE"
);
}
);
width = 600;
},
{
anchors = (
{
name = bottom;
position = "{300, 0}";
},
{
name = top;
position = "{300, 700}";
}
);
associatedMasterId = "2BACE4BE-9FDB-4959-B9F6-A4D102DDF28D";
backgroundImage = {
imagePath = 20201006_163515.jpg;
locked = "1";
transform = "{0.8689, 0, 0, 0.8689, -136, -152}";
};
components = (
{
name = O;
}
);
layerId = "9FF415E9-AA25-4BBC-90B3-B6B711452920";
name = "Dec 15 20, 14:50";
paths = (
{
closed = 1;
nodes = (
"475 -90 LINE",
"325 200 LINE",
"265 200 LINE",
"375 -90 LINE"
);
}
);
width = 600;
},
{
anchors = (
{
name = bottom;
position = "{300, 0}";
},
{
name = top;
position = "{300, 700}";
}
);
components = (
{
alignment = -1;
name = O;
}
);
layerId = "9236AB30-8BE3-474D-8AE7-4C3A4AE1933A";
paths = (
{
closed = 1;
nodes = (
"468 -90 LINE",
"387 53 LINE",
"370 200 LINE",
"265 200 LINE",
"332 53 LINE",
"353 -90 LINE"
);
}
);
width = 600;
}
);
unicode = 0051;
},
{
glyphname = R;
lastChange = "2025-05-09 09:28:19 +0000";
layers = (
{
associatedMasterId = "4C71D2F8-8800-4A35-9F40-3E8E498F68F0";
backgroundImage = {
imagePath = "OLD/R.jpg";
locked = "1";
transform = "{6.1102, 0, 0, 6.1102, 0, -73.828}";
};
guideLines = (
{
position = "{440, 375}";
}
);
layerId = "BA3772BB-5A3C-44E1-9CE6-AF48F430059A";
name = "Oct 6 20, 17:51";
paths = (
{
closed = 1;
nodes = (
"306 321 LINE",
"306 355 LINE",
"565 355 OFFCURVE",
"570 700 OFFCURVE",
"365 700 CURVE SMOOTH",
"130 700 LINE",
"130 630 LINE",
"333 630 LINE SMOOTH",
"468 630 OFFCURVE",
"443 391 OFFCURVE",
"306 391 CURVE SMOOTH",
"130 391 LINE",
"130 321 LINE"
);
},
{
closed = 1;
nodes = (
"180 0 LINE",
"180 700 LINE",
"90 700 LINE",
"90 0 LINE"
);
},
{
closed = 1;
nodes = (
"525 0 LINE",
"393 269 LINE SMOOTH",
"370 315 OFFCURVE",
"338 336 OFFCURVE",
"293 336 CURVE",
"241 321 LINE",
"264 321 OFFCURVE",
"296 294 OFFCURVE",
"314 254 CURVE SMOOTH",
"425 0 LINE"
);
}
);
width = 600;
},
{
annotations = (
{
position = "{680.984, 159.055}";
type = Text;
}
);
associatedMasterId = "4C71D2F8-8800-4A35-9F40-3E8E498F68F0";
guideLines = (
{
position = "{440, 375}";
},
{
position = "{120, 336}";
}
);
layerId = "FAC10188-9F68-4834-B047-42F3140059A8";
name = "Oct 8 20, 09:10";
paths = (
{
closed = 1;
nodes = (
"170 0 LINE",
"170 700 LINE",
"80 700 LINE",
"80 0 LINE"
);
},
{
closed = 1;
nodes = (
"260 266 LINE SMOOTH",
"314 266 OFFCURVE",
"352 235 OFFCURVE",
"366 200 CURVE SMOOTH",
"448 0 LINE",
"548 0 LINE",
"441 221 LINE SMOOTH",
"424 257 OFFCURVE",
"396 286 OFFCURVE",
"352 286 CURVE",
"352 306 LINE",
"447 306 OFFCURVE",
"510 384 OFFCURVE",
"510 500 CURVE SMOOTH",
"510 620 OFFCURVE",
"447 700 OFFCURVE",
"285 700 CURVE SMOOTH",
"110 700 LINE",
"110 629 LINE",
"260 630 LINE SMOOTH",
"356 631 OFFCURVE",
"420 595 OFFCURVE",
"420 500 CURVE SMOOTH",
"420 398 OFFCURVE",
"356 336 OFFCURVE",
"260 336 CURVE SMOOTH",
"110 336 LINE",
"110 266 LINE"
);
}
);
width = 600;
},
{
annotations = (
{
position = "{680.984, 159.055}";
type = Text;
}
);
associatedMasterId = "4C71D2F8-8800-4A35-9F40-3E8E498F68F0";
guideLines = (
{
position = "{440, 375}";
},
{
position = "{120, 336}";
}
);
layerId = "C2148A77-9DC0-40C1-AA0A-5C5E59F1CAE1";
name = "Oct 8 20, 09:10";
paths = (
{
closed = 1;
nodes = (
"170 0 LINE",
"170 700 LINE",
"80 700 LINE",
"80 0 LINE"
);
},
{
closed = 1;
nodes = (
"260 266 LINE SMOOTH",
"314 266 OFFCURVE",
"352 235 OFFCURVE",
"366 200 CURVE SMOOTH",
"448 0 LINE",
"548 0 LINE",
"441 221 LINE SMOOTH",
"424 257 OFFCURVE",
"396 286 OFFCURVE",
"352 286 CURVE",
"352 306 LINE",
"447 306 OFFCURVE",
"510 384 OFFCURVE",
"510 500 CURVE SMOOTH",
"510 620 OFFCURVE",
"447 700 OFFCURVE",
"285 700 CURVE SMOOTH",
"110 700 LINE",
"110 629 LINE",
"260 630 LINE SMOOTH",
"356 631 OFFCURVE",
"420 595 OFFCURVE",
"420 500 CURVE SMOOTH",
"420 398 OFFCURVE",
"356 336 OFFCURVE",
"260 336 CURVE SMOOTH",
"110 336 LINE",
"110 266 LINE"
);
}
);
width = 600;
},
{
anchors = (
{
name = bottom;
position = "{300, 0}";
},
{
name = top;
position = "{300, 700}";
}
);
layerId = "4C71D2F8-8800-4A35-9F40-3E8E498F68F0";
paths = (
{
closed = 1;
nodes = (
"550 0 LINE",
"443 230 LINE SMOOTH",
"426 266 OFFCURVE",
"398 295 OFFCURVE",
"354 295 CURVE",
"354 325 LINE",
"449 325 OFFCURVE",
"512 393 OFFCURVE",
"512 500 CURVE SMOOTH",
"512 614 OFFCURVE",
"440 700 OFFCURVE",
"287 700 CURVE SMOOTH",
"110 700 LINE",
"110 629 LINE",
"262 629 LINE SMOOTH",
"376 629 OFFCURVE",
"422 579 OFFCURVE",
"422 500 CURVE SMOOTH",
"422 407 OFFCURVE",
"358 345 OFFCURVE",
"262 345 CURVE SMOOTH",
"110 345 LINE",
"110 275 LINE",
"262 275 LINE SMOOTH",
"316 275 OFFCURVE",
"354 244 OFFCURVE",
"368 209 CURVE SMOOTH",
"450 0 LINE"
);
},
{
closed = 1;
nodes = (
"180 0 LINE",
"180 170 LINE",
"174 275 LINE",
"174 345 LINE",
"180 430 LINE",
"180 524 LINE",
"174 629 LINE",
"174 700 LINE",
"90 700 LINE",
"90 0 LINE"
);
}
);
width = 600;
},
{
anchors = (
{
name = bottom;
position = "{300, 0}";
},
{
name = top;
position = "{300, 700}";
}
);
annotations = (
{
position = "{680.984, 159.055}";
type = Text;
}
);
associatedMasterId = "4C71D2F8-8800-4A35-9F40-3E8E498F68F0";
layerId = "D902B4AE-9DBF-4CD8-9F5C-792BBFA3F568";
name = "Dec 15 20, 13:49";
paths = (
{
closed = 1;
nodes = (
"170 0 LINE",
"170 700 LINE",
"80 700 LINE",
"80 0 LINE"
);
},
{
closed = 1;
nodes = (
"262 275 LINE SMOOTH",
"316 275 OFFCURVE",
"354 244 OFFCURVE",
"368 209 CURVE SMOOTH",
"450 0 LINE",
"550 0 LINE",
"443 230 LINE SMOOTH",
"426 266 OFFCURVE",
"398 295 OFFCURVE",
"354 295 CURVE",
"354 325 LINE",
"449 325 OFFCURVE",
"512 393 OFFCURVE",
"512 500 CURVE SMOOTH",
"512 614 OFFCURVE",
"440 700 OFFCURVE",
"287 700 CURVE SMOOTH",
"110 700 LINE",
"110 629 LINE",
"262 630 LINE SMOOTH",
"376 631 OFFCURVE",
"422 579 OFFCURVE",
"422 500 CURVE SMOOTH",
"422 407 OFFCURVE",
"358 345 OFFCURVE",
"262 345 CURVE SMOOTH",
"110 345 LINE",
"110 275 LINE"
);
}
);
width = 600;
},
{
associatedMasterId = "2BACE4BE-9FDB-4959-B9F6-A4D102DDF28D";
backgroundImage = {
imagePath = "OLD/R.jpg";
locked = "1";
transform = "{6.1102, 0, 0, 6.1102, 0, -73.828}";
};
guideLines = (
{
position = "{440, 375}";
}
);
layerId = "93B75A58-7A0C-4AEC-BCEC-365568405CAD";
name = "Oct 6 20, 17:51";
paths = (
{
closed = 1;
nodes = (
"306 321 LINE",
"306 355 LINE",
"565 355 OFFCURVE",
"570 700 OFFCURVE",
"365 700 CURVE SMOOTH",
"130 700 LINE",
"130 630 LINE",
"333 630 LINE SMOOTH",
"468 630 OFFCURVE",
"443 391 OFFCURVE",
"306 391 CURVE SMOOTH",
"130 391 LINE",
"130 321 LINE"
);
},
{
closed = 1;
nodes = (
"180 0 LINE",
"180 700 LINE",
"90 700 LINE",
"90 0 LINE"
);
},
{
closed = 1;
nodes = (
"525 0 LINE",
"393 269 LINE SMOOTH",
"370 315 OFFCURVE",
"338 336 OFFCURVE",
"293 336 CURVE",
"241 321 LINE",
"264 321 OFFCURVE",
"296 294 OFFCURVE",
"314 254 CURVE SMOOTH",
"425 0 LINE"
);
}
);
width = 600;
},
{
annotations = (
{
position = "{680.984, 159.055}";
type = Text;
}
);
associatedMasterId = "2BACE4BE-9FDB-4959-B9F6-A4D102DDF28D";
guideLines = (
{
position = "{440, 375}";
},
{
position = "{120, 336}";
}
);
layerId = "9F4C138D-CBEB-4773-A275-A00E2BAA1791";
name = "Oct 8 20, 09:10";
paths = (
{
closed = 1;
nodes = (
"170 0 LINE",
"170 700 LINE",
"80 700 LINE",
"80 0 LINE"
);
},
{
closed = 1;
nodes = (
"260 266 LINE SMOOTH",
"314 266 OFFCURVE",
"352 235 OFFCURVE",
"366 200 CURVE SMOOTH",
"448 0 LINE",
"548 0 LINE",
"441 221 LINE SMOOTH",
"424 257 OFFCURVE",
"396 286 OFFCURVE",
"352 286 CURVE",
"352 306 LINE",
"447 306 OFFCURVE",
"510 384 OFFCURVE",
"510 500 CURVE SMOOTH",
"510 620 OFFCURVE",
"447 700 OFFCURVE",
"285 700 CURVE SMOOTH",
"110 700 LINE",
"110 629 LINE",
"260 630 LINE SMOOTH",
"356 631 OFFCURVE",
"420 595 OFFCURVE",
"420 500 CURVE SMOOTH",
"420 398 OFFCURVE",
"356 336 OFFCURVE",
"260 336 CURVE SMOOTH",
"110 336 LINE",
"110 266 LINE"
);
}
);
width = 600;
},
{
annotations = (
{
position = "{680.984, 159.055}";
type = Text;
}
);
associatedMasterId = "2BACE4BE-9FDB-4959-B9F6-A4D102DDF28D";
guideLines = (
{
position = "{440, 375}";
},
{
position = "{120, 336}";
}
);
layerId = "5704EB43-514C-4099-8949-037FB7AE7024";
name = "Oct 8 20, 09:10";
paths = (
{
closed = 1;
nodes = (
"170 0 LINE",
"170 700 LINE",
"80 700 LINE",
"80 0 LINE"
);
},
{
closed = 1;
nodes = (
"260 266 LINE SMOOTH",
"314 266 OFFCURVE",
"352 235 OFFCURVE",
"366 200 CURVE SMOOTH",
"448 0 LINE",
"548 0 LINE",
"441 221 LINE SMOOTH",
"424 257 OFFCURVE",
"396 286 OFFCURVE",
"352 286 CURVE",
"352 306 LINE",
"447 306 OFFCURVE",
"510 384 OFFCURVE",
"510 500 CURVE SMOOTH",
"510 620 OFFCURVE",
"447 700 OFFCURVE",
"285 700 CURVE SMOOTH",
"110 700 LINE",
"110 629 LINE",
"260 630 LINE SMOOTH",
"356 631 OFFCURVE",
"420 595 OFFCURVE",
"420 500 CURVE SMOOTH",
"420 398 OFFCURVE",
"356 336 OFFCURVE",
"260 336 CURVE SMOOTH",
"110 336 LINE",
"110 266 LINE"
);
}
);
width = 600;
},
{
anchors = (
{
name = bottom;
position = "{300, 0}";
},
{
name = top;
position = "{300, 700}";
}
);
layerId = "2BACE4BE-9FDB-4959-B9F6-A4D102DDF28D";
paths = (
{
closed = 1;
nodes = (
"554 0 LINE",
"447 226 LINE SMOOTH",
"430 262 OFFCURVE",
"398 291 OFFCURVE",
"354 291 CURVE",
"354 325 LINE",
"444 325 OFFCURVE",
"526 395 OFFCURVE",
"526 490 CURVE SMOOTH",
"526 596 OFFCURVE",
"451 700 OFFCURVE",
"298 700 CURVE SMOOTH",
"118 700 LINE",
"118 609 LINE",
"254 609 LINE SMOOTH",
"368 609 OFFCURVE",
"414 569 OFFCURVE",
"414 490 CURVE SMOOTH",
"414 397 OFFCURVE",
"350 355 OFFCURVE",
"254 355 CURVE SMOOTH",
"118 355 LINE",
"118 265 LINE",
"254 265 LINE SMOOTH",
"308 265 OFFCURVE",
"339 230 OFFCURVE",
"352 199 CURVE SMOOTH",
"434 0 LINE"
);
},
{
closed = 1;
nodes = (
"188 0 LINE",
"188 160 LINE",
"182 265 LINE",
"182 355 LINE",
"188 440 LINE",
"188 504 LINE",
"182 609 LINE",
"182 700 LINE",
"78 700 LINE",
"78 0 LINE"
);
}
);
width = 600;
},
{
anchors = (
{
name = bottom;
position = "{300, 0}";
},
{
name = top;
position = "{300, 700}";
}
);
annotations = (
{
position = "{680.984, 159.055}";
type = Text;
}
);
associatedMasterId = "2BACE4BE-9FDB-4959-B9F6-A4D102DDF28D";
layerId = "2040774C-6237-46ED-B03B-A7FB68415EFA";
name = "Dec 15 20, 13:49";
paths = (
{
closed = 1;
nodes = (
"170 0 LINE",
"170 700 LINE",
"80 700 LINE",
"80 0 LINE"
);
},
{
closed = 1;
nodes = (
"262 275 LINE SMOOTH",
"316 275 OFFCURVE",
"354 244 OFFCURVE",
"368 209 CURVE SMOOTH",
"450 0 LINE",
"550 0 LINE",
"443 230 LINE SMOOTH",
"426 266 OFFCURVE",
"398 295 OFFCURVE",
"354 295 CURVE",
"354 325 LINE",
"449 325 OFFCURVE",
"512 393 OFFCURVE",
"512 500 CURVE SMOOTH",
"512 614 OFFCURVE",
"440 700 OFFCURVE",
"287 700 CURVE SMOOTH",
"110 700 LINE",
"110 629 LINE",
"262 630 LINE SMOOTH",
"376 631 OFFCURVE",
"422 579 OFFCURVE",
"422 500 CURVE SMOOTH",
"422 407 OFFCURVE",
"358 345 OFFCURVE",
"262 345 CURVE SMOOTH",
"110 345 LINE",
"110 275 LINE"
);
}
);
width = 600;
},
{
anchors = (
{
name = bottom;
position = "{300, 0}";
},
{
name = top;
position = "{300, 700}";
}
);
layerId = "9236AB30-8BE3-474D-8AE7-4C3A4AE1933A";
paths = (
{
closed = 1;
nodes = (
"556 0 LINE",
"449 224 LINE SMOOTH",
"432 260 OFFCURVE",
"398 289 OFFCURVE",
"354 289 CURVE",
"354 325 LINE",
"442 325 OFFCURVE",
"533 396 OFFCURVE",
"533 485 CURVE SMOOTH",
"533 587 OFFCURVE",
"457 700 OFFCURVE",
"304 700 CURVE SMOOTH",
"122 700 LINE",
"122 599 LINE",
"250 599 LINE SMOOTH",
"364 599 OFFCURVE",
"410 564 OFFCURVE",
"410 485 CURVE SMOOTH",
"410 392 OFFCURVE",
"346 360 OFFCURVE",
"250 360 CURVE SMOOTH",
"122 360 LINE",
"122 260 LINE",
"250 260 LINE SMOOTH",
"304 260 OFFCURVE",
"331 224 OFFCURVE",
"344 194 CURVE SMOOTH",
"426 0 LINE"
);
},
{
closed = 1;
nodes = (
"192 0 LINE",
"192 155 LINE",
"186 260 LINE",
"186 360 LINE",
"192 445 LINE",
"192 494 LINE",
"186 599 LINE",
"186 700 LINE",
"72 700 LINE",
"72 0 LINE"
);
}
);
width = 600;
}
);
unicode = 0052;
},
{
glyphname = S;
lastChange = "2025-06-02 10:16:51 +0000";
layers = (
{
anchors = (
{
name = bottom;
position = "{300, 0}";
},
{
name = top;
position = "{300, 700}";
}
);
annotations = (
{
position = "{337.867, 785.073}";
text = "do not touch the S";
type = Text;
}
);
guideLines = (
{
position = "{0, -10}";
},
{
angle = 90;
position = "{80, 208}";
}
);
layerId = "4C71D2F8-8800-4A35-9F40-3E8E498F68F0";
paths = (
{
closed = 1;
nodes = (
"448 -10 OFFCURVE",
"518 82 OFFCURVE",
"518 196 CURVE SMOOTH",
"518 295 OFFCURVE",
"454 367 OFFCURVE",
"355 391 CURVE SMOOTH",
"267 412 LINE SMOOTH",
"193 430 OFFCURVE",
"167 470 OFFCURVE",
"167 517 CURVE SMOOTH",
"167 591 OFFCURVE",
"234 640 OFFCURVE",
"300 640 CURVE SMOOTH",
"367 640 OFFCURVE",
"427 598 OFFCURVE",
"423 500 CURVE",
"515 500 LINE",
"519 646 OFFCURVE",
"409 710 OFFCURVE",
"301 710 CURVE SMOOTH",
"184 710 OFFCURVE",
"82 633 OFFCURVE",
"82 512 CURVE SMOOTH",
"82 419 OFFCURVE",
"146 348 OFFCURVE",
"234 327 CURVE SMOOTH",
"322 306 LINE SMOOTH",
"386 291 OFFCURVE",
"433 251 OFFCURVE",
"433 190 CURVE SMOOTH",
"433 124 OFFCURVE",
"378 65 OFFCURVE",
"303 65 CURVE SMOOTH",
"215 65 OFFCURVE",
"164 114 OFFCURVE",
"174 208 CURVE",
"82 208 LINE",
"64 82 OFFCURVE",
"158 -10 OFFCURVE",
"303 -10 CURVE SMOOTH"
);
}
);
width = 600;
},
{
anchors = (
{
name = bottom;
position = "{300, 0}";
},
{
name = top;
position = "{300, 700}";
}
);
annotations = (
{
position = "{337.867, 785.073}";
text = "do not touch the S";
type = Text;
}
);
associatedMasterId = "4C71D2F8-8800-4A35-9F40-3E8E498F68F0";
guideLines = (
{
position = "{0, -10}";
},
{
angle = 90;
position = "{80, 208}";
},
{
angle = 90;
position = "{303, 65}";
},
{
angle = 90;
position = "{520, 186}";
}
);
layerId = "65BBC3F3-8BC4-4EB4-A8AB-F72E203FBF98";
name = "Dec 15 20, 10:43";
paths = (
{
closed = 1;
nodes = (
"64 82 OFFCURVE",
"158 -10 OFFCURVE",
"303 -10 CURVE SMOOTH",
"448 -10 OFFCURVE",
"520 82 OFFCURVE",
"520 196 CURVE SMOOTH",
"520 295 OFFCURVE",
"454 367 OFFCURVE",
"355 391 CURVE SMOOTH",
"267 412 LINE SMOOTH",
"193 430 OFFCURVE",
"172 470 OFFCURVE",
"172 517 CURVE SMOOTH",
"172 591 OFFCURVE",
"234 640 OFFCURVE",
"300 640 CURVE SMOOTH",
"367 640 OFFCURVE",
"427 598 OFFCURVE",
"423 500 CURVE",
"515 500 LINE",
"519 646 OFFCURVE",
"409 710 OFFCURVE",
"301 710 CURVE SMOOTH",
"184 710 OFFCURVE",
"82 633 OFFCURVE",
"82 512 CURVE SMOOTH",
"82 419 OFFCURVE",
"146 349 OFFCURVE",
"234 328 CURVE SMOOTH",
"322 307 LINE SMOOTH",
"386 292 OFFCURVE",
"428 251 OFFCURVE",
"428 190 CURVE SMOOTH",
"428 124 OFFCURVE",
"378 65 OFFCURVE",
"303 65 CURVE SMOOTH",
"215 65 OFFCURVE",
"164 114 OFFCURVE",
"174 208 CURVE",
"82 208 LINE"
);
}
);
width = 600;
},
{
anchors = (
{
name = bottom;
position = "{300, 0}";
},
{
name = top;
position = "{300, 700}";
}
);
annotations = (
{
position = "{337.867, 785.073}";
text = "do not touch the S";
type = Text;
},
{
position = "{-18.966, 325.81}";
text = "tiping backwards!";
type = Text;
}
);
guideLines = (
{
position = "{0, -10}";
},
{
angle = 90;
position = "{80, 208}";
}
);
layerId = "2BACE4BE-9FDB-4959-B9F6-A4D102DDF28D";
paths = (
{
closed = 1;
nodes = (
"460 -10 OFFCURVE",
"540 77 OFFCURVE",
"540 191 CURVE SMOOTH",
"540 290 OFFCURVE",
"487 360 OFFCURVE",
"360 395 CURVE SMOOTH",
"274 419 LINE SMOOTH",
"200 440 OFFCURVE",
"179 474 OFFCURVE",
"179 517 CURVE SMOOTH",
"179 591 OFFCURVE",
"246 620 OFFCURVE",
"303 620 CURVE SMOOTH",
"382 620 OFFCURVE",
"422 590 OFFCURVE",
"418 492 CURVE",
"530 492 LINE",
"534 638 OFFCURVE",
"424 710 OFFCURVE",
"304 710 CURVE SMOOTH",
"169 710 OFFCURVE",
"67 633 OFFCURVE",
"67 512 CURVE SMOOTH",
"67 419 OFFCURVE",
"127 348 OFFCURVE",
"223 320 CURVE SMOOTH",
"327 290 LINE SMOOTH",
"394 271 OFFCURVE",
"428 246 OFFCURVE",
"428 185 CURVE SMOOTH",
"428 114 OFFCURVE",
"378 85 OFFCURVE",
"296 85 CURVE SMOOTH",
"215 85 OFFCURVE",
"164 114 OFFCURVE",
"174 208 CURVE",
"62 208 LINE",
"44 82 OFFCURVE",
"148 -10 OFFCURVE",
"306 -10 CURVE SMOOTH"
);
}
);
width = 600;
},
{
anchors = (
{
name = bottom;
position = "{300, 0}";
},
{
name = top;
position = "{300, 700}";
}
);
annotations = (
{
position = "{337.867, 785.073}";
text = "do not touch the S";
type = Text;
}
);
associatedMasterId = "2BACE4BE-9FDB-4959-B9F6-A4D102DDF28D";
guideLines = (
{
position = "{0, -10}";
},
{
angle = 90;
position = "{80, 208}";
},
{
angle = 90;
position = "{303, 65}";
},
{
angle = 90;
position = "{520, 186}";
}
);
layerId = "95F1E171-4C38-45E8-8D95-1B2CE212817D";
name = "Dec 15 20, 10:43";
paths = (
{
closed = 1;
nodes = (
"64 82 OFFCURVE",
"158 -10 OFFCURVE",
"303 -10 CURVE SMOOTH",
"448 -10 OFFCURVE",
"520 82 OFFCURVE",
"520 196 CURVE SMOOTH",
"520 295 OFFCURVE",
"454 367 OFFCURVE",
"355 391 CURVE SMOOTH",
"267 412 LINE SMOOTH",
"193 430 OFFCURVE",
"172 470 OFFCURVE",
"172 517 CURVE SMOOTH",
"172 591 OFFCURVE",
"234 640 OFFCURVE",
"300 640 CURVE SMOOTH",
"367 640 OFFCURVE",
"427 598 OFFCURVE",
"423 500 CURVE",
"515 500 LINE",
"519 646 OFFCURVE",
"409 710 OFFCURVE",
"301 710 CURVE SMOOTH",
"184 710 OFFCURVE",
"82 633 OFFCURVE",
"82 512 CURVE SMOOTH",
"82 419 OFFCURVE",
"146 349 OFFCURVE",
"234 328 CURVE SMOOTH",
"322 307 LINE SMOOTH",
"386 292 OFFCURVE",
"428 251 OFFCURVE",
"428 190 CURVE SMOOTH",
"428 124 OFFCURVE",
"378 65 OFFCURVE",
"303 65 CURVE SMOOTH",
"215 65 OFFCURVE",
"164 114 OFFCURVE",
"174 208 CURVE",
"82 208 LINE"
);
}
);
width = 600;
},
{
anchors = (
{
name = bottom;
position = "{300, 0}";
},
{
name = top;
position = "{300, 700}";
}
);
annotations = (
{
position = "{337.867, 785.073}";
text = "do not touch the S";
type = Text;
},
{
position = "{-18.966, 325.81}";
text = "tiping backwards!";
type = Text;
}
);
associatedMasterId = "2BACE4BE-9FDB-4959-B9F6-A4D102DDF28D";
guideLines = (
{
position = "{0, -10}";
},
{
angle = 90;
position = "{80, 208}";
}
);
layerId = "9AC2EDA3-23C7-45A3-9C23-2A91992A9EB9";
name = "30 déc. 21 à 18:18";
paths = (
{
closed = 1;
nodes = (
"458 -10 OFFCURVE",
"528 82 OFFCURVE",
"528 196 CURVE SMOOTH",
"528 295 OFFCURVE",
"460 369 OFFCURVE",
"348 400 CURVE SMOOTH",
"279 419 LINE SMOOTH",
"206 439 OFFCURVE",
"184 470 OFFCURVE",
"184 517 CURVE SMOOTH",
"184 591 OFFCURVE",
"251 620 OFFCURVE",
"303 620 CURVE SMOOTH",
"370 620 OFFCURVE",
"410 590 OFFCURVE",
"406 492 CURVE",
"518 492 LINE",
"522 638 OFFCURVE",
"412 710 OFFCURVE",
"304 710 CURVE SMOOTH",
"174 710 OFFCURVE",
"72 633 OFFCURVE",
"72 512 CURVE SMOOTH",
"72 419 OFFCURVE",
"140 351 OFFCURVE",
"228 326 CURVE SMOOTH",
"315 301 LINE SMOOTH",
"379 283 OFFCURVE",
"416 251 OFFCURVE",
"416 190 CURVE SMOOTH",
"416 124 OFFCURVE",
"371 85 OFFCURVE",
"296 85 CURVE SMOOTH",
"228 85 OFFCURVE",
"177 114 OFFCURVE",
"187 208 CURVE",
"75 208 LINE",
"57 82 OFFCURVE",
"161 -10 OFFCURVE",
"306 -10 CURVE SMOOTH"
);
}
);
width = 600;
},
{
anchors = (
{
name = bottom;
position = "{300, 0}";
},
{
name = top;
position = "{300, 700}";
}
);
annotations = (
{
position = "{337.867, 785.073}";
text = "do not touch the S";
type = Text;
},
{
position = "{-18.966, 325.81}";
text = "tiping backwards!";
type = Text;
}
);
associatedMasterId = "2BACE4BE-9FDB-4959-B9F6-A4D102DDF28D";
guideLines = (
{
position = "{0, -10}";
},
{
angle = 90;
position = "{80, 208}";
}
);
layerId = "93C4E9F8-8D96-4BB1-B1F6-491817BEF129";
name = "30 déc. 21 à 18:20";
paths = (
{
closed = 1;
nodes = (
"458 -10 OFFCURVE",
"528 77 OFFCURVE",
"528 191 CURVE SMOOTH",
"528 290 OFFCURVE",
"458 357 OFFCURVE",
"348 395 CURVE SMOOTH",
"279 419 LINE SMOOTH",
"206 444 OFFCURVE",
"184 470 OFFCURVE",
"184 517 CURVE SMOOTH",
"184 591 OFFCURVE",
"251 620 OFFCURVE",
"303 620 CURVE SMOOTH",
"370 620 OFFCURVE",
"410 590 OFFCURVE",
"406 492 CURVE",
"518 492 LINE",
"522 638 OFFCURVE",
"412 710 OFFCURVE",
"304 710 CURVE SMOOTH",
"174 710 OFFCURVE",
"72 633 OFFCURVE",
"72 512 CURVE SMOOTH",
"72 419 OFFCURVE",
"140 356 OFFCURVE",
"228 326 CURVE SMOOTH",
"315 296 LINE SMOOTH",
"380 274 OFFCURVE",
"416 246 OFFCURVE",
"416 185 CURVE SMOOTH",
"416 119 OFFCURVE",
"371 85 OFFCURVE",
"296 85 CURVE SMOOTH",
"228 85 OFFCURVE",
"177 114 OFFCURVE",
"187 208 CURVE",
"75 208 LINE",
"57 82 OFFCURVE",
"161 -10 OFFCURVE",
"306 -10 CURVE SMOOTH"
);
}
);
width = 600;
},
{
anchors = (
{
name = bottom;
position = "{300, 0}";
},
{
name = top;
position = "{300, 700}";
}
);
annotations = (
{
position = "{337.867, 785.073}";
text = "do not touch the S";
type = Text;
},
{
position = "{-18.966, 325.81}";
text = "tiping backwards!";
type = Text;
}
);
associatedMasterId = "2BACE4BE-9FDB-4959-B9F6-A4D102DDF28D";
guideLines = (
{
position = "{0, -10}";
},
{
angle = 90;
position = "{80, 208}";
}
);
layerId = "B642DFE6-AFDA-4AC5-8857-54D710532909";
name = "31 déc. 21 à 09:50";
paths = (
{
closed = 1;
nodes = (
"458 -10 OFFCURVE",
"528 77 OFFCURVE",
"528 191 CURVE SMOOTH",
"528 290 OFFCURVE",
"458 352 OFFCURVE",
"348 395 CURVE SMOOTH",
"287 419 LINE SMOOTH",
"215 447 OFFCURVE",
"192 474 OFFCURVE",
"192 517 CURVE SMOOTH",
"192 591 OFFCURVE",
"259 620 OFFCURVE",
"303 620 CURVE SMOOTH",
"370 620 OFFCURVE",
"410 590 OFFCURVE",
"406 492 CURVE",
"518 492 LINE",
"522 638 OFFCURVE",
"412 710 OFFCURVE",
"304 710 CURVE SMOOTH",
"182 710 OFFCURVE",
"80 633 OFFCURVE",
"80 512 CURVE SMOOTH",
"80 419 OFFCURVE",
"148 359 OFFCURVE",
"236 326 CURVE SMOOTH",
"315 296 LINE SMOOTH",
"380 271 OFFCURVE",
"416 246 OFFCURVE",
"416 185 CURVE SMOOTH",
"416 119 OFFCURVE",
"371 85 OFFCURVE",
"296 85 CURVE SMOOTH",
"228 85 OFFCURVE",
"177 114 OFFCURVE",
"187 208 CURVE",
"75 208 LINE",
"57 82 OFFCURVE",
"161 -10 OFFCURVE",
"306 -10 CURVE SMOOTH"
);
}
);
width = 600;
},
{
anchors = (
{
name = bottom;
position = "{300, 0}";
},
{
name = top;
position = "{300, 700}";
}
);
annotations = (
{
position = "{337.867, 785.073}";
text = "do not touch the S";
type = Text;
},
{
position = "{-18.966, 325.81}";
text = "tiping backwards!";
type = Text;
}
);
associatedMasterId = "2BACE4BE-9FDB-4959-B9F6-A4D102DDF28D";
guideLines = (
{
position = "{0, -10}";
},
{
angle = 90;
position = "{80, 208}";
}
);
layerId = "0542A6EE-6D60-4C72-9802-6E73D7400C57";
name = "14 déc. 23 à 09:14";
paths = (
{
closed = 1;
nodes = (
"460 -10 OFFCURVE",
"540 77 OFFCURVE",
"540 191 CURVE SMOOTH",
"540 290 OFFCURVE",
"487 360 OFFCURVE",
"360 395 CURVE SMOOTH",
"274 419 LINE SMOOTH",
"200 440 OFFCURVE",
"179 474 OFFCURVE",
"179 517 CURVE SMOOTH",
"179 591 OFFCURVE",
"246 620 OFFCURVE",
"303 620 CURVE SMOOTH",
"382 620 OFFCURVE",
"422 590 OFFCURVE",
"418 492 CURVE",
"530 492 LINE",
"534 638 OFFCURVE",
"424 710 OFFCURVE",
"304 710 CURVE SMOOTH",
"169 710 OFFCURVE",
"67 633 OFFCURVE",
"67 512 CURVE SMOOTH",
"67 419 OFFCURVE",
"127 354 OFFCURVE",
"223 326 CURVE SMOOTH",
"327 296 LINE SMOOTH",
"394 277 OFFCURVE",
"428 246 OFFCURVE",
"428 185 CURVE SMOOTH",
"428 114 OFFCURVE",
"378 85 OFFCURVE",
"296 85 CURVE SMOOTH",
"215 85 OFFCURVE",
"164 114 OFFCURVE",
"174 208 CURVE",
"62 208 LINE",
"44 82 OFFCURVE",
"148 -10 OFFCURVE",
"306 -10 CURVE SMOOTH"
);
}
);
width = 600;
},
{
anchors = (
{
name = bottom;
position = "{300, 0}";
},
{
name = top;
position = "{300, 700}";
}
);
layerId = "9236AB30-8BE3-474D-8AE7-4C3A4AE1933A";
paths = (
{
closed = 1;
nodes = (
"453 -10 OFFCURVE",
"545 75 OFFCURVE",
"545 189 CURVE SMOOTH",
"545 289 OFFCURVE",
"497 358 OFFCURVE",
"368 397 CURVE SMOOTH",
"283 423 LINE SMOOTH",
"209 445 OFFCURVE",
"190 476 OFFCURVE",
"190 517 CURVE SMOOTH",
"190 591 OFFCURVE",
"257 610 OFFCURVE",
"310 610 CURVE SMOOTH",
"370 610 OFFCURVE",
"425 586 OFFCURVE",
"421 488 CURVE",
"543 488 LINE",
"547 635 OFFCURVE",
"437 710 OFFCURVE",
"311 710 CURVE SMOOTH",
"167 710 OFFCURVE",
"65 633 OFFCURVE",
"65 512 CURVE SMOOTH",
"64 418 OFFCURVE",
"123 348 OFFCURVE",
"223 317 CURVE SMOOTH",
"335 282 LINE SMOOTH",
"393 264 OFFCURVE",
"421 244 OFFCURVE",
"420 183 CURVE SMOOTH",
"419 130 OFFCURVE",
"397 95 OFFCURVE",
"306 95 CURVE SMOOTH",
"232 95 OFFCURVE",
"169 128 OFFCURVE",
"179 208 CURVE",
"57 208 LINE",
"39 82 OFFCURVE",
"141 -10 OFFCURVE",
"306 -10 CURVE SMOOTH"
);
}
);
width = 600;
}
);
unicode = 0053;
},
{
glyphname = Germandbls;
lastChange = "2025-06-02 13:26:51 +0000";
layers = (
{
guideLines = (
{
position = "{180, 535}";
},
{
position = "{174, 640}";
},
{
angle = 90;
position = "{275, 70}";
},
{
position = "{342, 414}";
}
);
layerId = "4C71D2F8-8800-4A35-9F40-3E8E498F68F0";
paths = (
{
closed = 1;
nodes = (
"313 0 LINE SMOOTH",
"467 0 OFFCURVE",
"540 101 OFFCURVE",
"540 206 CURVE SMOOTH",
"540 306 OFFCURVE",
"474 383 OFFCURVE",
"342 384 CURVE",
"342 414 LINE",
"360 414 OFFCURVE",
"380 424 OFFCURVE",
"413 469 CURVE SMOOTH",
"510 600 LINE",
"510 700 LINE",
"275 700 LINE",
"275 630 LINE",
"435 630 LINE",
"275 422 LINE",
"275 355 LINE",
"394 355 OFFCURVE",
"449 283 OFFCURVE",
"449 206 CURVE SMOOTH",
"449 136 OFFCURVE",
"404 70 OFFCURVE",
"313 70 CURVE SMOOTH",
"275 70 LINE",
"275 0 LINE"
);
},
{
closed = 1;
nodes = (
"160 0 LINE",
"160 422 LINE",
"70 422 LINE",
"70 0 LINE"
);
},
{
closed = 1;
nodes = (
"160 422 LINE",
"160 560 OFFCURVE",
"203 630 OFFCURVE",
"275 630 CURVE",
"275 700 LINE",
"115 700 OFFCURVE",
"70 575 OFFCURVE",
"70 422 CURVE"
);
}
);
width = 600;
},
{
associatedMasterId = "4C71D2F8-8800-4A35-9F40-3E8E498F68F0";
layerId = "B59CFF75-B08C-4B5E-8BDB-6767C7FE812F";
name = "Sep 14 21, 15:25";
paths = (
{
closed = 1;
nodes = (
"310 0 LINE",
"463 0 OFFCURVE",
"535 107 OFFCURVE",
"535 211 CURVE SMOOTH",
"535 294 OFFCURVE",
"480 375 OFFCURVE",
"377 375 CURVE",
"285 355 LINE",
"393 355 OFFCURVE",
"445 285 OFFCURVE",
"445 211 CURVE SMOOTH",
"445 142 OFFCURVE",
"399 67 OFFCURVE",
"285 70 CURVE",
"285 0 LINE"
);
},
{
closed = 1;
nodes = (
"170 0 LINE",
"170 442 LINE",
"80 442 LINE",
"80 0 LINE"
);
},
{
closed = 0;
nodes = (
"271 433 LINE"
);
},
{
closed = 1;
nodes = (
"170 442 LINE",
"170 580 OFFCURVE",
"218 630 OFFCURVE",
"290 630 CURVE",
"290 700 LINE",
"130 700 OFFCURVE",
"80 595 OFFCURVE",
"80 442 CURVE"
);
},
{
closed = 1;
nodes = (
"293 375 LINE",
"339 375 OFFCURVE",
"372 390 OFFCURVE",
"393 436 CURVE SMOOTH",
"515 700 LINE",
"415 700 LINE",
"324 462 LINE SMOOTH",
"308 420 OFFCURVE",
"274 395 OFFCURVE",
"251 395 CURVE",
"293 345 LINE"
);
},
{
closed = 1;
nodes = (
"453 630 LINE",
"453 700 LINE",
"290 700 LINE",
"290 630 LINE"
);
}
);
width = 600;
},
{
associatedMasterId = "4C71D2F8-8800-4A35-9F40-3E8E498F68F0";
guideLines = (
{
position = "{180, 535}";
},
{
position = "{174, 640}";
}
);
layerId = "FA4FF0EF-8228-40A7-B3E6-A1AF15BA53E9";
name = "Sep 15 21, 08:46";
paths = (
{
closed = 1;
nodes = (
"310 0 LINE",
"463 0 OFFCURVE",
"535 107 OFFCURVE",
"535 211 CURVE SMOOTH",
"535 294 OFFCURVE",
"480 375 OFFCURVE",
"377 375 CURVE",
"285 355 LINE",
"393 355 OFFCURVE",
"445 285 OFFCURVE",
"445 211 CURVE SMOOTH",
"445 142 OFFCURVE",
"399 67 OFFCURVE",
"285 70 CURVE",
"285 0 LINE"
);
},
{
closed = 1;
nodes = (
"170 0 LINE",
"170 442 LINE",
"80 442 LINE",
"80 0 LINE"
);
},
{
closed = 1;
nodes = (
"170 442 LINE",
"170 580 OFFCURVE",
"218 630 OFFCURVE",
"290 630 CURVE",
"290 700 LINE",
"130 700 OFFCURVE",
"80 595 OFFCURVE",
"80 442 CURVE"
);
},
{
closed = 1;
nodes = (
"293 375 LINE",
"393 436 LINE",
"515 700 LINE",
"415 700 LINE",
"398 640 LINE",
"352 535 LINE",
"308 420 LINE"
);
},
{
closed = 1;
nodes = (
"453 630 LINE",
"453 700 LINE",
"290 700 LINE",
"290 630 LINE"
);
}
);
width = 600;
},
{
associatedMasterId = "4C71D2F8-8800-4A35-9F40-3E8E498F68F0";
guideLines = (
{
position = "{180, 535}";
},
{
position = "{174, 640}";
},
{
angle = 90;
position = "{275, 70}";
},
{
position = "{342, 414}";
}
);
layerId = "0A98D5D9-5003-46AC-A44C-F9954B2021DB";
name = "Sep 21 21, 13:58";
paths = (
{
closed = 1;
nodes = (
"160 0 LINE",
"160 422 LINE",
"70 422 LINE",
"70 0 LINE"
);
},
{
closed = 1;
nodes = (
"160 422 LINE",
"160 560 OFFCURVE",
"203 630 OFFCURVE",
"275 630 CURVE",
"275 700 LINE",
"115 700 OFFCURVE",
"70 575 OFFCURVE",
"70 422 CURVE"
);
},
{
closed = 1;
nodes = (
"332 355 LINE",
"332 414 LINE",
"350 414 OFFCURVE",
"368 427 OFFCURVE",
"403 469 CURVE SMOOTH",
"510 600 LINE",
"510 700 LINE",
"275 700 LINE",
"275 630 LINE",
"433 630 LINE",
"265 425 LINE",
"265 355 LINE"
);
},
{
closed = 1;
nodes = (
"465 0 OFFCURVE",
"540 100 OFFCURVE",
"540 198 CURVE SMOOTH",
"540 291 OFFCURVE",
"473 383 OFFCURVE",
"332 384 CURVE",
"332 414 LINE",
"265 355 LINE",
"393 355 OFFCURVE",
"450 278 OFFCURVE",
"450 205 CURVE SMOOTH",
"450 139 OFFCURVE",
"403 75 OFFCURVE",
"303 75 CURVE SMOOTH",
"265 75 LINE",
"265 0 LINE",
"303 0 LINE SMOOTH"
);
}
);
width = 600;
},
{
guideLines = (
{
position = "{180, 535}";
},
{
position = "{174, 640}";
},
{
angle = 90;
position = "{275, 70}";
},
{
position = "{342, 414}";
}
);
layerId = "2BACE4BE-9FDB-4959-B9F6-A4D102DDF28D";
paths = (
{
closed = 1;
nodes = (
"313 0 LINE SMOOTH",
"467 0 OFFCURVE",
"540 101 OFFCURVE",
"540 206 CURVE SMOOTH",
"540 306 OFFCURVE",
"474 379 OFFCURVE",
"342 380 CURVE",
"342 414 LINE",
"360 414 OFFCURVE",
"381 422 OFFCURVE",
"413 459 CURVE SMOOTH",
"510 570 LINE",
"510 700 LINE",
"275 700 LINE",
"275 610 LINE",
"433 610 LINE",
"265 429 LINE",
"265 339 LINE",
"394 339 OFFCURVE",
"439 276 OFFCURVE",
"439 206 CURVE SMOOTH",
"439 136 OFFCURVE",
"404 95 OFFCURVE",
"313 95 CURVE SMOOTH",
"265 95 LINE",
"265 0 LINE"
);
},
{
closed = 1;
nodes = (
"170 0 LINE",
"170 422 LINE",
"60 422 LINE",
"60 0 LINE"
);
},
{
closed = 1;
nodes = (
"170 422 LINE",
"170 560 OFFCURVE",
"208 610 OFFCURVE",
"275 610 CURVE",
"275 700 LINE",
"130 700 OFFCURVE",
"60 597 OFFCURVE",
"60 422 CURVE"
);
}
);
width = 600;
},
{
associatedMasterId = "2BACE4BE-9FDB-4959-B9F6-A4D102DDF28D";
layerId = "51A33F43-BF01-4C65-8558-4831369B9F73";
name = "Sep 14 21, 15:25";
paths = (
{
closed = 1;
nodes = (
"310 0 LINE",
"463 0 OFFCURVE",
"535 107 OFFCURVE",
"535 211 CURVE SMOOTH",
"535 294 OFFCURVE",
"480 375 OFFCURVE",
"377 375 CURVE",
"285 355 LINE",
"393 355 OFFCURVE",
"445 285 OFFCURVE",
"445 211 CURVE SMOOTH",
"445 142 OFFCURVE",
"399 67 OFFCURVE",
"285 70 CURVE",
"285 0 LINE"
);
},
{
closed = 1;
nodes = (
"170 0 LINE",
"170 442 LINE",
"80 442 LINE",
"80 0 LINE"
);
},
{
closed = 0;
nodes = (
"271 433 LINE"
);
},
{
closed = 1;
nodes = (
"170 442 LINE",
"170 580 OFFCURVE",
"218 630 OFFCURVE",
"290 630 CURVE",
"290 700 LINE",
"130 700 OFFCURVE",
"80 595 OFFCURVE",
"80 442 CURVE"
);
},
{
closed = 1;
nodes = (
"293 375 LINE",
"339 375 OFFCURVE",
"372 390 OFFCURVE",
"393 436 CURVE SMOOTH",
"515 700 LINE",
"415 700 LINE",
"324 462 LINE SMOOTH",
"308 420 OFFCURVE",
"274 395 OFFCURVE",
"251 395 CURVE",
"293 345 LINE"
);
},
{
closed = 1;
nodes = (
"453 630 LINE",
"453 700 LINE",
"290 700 LINE",
"290 630 LINE"
);
}
);
width = 600;
},
{
associatedMasterId = "2BACE4BE-9FDB-4959-B9F6-A4D102DDF28D";
guideLines = (
{
position = "{180, 535}";
},
{
position = "{174, 640}";
}
);
layerId = "3FCEB240-39F0-4314-8CC5-F1270FDA3F3D";
name = "Sep 15 21, 08:46";
paths = (
{
closed = 1;
nodes = (
"310 0 LINE",
"463 0 OFFCURVE",
"535 107 OFFCURVE",
"535 211 CURVE SMOOTH",
"535 294 OFFCURVE",
"480 375 OFFCURVE",
"377 375 CURVE",
"285 355 LINE",
"393 355 OFFCURVE",
"445 285 OFFCURVE",
"445 211 CURVE SMOOTH",
"445 142 OFFCURVE",
"399 67 OFFCURVE",
"285 70 CURVE",
"285 0 LINE"
);
},
{
closed = 1;
nodes = (
"170 0 LINE",
"170 442 LINE",
"80 442 LINE",
"80 0 LINE"
);
},
{
closed = 1;
nodes = (
"170 442 LINE",
"170 580 OFFCURVE",
"218 630 OFFCURVE",
"290 630 CURVE",
"290 700 LINE",
"130 700 OFFCURVE",
"80 595 OFFCURVE",
"80 442 CURVE"
);
},
{
closed = 1;
nodes = (
"293 375 LINE",
"393 436 LINE",
"515 700 LINE",
"415 700 LINE",
"398 640 LINE",
"352 535 LINE",
"308 420 LINE"
);
},
{
closed = 1;
nodes = (
"453 630 LINE",
"453 700 LINE",
"290 700 LINE",
"290 630 LINE"
);
}
);
width = 600;
},
{
associatedMasterId = "2BACE4BE-9FDB-4959-B9F6-A4D102DDF28D";
guideLines = (
{
position = "{180, 535}";
},
{
position = "{174, 640}";
},
{
angle = 90;
position = "{275, 70}";
},
{
position = "{342, 414}";
}
);
layerId = "72C6483B-5F1A-4EE5-9202-6F1820E1F494";
name = "Sep 21 21, 13:58";
paths = (
{
closed = 1;
nodes = (
"160 0 LINE",
"160 422 LINE",
"70 422 LINE",
"70 0 LINE"
);
},
{
closed = 1;
nodes = (
"160 422 LINE",
"160 560 OFFCURVE",
"203 630 OFFCURVE",
"275 630 CURVE",
"275 700 LINE",
"115 700 OFFCURVE",
"70 575 OFFCURVE",
"70 422 CURVE"
);
},
{
closed = 1;
nodes = (
"332 355 LINE",
"332 414 LINE",
"350 414 OFFCURVE",
"368 427 OFFCURVE",
"403 469 CURVE SMOOTH",
"510 600 LINE",
"510 700 LINE",
"275 700 LINE",
"275 630 LINE",
"433 630 LINE",
"265 425 LINE",
"265 355 LINE"
);
},
{
closed = 1;
nodes = (
"465 0 OFFCURVE",
"540 100 OFFCURVE",
"540 198 CURVE SMOOTH",
"540 291 OFFCURVE",
"473 383 OFFCURVE",
"332 384 CURVE",
"332 414 LINE",
"265 355 LINE",
"393 355 OFFCURVE",
"450 278 OFFCURVE",
"450 205 CURVE SMOOTH",
"450 139 OFFCURVE",
"403 75 OFFCURVE",
"303 75 CURVE SMOOTH",
"265 75 LINE",
"265 0 LINE",
"303 0 LINE SMOOTH"
);
}
);
width = 600;
},
{
layerId = "9236AB30-8BE3-474D-8AE7-4C3A4AE1933A";
paths = (
{
closed = 1;
nodes = (
"313 0 LINE SMOOTH",
"467 0 OFFCURVE",
"540 101 OFFCURVE",
"540 206 CURVE SMOOTH",
"540 306 OFFCURVE",
"474 377 OFFCURVE",
"342 378 CURVE",
"342 414 LINE",
"370 414 OFFCURVE",
"391 424 OFFCURVE",
"414 448 CURVE SMOOTH",
"510 550 LINE",
"510 700 LINE",
"275 700 LINE",
"275 600 LINE",
"432 600 LINE",
"260 433 LINE",
"260 331 LINE",
"394 331 OFFCURVE",
"434 273 OFFCURVE",
"434 206 CURVE SMOOTH",
"434 136 OFFCURVE",
"404 108 OFFCURVE",
"313 108 CURVE SMOOTH",
"260 108 LINE",
"260 0 LINE"
);
},
{
closed = 1;
nodes = (
"175 0 LINE",
"175 422 LINE",
"55 422 LINE",
"55 0 LINE"
);
},
{
closed = 1;
nodes = (
"175 422 LINE",
"175 560 OFFCURVE",
"211 600 OFFCURVE",
"275 600 CURVE",
"275 700 LINE",
"138 700 OFFCURVE",
"55 608 OFFCURVE",
"55 422 CURVE"
);
}
);
width = 600;
}
);
unicode = 1E9E;
},
{
glyphname = T;
lastChange = "2025-06-02 10:30:27 +0000";
layers = (
{
anchors = (
{
name = bottom;
position = "{300, 0}";
},
{
name = center;
position = "{300, 350}";
},
{
name = top;
position = "{300, 700}";
}
);
layerId = "4C71D2F8-8800-4A35-9F40-3E8E498F68F0";
paths = (
{
closed = 1;
nodes = (
"345 0 LINE",
"345 524 LINE",
"339 629 LINE",
"339 700 LINE",
"261 700 LINE",
"261 629 LINE",
"255 524 LINE",
"255 0 LINE"
);
},
{
closed = 1;
nodes = (
"530 630 LINE",
"530 700 LINE",
"70 700 LINE",
"70 630 LINE"
);
}
);
width = 600;
},
{
anchors = (
{
name = bottom;
position = "{300, 0}";
},
{
name = center;
position = "{300, 350}";
},
{
name = top;
position = "{300, 700}";
}
);
associatedMasterId = "4C71D2F8-8800-4A35-9F40-3E8E498F68F0";
layerId = "EE799BD1-1FE0-46DE-B3CA-5BB3E16E1D75";
name = "Dec 15 20, 13:52";
paths = (
{
closed = 1;
nodes = (
"70 630 LINE",
"530 630 LINE",
"530 700 LINE",
"70 700 LINE"
);
},
{
closed = 1;
nodes = (
"345 0 LINE",
"345 268 LINE",
"339 630 LINE",
"261 630 LINE",
"255 268 LINE",
"255 0 LINE"
);
}
);
width = 600;
},
{
anchors = (
{
name = bottom;
position = "{300, 0}";
},
{
name = center;
position = "{300, 350}";
},
{
name = top;
position = "{300, 700}";
}
);
guideLines = (
{
position = "{432, 514}";
}
);
layerId = "2BACE4BE-9FDB-4959-B9F6-A4D102DDF28D";
paths = (
{
closed = 1;
nodes = (
"355 0 LINE",
"355 514 LINE",
"343 609 LINE",
"343 700 LINE",
"257 700 LINE",
"257 609 LINE",
"245 514 LINE",
"245 0 LINE"
);
},
{
closed = 1;
nodes = (
"552 610 LINE",
"552 700 LINE",
"48 700 LINE",
"48 610 LINE"
);
}
);
width = 600;
},
{
anchors = (
{
name = bottom;
position = "{300, 0}";
},
{
name = center;
position = "{300, 350}";
},
{
name = top;
position = "{300, 700}";
}
);
associatedMasterId = "2BACE4BE-9FDB-4959-B9F6-A4D102DDF28D";
layerId = "0F3F85CD-69EF-4A2E-B7F8-13A361259278";
name = "Dec 15 20, 13:52";
paths = (
{
closed = 1;
nodes = (
"70 630 LINE",
"530 630 LINE",
"530 700 LINE",
"70 700 LINE"
);
},
{
closed = 1;
nodes = (
"345 0 LINE",
"345 268 LINE",
"339 630 LINE",
"261 630 LINE",
"255 268 LINE",
"255 0 LINE"
);
}
);
width = 600;
},
{
anchors = (
{
name = bottom;
position = "{300, 0}";
},
{
name = center;
position = "{300, 350}";
},
{
name = top;
position = "{300, 700}";
}
);
layerId = "9236AB30-8BE3-474D-8AE7-4C3A4AE1933A";
paths = (
{
closed = 1;
nodes = (
"360 0 LINE",
"360 509 LINE",
"345 599 LINE",
"345 700 LINE",
"255 700 LINE",
"255 599 LINE",
"240 509 LINE",
"240 0 LINE"
);
},
{
closed = 1;
nodes = (
"564 600 LINE",
"564 700 LINE",
"36 700 LINE",
"36 600 LINE"
);
}
);
width = 600;
}
);
unicode = 0054;
},
{
glyphname = Tbar;
lastChange = "2025-05-09 09:28:19 +0000";
layers = (
{
layerId = "4C71D2F8-8800-4A35-9F40-3E8E498F68F0";
paths = (
{
closed = 1;
nodes = (
"345 0 LINE",
"345 240 LINE",
"339 290 LINE",
"339 360 LINE",
"345 420 LINE",
"345 524 LINE",
"339 629 LINE",
"339 700 LINE",
"261 700 LINE",
"261 629 LINE",
"255 524 LINE",
"255 420 LINE",
"261 360 LINE",
"261 290 LINE",
"255 240 LINE",
"255 0 LINE"
);
},
{
closed = 1;
nodes = (
"471 290 LINE",
"471 360 LINE",
"129 360 LINE",
"129 290 LINE"
);
},
{
closed = 1;
nodes = (
"530 630 LINE",
"530 700 LINE",
"70 700 LINE",
"70 630 LINE"
);
}
);
width = 600;
},
{
layerId = "2BACE4BE-9FDB-4959-B9F6-A4D102DDF28D";
paths = (
{
closed = 1;
nodes = (
"345 0 LINE",
"345 230 LINE",
"333 280 LINE",
"333 370 LINE",
"345 420 LINE",
"345 514 LINE",
"333 609 LINE",
"333 700 LINE",
"267 700 LINE",
"267 609 LINE",
"255 514 LINE",
"255 420 LINE",
"267 370 LINE",
"267 280 LINE",
"255 230 LINE",
"255 0 LINE"
);
},
{
closed = 1;
nodes = (
"471 280 LINE",
"471 370 LINE",
"129 370 LINE",
"129 280 LINE"
);
},
{
closed = 1;
nodes = (
"552 610 LINE",
"552 700 LINE",
"48 700 LINE",
"48 610 LINE"
);
}
);
width = 600;
},
{
layerId = "9236AB30-8BE3-474D-8AE7-4C3A4AE1933A";
paths = (
{
closed = 1;
nodes = (
"345 0 LINE",
"345 225 LINE",
"330 275 LINE",
"330 375 LINE",
"345 420 LINE",
"345 509 LINE",
"330 599 LINE",
"330 700 LINE",
"270 700 LINE",
"270 599 LINE",
"255 509 LINE",
"255 420 LINE",
"270 375 LINE",
"270 275 LINE",
"255 225 LINE",
"255 0 LINE"
);
},
{
closed = 1;
nodes = (
"471 275 LINE",
"471 375 LINE",
"129 375 LINE",
"129 275 LINE"
);
},
{
closed = 1;
nodes = (
"563 600 LINE",
"563 700 LINE",
"37 700 LINE",
"37 600 LINE"
);
}
);
width = 600;
}
);
unicode = 0166;
},
